SplineFontDB: 3.2
FontName: Entity-ExtraLightOblique
FullName: Entity ExtraLight Oblique
FamilyName: Entity
Weight: ExtraLight
Copyright: Based on Geist Copyright 2024 The Geist Project Authors https:github.comvercelgeist-font.git
Version: 0.1
ItalicAngle: -10
UnderlinePosition: -125
UnderlineWidth: 50
Ascent: 800
Descent: 200
InvalidEm: 0
sfntRevision: 0x0000199a
LayerCount: 2
Layer: 0 0 "Back" 1
Layer: 1 0 "Fore" 0
XUID: [1021 1008 -1557834819 9851028]
StyleMap: 0x0040
FSType: 0
OS2Version: 4
OS2_WeightWidthSlopeOnly: 0
OS2_UseTypoMetrics: 1
CreationTime: 1728311655
ModificationTime: 1746815829
PfmFamily: 81
TTFWeight: 200
TTFWidth: 5
LineGap: 0
VLineGap: 0
Panose: 0 0 0 0 0 0 0 0 0 0
OS2TypoAscent: 1005
OS2TypoAOffset: 0
OS2TypoDescent: -295
OS2TypoDOffset: 0
OS2TypoLinegap: 0
OS2WinAscent: 1012
OS2WinAOffset: 0
OS2WinDescent: 262
OS2WinDOffset: 0
HheadAscent: 1005
HheadAOffset: 0
HheadDescent: -295
HheadDOffset: 0
OS2SubXSize: 650
OS2SubYSize: 600
OS2SubXOff: 0
OS2SubYOff: 75
OS2SupXSize: 650
OS2SupYSize: 600
OS2SupXOff: 0
OS2SupYOff: 350
OS2StrikeYSize: 50
OS2StrikeYPos: 318
OS2CapHeight: 710
OS2XHeight: 530
OS2Vendor: 'VRCL'
OS2CodePages: 20000097.00000000
OS2UnicodeRanges: a10002ff.5001e5fb.00000000.00000000
Lookup: 1 0 0 "'aalt' Access All Alternates in Latin lookup 0" { "'aalt' Access All Alternates in Latin lookup 0 subtable"  } ['aalt' ('DFLT' <'dflt' > 'latn' <'AZE ' 'CAT ' 'CRT ' 'KAZ ' 'MAH ' 'MOL ' 'NLD ' 'ROM ' 'TAT ' 'TRK ' 'dflt' > ) ]
Lookup: 3 0 0 "'aalt' Access All Alternates in Latin lookup 1" { "'aalt' Access All Alternates in Latin lookup 1 subtable"  } ['aalt' ('DFLT' <'dflt' > 'latn' <'AZE ' 'CAT ' 'CRT ' 'KAZ ' 'MAH ' 'MOL ' 'NLD ' 'ROM ' 'TAT ' 'TRK ' 'dflt' > ) ]

StartChar: .notdef
Encoding: 65536 -1 0
Width: 603
GlyphClass: 1
Flags: HMW
HStem: 0 36<95 510 95 565> 674 36<95 95 95 510>
VStem: 40 33<64 646 64 710> 532 33<64 646 646 646>
LayerCount: 2
Fore
SplineSet
-22.595703125 0 m 1
 102.595703125 710 l 1
 627.595703125 710 l 1
 502.404296875 0 l 1
 -22.595703125 0 l 1
151.248046875 674 m 1
 308.11328125 384 l 1
 566.248046875 674 l 1
 151.248046875 674 l 1
124.311523438 646 m 1
 21.6884765625 64 l 1
 282 355 l 1
 124.311523438 646 l 1
323 355 m 1
 480.688476562 64 l 1
 583.311523438 646 l 1
 323 355 l 1
38.751953125 36 m 1
 453.751953125 36 l 1
 297.88671875 326 l 1
 38.751953125 36 l 1
EndSplineSet
Validated: 524289
EndChar

StartChar: A
Encoding: 65 65 1
Width: 631
GlyphClass: 2
Flags: HMW
HStem: 0 21G<23 23 23 76 555 555 555 608> 224 48<174 457 174 474 157 457> 664 46<315 315>
VStem: 23 585<0 0>
AnchorPoint: "Anchor-3" 377.596 710 basechar 0
AnchorPoint: "Anchor-2" 545.404 0 basechar 0
AnchorPoint: "Anchor-0" 252.404 0 basechar 0
LayerCount: 2
Fore
SplineSet
-39.595703125 0 m 1
 345.595703125 710 l 1
 409.595703125 710 l 1
 545.404296875 0 l 1
 492.404296875 0 l 1
 450.901367188 224 l 1
 133.901367188 224 l 1
 13.404296875 0 l 1
 -39.595703125 0 l 1
159.365234375 272 m 1
 442.365234375 272 l 1
 369.485351562 664 l 1
 159.365234375 272 l 1
EndSplineSet
Validated: 524289
Substitution2: "Single Substitution lookup 27 subtable" ordfeminine
Substitution2: "'aalt' Access All Alternates in Latin lookup 0 subtable" ordfeminine
EndChar

StartChar: Aacute
Encoding: 193 193 2
Width: 631
GlyphClass: 2
Flags: HMW
HStem: 0 21G<23 23 23 76 555 555 555 608> 224 48<174 457 174 474 157 457> 664 46<315 315> 786 120<294 418 294 418>
VStem: 23 585<0 0>
AnchorPoint: "Anchor-3" 360.316 710 basechar 0
AnchorPoint: "Anchor-2" 528.124 0 basechar 0
AnchorPoint: "Anchor-0" 235.124 0 basechar 0
LayerCount: 2
Fore
SplineSet
352.716796875 786 m 1
 443.875976562 906 l 1
 497.875976562 906 l 1
 392.716796875 786 l 1
 352.716796875 786 l 1
-56.8759765625 0 m 1
 328.31640625 710 l 1
 392.31640625 710 l 1
 528.124023438 0 l 1
 475.124023438 0 l 1
 433.62109375 224 l 1
 116.62109375 224 l 1
 -3.8759765625 0 l 1
 -56.8759765625 0 l 1
142.084960938 272 m 1
 425.084960938 272 l 1
 352.205078125 664 l 1
 142.084960938 272 l 1
EndSplineSet
Validated: 524289
EndChar

StartChar: Abreve
Encoding: 258 258 3
Width: 631
GlyphClass: 2
Flags: HMW
HStem: 0 21G<23 23 23 76 555 555 555 608> 224 48<174 457 174 474 157 457> 664 46<315 315> 793 39<290 340 290 352>
VStem: 23 585<0 0>
AnchorPoint: "Anchor-3" 359.699 710 basechar 0
AnchorPoint: "Anchor-2" 527.507 0 basechar 0
AnchorPoint: "Anchor-0" 234.507 0 basechar 0
LayerCount: 2
Fore
SplineSet
374.333984375 793 m 0
 304.492208565 793 266.083241547 834.86633701 266.083241547 900.943920233 c 0
 266.083241547 904.878032758 266.219391622 908.897968028 266.493164062 913 c 1
 303.493164062 913 l 1
 303.39537653 910.905786452 303.3468619 908.85218152 303.3468619 906.839185201 c 0
 303.3468619 856.946395067 333.150024118 832 381.2109375 832 c 0
 431.2109375 832 470.971679688 859 488.493164062 913 c 1
 524.493164062 913 l 1
 503.62109375 840 448.333984375 793 374.333984375 793 c 0
-57.4931640625 0 m 1
 327.69921875 710 l 1
 391.69921875 710 l 1
 527.506835938 0 l 1
 474.506835938 0 l 1
 433.00390625 224 l 1
 116.00390625 224 l 1
 -4.4931640625 0 l 1
 -57.4931640625 0 l 1
141.467773438 272 m 1
 424.467773438 272 l 1
 351.587890625 664 l 1
 141.467773438 272 l 1
EndSplineSet
Validated: 524289
EndChar

StartChar: uni01CD
Encoding: 461 461 4
Width: 631
GlyphClass: 2
Flags: HMW
HStem: 0 21G<23 23 23 76 555 555 555 608> 224 48<174 457 174 474 157 457> 664 46<315 315> 786 31<315 315 315 338 292 315> 786 127<204 338 204 292>
VStem: 23 585<0 0>
AnchorPoint: "Anchor-3" 359.699 710 basechar 0
AnchorPoint: "Anchor-2" 527.507 0 basechar 0
AnchorPoint: "Anchor-0" 234.507 0 basechar 0
LayerCount: 2
Fore
SplineSet
284.493164062 913 m 1xec
 326.493164062 913 l 1xec
 378.565429688 817 l 1xf4
 465.493164062 913 l 1
 507.493164062 913 l 1xec
 396.099609375 786 l 1
 350.099609375 786 l 1xf4
 284.493164062 913 l 1xec
-57.4931640625 0 m 1
 327.69921875 710 l 1
 391.69921875 710 l 1
 527.506835938 0 l 1
 474.506835938 0 l 1
 433.00390625 224 l 1
 116.00390625 224 l 1
 -4.4931640625 0 l 1
 -57.4931640625 0 l 1
141.467773438 272 m 1
 424.467773438 272 l 1
 351.587890625 664 l 1
 141.467773438 272 l 1
EndSplineSet
Validated: 524289
EndChar

StartChar: Acircumflex
Encoding: 194 194 5
Width: 631
GlyphClass: 2
Flags: HMW
HStem: 0 21G<23 23 23 76 555 555 555 608> 224 48<174 457 174 474 157 457> 664 46<315 315> 786 127<204 339 204 339 293 386 293 428> 882 31<316 316>
VStem: 23 585<0 0>
AnchorPoint: "Anchor-3" 359.699 710 basechar 0
AnchorPoint: "Anchor-2" 527.507 0 basechar 0
AnchorPoint: "Anchor-0" 234.507 0 basechar 0
LayerCount: 2
Fore
SplineSet
262.099609375 786 m 1xf4
 373.493164062 913 l 1
 419.493164062 913 l 1xec
 486.099609375 786 l 1
 444.099609375 786 l 1xf4
 391.02734375 882 l 1xec
 304.099609375 786 l 1
 262.099609375 786 l 1xf4
-57.4931640625 0 m 1
 327.69921875 710 l 1
 391.69921875 710 l 1
 527.506835938 0 l 1
 474.506835938 0 l 1
 433.00390625 224 l 1
 116.00390625 224 l 1
 -4.4931640625 0 l 1
 -57.4931640625 0 l 1
141.467773438 272 m 1
 424.467773438 272 l 1
 351.587890625 664 l 1
 141.467773438 272 l 1
EndSplineSet
Validated: 524289
EndChar

StartChar: Adieresis
Encoding: 196 196 6
Width: 631
GlyphClass: 2
Flags: HMW
HStem: 0 21G<23 23 23 76 555 555 555 608> 224 48<174 457 174 474 157 457> 664 46<315 315> 803 79<218 270 218 270 361 413>
VStem: 218 52<803 882 803 882> 361 52<803 882 803 882>
AnchorPoint: "Anchor-3" 362.432 710 basechar 0
AnchorPoint: "Anchor-2" 530.24 0 basechar 0
AnchorPoint: "Anchor-0" 237.24 0 basechar 0
LayerCount: 2
Fore
SplineSet
281.830078125 803 m 1
 295.759765625 882 l 1
 347.759765625 882 l 1
 333.830078125 803 l 1
 281.830078125 803 l 1
424.830078125 803 m 1
 438.759765625 882 l 1
 490.759765625 882 l 1
 476.830078125 803 l 1
 424.830078125 803 l 1
-54.759765625 0 m 1
 330.431640625 710 l 1
 394.431640625 710 l 1
 530.240234375 0 l 1
 477.240234375 0 l 1
 435.737304688 224 l 1
 118.737304688 224 l 1
 -1.759765625 0 l 1
 -54.759765625 0 l 1
144.201171875 272 m 1
 427.201171875 272 l 1
 354.321289062 664 l 1
 144.201171875 272 l 1
EndSplineSet
Validated: 524289
Substitution2: "'ss08' Style Set 8 in Latin lookup 41 subtable" Adieresis.ss08
Substitution2: "'aalt' Access All Alternates in Latin lookup 0 subtable" Adieresis.ss08
EndChar

StartChar: Agrave
Encoding: 192 192 7
Width: 631
GlyphClass: 2
Flags: HMW
HStem: 0 21G<23 23 23 76 555 555 555 608> 224 48<174 457 174 474 157 457> 664 46<315 315> 793 120<213 296 213 337>
VStem: 23 585<0 0>
AnchorPoint: "Anchor-3" 359.699 710 basechar 0
AnchorPoint: "Anchor-2" 527.507 0 basechar 0
AnchorPoint: "Anchor-0" 234.507 0 basechar 0
LayerCount: 2
Fore
SplineSet
355.333984375 793 m 1
 293.493164062 913 l 1
 347.493164062 913 l 1
 396.333984375 793 l 1
 355.333984375 793 l 1
-57.4931640625 0 m 1
 327.69921875 710 l 1
 391.69921875 710 l 1
 527.506835938 0 l 1
 474.506835938 0 l 1
 433.00390625 224 l 1
 116.00390625 224 l 1
 -4.4931640625 0 l 1
 -57.4931640625 0 l 1
141.467773438 272 m 1
 424.467773438 272 l 1
 351.587890625 664 l 1
 141.467773438 272 l 1
EndSplineSet
Validated: 524289
EndChar

StartChar: Amacron
Encoding: 256 256 8
Width: 631
GlyphClass: 2
Flags: HMW
HStem: 0 21G<23 23 23 76 555 555 555 608> 224 48<174 457 174 474 157 457> 664 46<315 315> 818 42<188 443 188 443>
VStem: 23 585<0 0>
AnchorPoint: "Anchor-3" 364.371 710 basechar 0
AnchorPoint: "Anchor-2" 532.18 0 basechar 0
AnchorPoint: "Anchor-0" 239.18 0 basechar 0
LayerCount: 2
Fore
SplineSet
256.415039062 818 m 1
 263.8203125 860 l 1
 518.8203125 860 l 1
 511.415039062 818 l 1
 256.415039062 818 l 1
-52.8203125 0 m 1
 332.37109375 710 l 1
 396.37109375 710 l 1
 532.1796875 0 l 1
 479.1796875 0 l 1
 437.676757812 224 l 1
 120.676757812 224 l 1
 0.1796875 0 l 1
 -52.8203125 0 l 1
146.140625 272 m 1
 429.140625 272 l 1
 356.260742188 664 l 1
 146.140625 272 l 1
EndSplineSet
Validated: 524289
EndChar

StartChar: Aogonek
Encoding: 260 260 9
Width: 631
GlyphClass: 2
Flags: HMW
HStem: -198 40<572 592 572 592.5> 0 21G<23 23 23 76 555 555 555 568 608 608> 224 48<174 457 174 474 157 457> 664 46<315 315>
VStem: 500 46<-137.5 -118>
AnchorPoint: "Anchor-3" 395.053 710 basechar 0
AnchorPoint: "Anchor-2" 562.86 0 basechar 0
AnchorPoint: "Anchor-0" 269.86 0 basechar 0
LayerCount: 2
Fore
SplineSet
-22.1396484375 0 m 1
 363.052734375 710 l 1
 427.052734375 710 l 1
 562.860351562 0 l 1
 526.278320312 -43 l 2
 498.8125 -74 483.404296875 -99 478.819335938 -125 c 0
 478.284721898 -128.031927207 478.029533642 -130.813816167 478.029533642 -133.361720716 c 0
 478.029533642 -151.822768355 491.426518328 -158 509.000976562 -158 c 0
 529.000976562 -158 547.05859375 -152 560.645507812 -143 c 1
 571.650390625 -177 l 1
 552.358398438 -190 526.947265625 -198 497.947265625 -198 c 0
 457.765599242 -198 429.823211351 -182.85098274 429.823211351 -148.281279744 c 0
 429.823211351 -144.135897607 430.225003423 -139.711259537 431.055664062 -135 c 0
 437.05078125 -101 468.751953125 -63 501.452148438 -25 c 2
 522.860351562 0 l 1
 509.860351562 0 l 1
 468.357421875 224 l 1
 151.357421875 224 l 1
 30.8603515625 0 l 1
 -22.1396484375 0 l 1
176.821289062 272 m 1
 459.821289062 272 l 1
 386.94140625 664 l 1
 176.821289062 272 l 1
EndSplineSet
Validated: 524289
EndChar

StartChar: Aring
Encoding: 197 197 10
Width: 631
GlyphClass: 2
Flags: HMW
HStem: 0 21G<22 22 22 76 554 554 554 608> 224 48<174 456 174 473 157 456> 664 46<315 315> 767 33<300.5 327.5 300.5 336.5> 889 34<300.5 327.5>
VStem: 235 34<831.5 858 831.5 867> 358 34<831.5 858>
AnchorPoint: "Anchor-3" 358.817 710 basechar 0
AnchorPoint: "Anchor-2" 526.625 0 basechar 0
AnchorPoint: "Anchor-0" 233.625 0 basechar 0
LayerCount: 2
Fore
SplineSet
367.868164062 767 m 0
 328.033261104 767 301.239724761 792.075666073 301.239724761 829.740914161 c 0
 301.239724761 834.624688114 301.690188131 839.720123024 302.62109375 845 c 0
 310.379882812 889 350.375 923 395.375 923 c 0
 435.210340554 923 460.944135372 896.356519437 460.944135372 859.718219045 c 0
 460.944135372 854.968056461 460.511571599 850.049889236 459.62109375 845 c 0
 451.686523438 800 412.868164062 767 367.868164062 767 c 0
373.686523438 800 m 0
 400.686523438 800 420.860351562 818 425.62109375 845 c 0
 426.20248027 848.2968764 426.487834457 851.465120918 426.487834457 854.484344929 c 0
 426.487834457 875.275484051 412.956203474 889 389.379882812 889 c 0
 362.379882812 889 341.206054688 871 336.62109375 845 c 0
 336.028571981 841.639581156 335.739457014 838.41857484 335.739457014 835.354332331 c 0
 335.739457014 813.798266598 350.046942282 800 373.686523438 800 c 0
-59.375 0 m 1
 326.817382812 710 l 1
 390.817382812 710 l 1
 526.625 0 l 1
 472.625 0 l 1
 431.122070312 224 l 1
 115.122070312 224 l 1
 -5.375 0 l 1
 -59.375 0 l 1
140.5859375 272 m 1
 422.5859375 272 l 1
 350.706054688 664 l 1
 140.5859375 272 l 1
EndSplineSet
Validated: 524289
EndChar

StartChar: Atilde
Encoding: 195 195 11
Width: 631
GlyphClass: 2
Flags: HMW
HStem: 0 21G<22 22 22 76 554 554 554 608> 224 48<174 456 174 473 157 456> 664 46<315 315> 803 35<361 381.5 361 390.5> 861 35<234 259.5>
VStem: 166 34<798 798> 412 35<905 905>
AnchorPoint: "Anchor-3" 360.404 710 basechar 0
AnchorPoint: "Anchor-2" 528.212 0 basechar 0
AnchorPoint: "Anchor-0" 235.212 0 basechar 0
LayerCount: 2
Fore
SplineSet
428.802734375 803 m 0
 401.802734375 803 384.7421875 814 368.268554688 834 c 0
 353.442382812 852 343.029296875 861 320.029296875 861 c 0
 292.029296875 861 270.85546875 843 260.920898438 798 c 1
 226.920898438 798 l 1
 241.029296875 861 280.201171875 896 326.201171875 896 c 0xee
 358.201171875 896 375.732421875 882 393.206054688 862 c 0
 409.032226562 844 420.973632812 838 436.973632812 838 c 0
 461.973632812 838 478.971679688 855 491.788085938 905 c 1
 526.788085938 905 l 1
 511.502929688 841 475.802734375 803 428.802734375 803 c 0
-57.7880859375 0 m 1
 328.404296875 710 l 1
 392.404296875 710 l 1
 528.211914062 0 l 1
 474.211914062 0 l 1
 432.708984375 224 l 1
 116.708984375 224 l 1
 -3.7880859375 0 l 1
 -57.7880859375 0 l 1
142.172851562 272 m 1
 424.172851562 272 l 1
 352.29296875 664 l 1
 142.172851562 272 l 1
EndSplineSet
Validated: 524289
EndChar

StartChar: AE
Encoding: 198 198 12
Width: 917
GlyphClass: 2
Flags: HMW
HStem: 0 48<515 865 515 865> 224 48<220 465 220 465 195 465> 332 48<515 845 515 845> 662 48<515 857 515 515> 663 47<422 465 422 422>
VStem: 465 50<48 224 224 224 272 332 380 662>
AnchorPoint: "Anchor-3" 545.596 710 basechar 0
AnchorPoint: "Anchor-0" 420.404 0 basechar 0
LayerCount: 2
Fore
SplineSet
-39.595703125 0 m 1xf4
 459.595703125 710 l 1
 919.595703125 710 l 1
 911.1328125 662 l 1
 569.1328125 662 l 1
 519.408203125 380 l 1
 849.408203125 380 l 1
 840.944335938 332 l 1
 510.944335938 332 l 1
 460.8671875 48 l 1
 810.8671875 48 l 1
 802.404296875 0 l 1
 402.404296875 0 l 1
 441.901367188 224 l 1
 171.901367188 224 l 1
 16.404296875 0 l 1
 -39.595703125 0 l 1xf4
519.30859375 663 m 1xec
 476.30859375 663 l 1
 205.365234375 272 l 1
 450.365234375 272 l 1
 519.30859375 663 l 1xec
EndSplineSet
Validated: 524289
EndChar

StartChar: B
Encoding: 66 66 13
Width: 652
GlyphClass: 2
Flags: HMW
HStem: 0 48<145 361 145 361> 332 48<145 321 321 361 145 321> 662 48<145 321 145 145>
VStem: 95 50<48 48 48 332 380 662> 512 53<478.5 566.5> 542 53<144.5 236>
AnchorPoint: "Anchor-3" 388.596 710 basechar 0
AnchorPoint: "Anchor-0" 263.404 0 basechar 0
LayerCount: 2
Fore
SplineSet
32.404296875 0 m 1xf4
 157.595703125 710 l 1
 383.595703125 710 l 2
 526.037637784 710 598.178698313 662.066693551 598.178698313 563.480959622 c 0
 598.178698313 549.944593169 596.818636708 535.453286196 594.09375 520 c 0xf8
 579.458984375 437 516.703125 376 433.057617188 361 c 1
 519.488983821 349.616852967 569.122930502 299.130878392 569.122930502 224.312047882 c 0
 569.122930502 213.684841911 568.121559122 202.566717382 566.08203125 191 c 0
 543.688476562 64 452.404296875 0 298.404296875 0 c 2
 32.404296875 0 l 1xf4
149.408203125 380 m 1
 325.408203125 380 l 2
 447.408203125 380 525.224609375 430 540.741210938 518 c 0
 542.775411374 529.536659871 543.793750379 540.366047337 543.793750379 550.493209551 c 0
 543.793750379 625.515019897 487.909178856 662 375.1328125 662 c 2
 199.1328125 662 l 1
 149.408203125 380 l 1
90.8671875 48 m 1
 306.8671875 48 l 2
 425.8671875 48 496.331054688 96 513.434570312 193 c 0xf4
 514.995575657 201.852364908 515.76382191 210.355078109 515.76382191 218.486326745 c 0
 515.76382191 289.349492589 457.415674662 332 356.944335938 332 c 2
 140.944335938 332 l 1
 90.8671875 48 l 1
EndSplineSet
Validated: 524289
EndChar

StartChar: C
Encoding: 67 67 14
Width: 685
GlyphClass: 2
Flags: HMW
HStem: -16 49<276.5 421 276.5 434> 677 49<276.5 418>
VStem: 48 53<254 454 254 469>
AnchorPoint: "Anchor-3" 415.596 710 basechar 0
AnchorPoint: "Anchor-0" 291.404 0 basechar 0
LayerCount: 2
Fore
SplineSet
287.583007812 -16 m 0
 131.609887717 -16 38.6442154782 84.5985936585 38.6442154782 255.340275288 c 0
 38.6442154782 286.020924639 41.6459522084 318.966400119 47.8232421875 354 c 0
 88.37890625 584 234.416992188 726 418.416992188 726 c 0
 578.416992188 726 655.490234375 630 658.216796875 481 c 1
 604.51171875 477 l 1
 604.0234375 599 539.77734375 677 409.77734375 677 c 0
 256.77734375 677 136.088867188 554 100.823242188 354 c 0
 95.1660815252 321.915967333 92.4150993202 291.864970341 92.4150993202 264.020399867 c 0
 92.4150993202 118.292210558 167.76694124 33 296.22265625 33 c 0
 432.22265625 33 528.504882812 114 570.309570312 249 c 1
 622.604492188 245 l 1
 569.391601562 85 449.583007812 -16 287.583007812 -16 c 0
EndSplineSet
Validated: 524289
EndChar

StartChar: Cacute
Encoding: 262 262 15
Width: 685
GlyphClass: 2
Flags: HMW
HStem: -16 49<276.5 421 276.5 434> 677 49<276.5 418> 786 120<331 455 331 455>
VStem: 48 53<254 454 254 469>
AnchorPoint: "Anchor-3" 399.727 710 basechar 0
AnchorPoint: "Anchor-0" 275.534 0 basechar 0
LayerCount: 2
Fore
SplineSet
391.127929688 786 m 1
 482.287109375 906 l 1
 536.287109375 906 l 1
 432.127929688 786 l 1
 391.127929688 786 l 1
271.712890625 -16 m 0
 115.739949859 -16 22.7750137825 84.5983623337 22.7750137825 255.339686362 c 0
 22.7750137825 286.020503039 25.7767720583 318.966175958 31.9541015625 354 c 0
 72.509765625 584 218.547851562 726 402.547851562 726 c 0
 562.547851562 726 639.620117188 630 642.34765625 481 c 1
 588.642578125 477 l 1
 588.154296875 599 523.908203125 677 393.908203125 677 c 0
 240.908203125 677 120.219726562 554 84.9541015625 354 c 0
 79.2967140851 321.915569468 76.5456274071 291.864225034 76.5456274071 264.01936399 c 0
 76.5456274071 118.291806371 151.898104982 33 280.353515625 33 c 0
 416.353515625 33 512.635742188 114 554.439453125 249 c 1
 606.734375 245 l 1
 553.522460938 85 433.712890625 -16 271.712890625 -16 c 0
EndSplineSet
Validated: 524289
EndChar

StartChar: Ccaron
Encoding: 268 268 16
Width: 685
GlyphClass: 2
Flags: HMW
HStem: -16 49<276.5 421 276.5 434> 677 49<276.5 418> 786 31<353 353 353 376 330 353> 786 127<241 376 241 330>
VStem: 48 53<254 454 254 469>
AnchorPoint: "Anchor-3" 399.109 710 basechar 0
AnchorPoint: "Anchor-0" 274.917 0 basechar 0
LayerCount: 2
Fore
SplineSet
322.904296875 913 m 1xd8
 364.904296875 913 l 1xd8
 417.9765625 817 l 1xe8
 503.904296875 913 l 1
 545.904296875 913 l 1xd8
 435.510742188 786 l 1
 389.510742188 786 l 1xe8
 322.904296875 913 l 1xd8
271.095703125 -16 m 0
 115.122762359 -16 22.1578262825 84.5983623337 22.1578262825 255.339686362 c 0
 22.1578262825 286.020503039 25.1595845583 318.966175958 31.3369140625 354 c 0
 71.892578125 584 217.930664062 726 401.930664062 726 c 0
 561.930664062 726 639.002929688 630 641.73046875 481 c 1
 588.025390625 477 l 1
 587.537109375 599 523.291015625 677 393.291015625 677 c 0
 240.291015625 677 119.602539062 554 84.3369140625 354 c 0
 78.6795265851 321.915569468 75.9284399071 291.864225034 75.9284399071 264.01936399 c 0
 75.9284399071 118.291806371 151.280917482 33 279.736328125 33 c 0
 415.736328125 33 512.018554688 114 553.823242188 249 c 1
 606.1171875 245 l 1
 552.905273438 85 433.095703125 -16 271.095703125 -16 c 0
EndSplineSet
Validated: 524289
EndChar

StartChar: Ccedilla
Encoding: 199 199 17
Width: 685
GlyphClass: 2
Flags: HMW
HStem: -209 36<323.5 363 323.5 374.5> -75 31<348 348 348 355.5> -15 48<326 326> 677 49<276.5 418>
VStem: 48 53<254 454 254 469> 407 38<-141 -108>
AnchorPoint: "Anchor-3" 432.611 710 basechar 0
AnchorPoint: "Anchor-0" 308.42 0 basechar 0
LayerCount: 2
Fore
SplineSet
262.567382812 -209 m 0
 208.567382812 -209 177.151367188 -183 171.205078125 -143 c 1
 206.497070312 -130 l 1
 211.736328125 -157 227.915039062 -173 266.915039062 -173 c 0
 306.915039062 -173 333.559570312 -158 339.5546875 -124 c 0
 340.217544722 -120.240826331 340.567903285 -116.688655396 340.567903285 -113.346729525 c 0
 340.567903285 -88.2404810754 320.794439338 -75 265.1953125 -75 c 1xdc
 250.07421875 -53 l 1
 277.774414062 -15 l 1
 137.863480407 -4.08965345223 55.6145725005 94.1604686119 55.6145725005 254.922758768 c 0
 55.6145725005 285.713483255 58.6317550475 318.797376459 64.8388671875 354 c 0
 105.39453125 584 251.432617188 726 435.432617188 726 c 0
 595.432617188 726 672.505859375 630 675.232421875 481 c 1
 621.52734375 477 l 1
 621.0390625 599 556.79296875 677 426.79296875 677 c 0
 273.79296875 677 153.104492188 554 117.838867188 354 c 0
 112.181706525 321.915967333 109.43072432 291.864970341 109.43072432 264.020399867 c 0
 109.43072432 118.292210558 184.78256624 33 313.23828125 33 c 0xbc
 449.23828125 33 545.520507812 114 587.325195312 249 c 1
 639.619140625 245 l 1
 588.112304688 89 472.479492188 -11 316.598632812 -16 c 1
 294.661132812 -44 l 1
 349.740753362 -45.7583991346 378.859471845 -67.6145871275 378.859471845 -108.209335727 c 0
 378.859471845 -113.786980869 378.309760999 -119.7183775 377.202148438 -126 c 0
 368.033203125 -178 321.567382812 -209 262.567382812 -209 c 0
EndSplineSet
Validated: 524289
EndChar

StartChar: Ccircumflex
Encoding: 264 264 18
Width: 685
GlyphClass: 2
Flags: HMW
HStem: -16 49<276.5 421 276.5 434> 677 49<276.5 418> 786 127<242 376 242 376 330 423 330 465> 882 31<353 353>
VStem: 48 53<254 454 254 469>
AnchorPoint: "Anchor-3" 399.109 710 basechar 0
AnchorPoint: "Anchor-0" 274.917 0 basechar 0
LayerCount: 2
Fore
SplineSet
301.510742188 786 m 1xe8
 411.904296875 913 l 1
 457.904296875 913 l 1xd8
 524.510742188 786 l 1
 482.510742188 786 l 1xe8
 429.4375 882 l 1xd8
 343.510742188 786 l 1
 301.510742188 786 l 1xe8
271.095703125 -16 m 0
 115.122762359 -16 22.1578262825 84.5983623337 22.1578262825 255.339686362 c 0
 22.1578262825 286.020503039 25.1595845583 318.966175958 31.3369140625 354 c 0
 71.892578125 584 217.930664062 726 401.930664062 726 c 0
 561.930664062 726 639.002929688 630 641.73046875 481 c 1
 588.025390625 477 l 1
 587.537109375 599 523.291015625 677 393.291015625 677 c 0
 240.291015625 677 119.602539062 554 84.3369140625 354 c 0
 78.6795265851 321.915569468 75.9284399071 291.864225034 75.9284399071 264.01936399 c 0
 75.9284399071 118.291806371 151.280917482 33 279.736328125 33 c 0
 415.736328125 33 512.018554688 114 553.823242188 249 c 1
 606.1171875 245 l 1
 552.905273438 85 433.095703125 -16 271.095703125 -16 c 0
EndSplineSet
Validated: 524289
EndChar

StartChar: Cdotaccent
Encoding: 266 266 19
Width: 685
GlyphClass: 2
Flags: HMW
HStem: -16 49<276.5 421 276.5 434> 677 49<276.5 418> 803 79<327 379 327 379>
VStem: 48 53<254 454 254 469> 327 52<803 882 803 882>
AnchorPoint: "Anchor-3" 401.843 710 basechar 0
AnchorPoint: "Anchor-0" 277.65 0 basechar 0
LayerCount: 2
Fore
SplineSet
392.241210938 803 m 1
 406.170898438 882 l 1
 458.170898438 882 l 1
 444.241210938 803 l 1
 392.241210938 803 l 1
273.829101562 -16 m 0
 117.856480456 -16 24.8909040595 84.5979499906 24.8909040595 255.338636583 c 0
 24.8909040595 286.019751523 27.8927637883 318.965776383 34.0703125 354 c 0
 74.625 584 220.6640625 726 404.6640625 726 c 0
 564.6640625 726 641.736328125 630 644.463867188 481 c 1
 590.758789062 477 l 1
 590.270507812 599 526.0234375 677 396.0234375 677 c 0
 243.0234375 677 122.3359375 554 87.0703125 354 c 0
 81.4128816312 321.915323385 78.6617710113 291.863764054 78.6617710113 264.018723291 c 0
 78.6617710113 118.291556378 154.013527611 33 282.46875 33 c 0
 418.46875 33 514.751953125 114 556.555664062 249 c 1
 608.850585938 245 l 1
 555.638671875 85 435.829101562 -16 273.829101562 -16 c 0
EndSplineSet
Validated: 524289
Substitution2: "'ss08' Style Set 8 in Latin lookup 41 subtable" Cdotaccent.ss08
Substitution2: "'aalt' Access All Alternates in Latin lookup 0 subtable" Cdotaccent.ss08
EndChar

StartChar: D
Encoding: 68 68 20
Width: 683
GlyphClass: 2
Flags: HMW
HStem: 0 48<145 303 303 309> 662 48<145 303 145 145>
VStem: 95 50<48 48 48 662> 582 53<254.5 454>
AnchorPoint: "Anchor-3" 382.596 710 basechar 0
AnchorPoint: "Anchor-1" 200 355 basechar 0
AnchorPoint: "Anchor-0" 257.404 0 basechar 0
LayerCount: 2
Fore
SplineSet
32.404296875 0 m 1
 157.595703125 710 l 1
 365.595703125 710 l 2
 546.244400454 710 643.704013765 617.058876906 643.704013765 448.500901015 c 0
 643.704013765 419.247924393 640.768621151 387.717438722 634.823242188 354 c 0
 594.797851562 127 455.404296875 0 246.404296875 0 c 2
 32.404296875 0 l 1
90.8671875 48 m 1
 248.8671875 48 l 2
 429.8671875 48 546.734375 155 581.823242188 354 c 0
 587.312877533 385.133067087 590.034727784 414.036818082 590.034727784 440.650900422 c 0
 590.034727784 585.006689215 509.957386786 662 357.1328125 662 c 2
 199.1328125 662 l 1
 90.8671875 48 l 1
EndSplineSet
Validated: 524289
EndChar

StartChar: Dcaron
Encoding: 270 270 21
Width: 683
GlyphClass: 2
Flags: HMW
HStem: 0 48<145 303 303 309> 662 48<145 303 145 145> 786 31<320 320 320 343 297 320> 786 127<209 343 209 297>
VStem: 95 50<48 48 48 662> 582 53<254.5 454>
AnchorPoint: "Anchor-3" 364.699 710 basechar 0
AnchorPoint: "Anchor-1" 182.103 355 basechar 0
AnchorPoint: "Anchor-0" 239.507 0 basechar 0
LayerCount: 2
Fore
SplineSet
289.493164062 913 m 1xdc
 331.493164062 913 l 1xdc
 383.565429688 817 l 1xec
 470.493164062 913 l 1
 512.493164062 913 l 1xdc
 401.099609375 786 l 1
 355.099609375 786 l 1xec
 289.493164062 913 l 1xdc
14.5068359375 0 m 1
 139.69921875 710 l 1
 347.69921875 710 l 2
 528.348281699 710 625.807214806 617.058500692 625.807214806 448.499877565 c 0
 625.807214806 419.247188972 622.871923025 387.717045507 616.926757812 354 c 0
 576.900390625 127 437.506835938 0 228.506835938 0 c 2
 14.5068359375 0 l 1
72.970703125 48 m 1
 230.970703125 48 l 2
 411.970703125 48 528.837890625 155 563.926757812 354 c 0
 569.416131855 385.132447287 572.137854669 414.035667243 572.137854669 440.64931091 c 0
 572.137854669 585.00612403 492.060486768 662 339.235351562 662 c 2
 181.235351562 662 l 1
 72.970703125 48 l 1
EndSplineSet
Validated: 524289
EndChar

StartChar: Dcroat
Encoding: 272 272 22
Width: 683
GlyphClass: 2
Flags: HMW
HStem: 0 48<145 303 303 309> 332 46<13 95 13 95 145 387> 662 48<145 303 145 145>
VStem: 95 50<48 48 48 332 378 662> 582 53<254.5 454>
AnchorPoint: "Anchor-3" 382.596 710 basechar 0
AnchorPoint: "Anchor-1" 200 355 basechar 0
AnchorPoint: "Anchor-0" 257.404 0 basechar 0
LayerCount: 2
Fore
SplineSet
32.404296875 0 m 1
 90.9443359375 332 l 1
 8.9443359375 332 l 1
 17.0556640625 378 l 1
 99.0556640625 378 l 1
 157.595703125 710 l 1
 365.595703125 710 l 2
 546.244400454 710 643.704013765 617.058876906 643.704013765 448.500901015 c 0
 643.704013765 419.247924393 640.768621151 387.717438722 634.823242188 354 c 0
 594.797851562 127 455.404296875 0 246.404296875 0 c 2
 32.404296875 0 l 1
90.8671875 48 m 1
 248.8671875 48 l 2
 429.8671875 48 546.734375 155 581.823242188 354 c 0
 587.312877533 385.133067087 590.034727784 414.036818082 590.034727784 440.650900422 c 0
 590.034727784 585.006689215 509.957386786 662 357.1328125 662 c 2
 199.1328125 662 l 1
 149.055664062 378 l 1
 391.055664062 378 l 1
 382.944335938 332 l 1
 140.944335938 332 l 1
 90.8671875 48 l 1
EndSplineSet
Validated: 524289
EndChar

StartChar: Eth
Encoding: 208 208 23
Width: 683
GlyphClass: 2
Flags: HMW
HStem: 0 48<145 303 303 309> 332 46<13 95 13 95 145 387> 662 48<145 303 145 145>
VStem: 95 50<48 48 48 332 378 662> 582 53<254.5 454>
AnchorPoint: "Anchor-3" 382.596 710 basechar 0
AnchorPoint: "Anchor-1" 200 355 basechar 0
AnchorPoint: "Anchor-0" 257.404 0 basechar 0
LayerCount: 2
Fore
SplineSet
32.404296875 0 m 1
 90.9443359375 332 l 1
 8.9443359375 332 l 1
 17.0556640625 378 l 1
 99.0556640625 378 l 1
 157.595703125 710 l 1
 365.595703125 710 l 2
 546.244400454 710 643.704013765 617.058876906 643.704013765 448.500901015 c 0
 643.704013765 419.247924393 640.768621151 387.717438722 634.823242188 354 c 0
 594.797851562 127 455.404296875 0 246.404296875 0 c 2
 32.404296875 0 l 1
90.8671875 48 m 1
 248.8671875 48 l 2
 429.8671875 48 546.734375 155 581.823242188 354 c 0
 587.312877533 385.133067087 590.034727784 414.036818082 590.034727784 440.650900422 c 0
 590.034727784 585.006689215 509.957386786 662 357.1328125 662 c 2
 199.1328125 662 l 1
 149.055664062 378 l 1
 391.055664062 378 l 1
 382.944335938 332 l 1
 140.944335938 332 l 1
 90.8671875 48 l 1
EndSplineSet
Validated: 524289
EndChar

StartChar: E
Encoding: 69 69 24
Width: 583
GlyphClass: 2
Flags: HMW
HStem: 0 48<145 531 145 531> 331 47<145 511 145 511> 662 48<145 523 145 145>
VStem: 95 50<48 331 378 662>
AnchorPoint: "Anchor-3" 372.596 710 basechar 0
AnchorPoint: "Anchor-2" 468.404 0 basechar 0
AnchorPoint: "Anchor-0" 247.404 0 basechar 0
LayerCount: 2
Fore
SplineSet
32.404296875 0 m 1
 157.595703125 710 l 1
 585.595703125 710 l 1
 577.1328125 662 l 1
 199.1328125 662 l 1
 149.055664062 378 l 1
 515.055664062 378 l 1
 506.768554688 331 l 1
 140.768554688 331 l 1
 90.8671875 48 l 1
 476.8671875 48 l 1
 468.404296875 0 l 1
 32.404296875 0 l 1
EndSplineSet
Validated: 524289
EndChar

StartChar: Eacute
Encoding: 201 201 25
Width: 583
GlyphClass: 2
Flags: HMW
HStem: 0 48<145 531 145 531> 331 47<145 511 145 511> 662 48<145 523 145 145> 786 120<288 412 288 412>
VStem: 95 50<48 331 378 662>
AnchorPoint: "Anchor-3" 355.316 710 basechar 0
AnchorPoint: "Anchor-2" 451.124 0 basechar 0
AnchorPoint: "Anchor-0" 230.124 0 basechar 0
LayerCount: 2
Fore
SplineSet
346.716796875 786 m 1
 437.875976562 906 l 1
 491.875976562 906 l 1
 387.716796875 786 l 1
 346.716796875 786 l 1
15.1240234375 0 m 1
 140.31640625 710 l 1
 568.31640625 710 l 1
 559.852539062 662 l 1
 181.852539062 662 l 1
 131.775390625 378 l 1
 497.775390625 378 l 1
 489.48828125 331 l 1
 123.48828125 331 l 1
 73.587890625 48 l 1
 459.587890625 48 l 1
 451.124023438 0 l 1
 15.1240234375 0 l 1
EndSplineSet
Validated: 524289
EndChar

StartChar: Ecaron
Encoding: 282 282 26
Width: 583
GlyphClass: 2
Flags: HMW
HStem: 0 48<145 531 145 531> 331 47<145 511 145 511> 662 48<145 523 145 145> 786 31<310 310 310 333 287 310> 786 127<198 333 198 287>
VStem: 95 50<48 331 378 662>
AnchorPoint: "Anchor-3" 354.699 710 basechar 0
AnchorPoint: "Anchor-2" 450.507 0 basechar 0
AnchorPoint: "Anchor-0" 229.507 0 basechar 0
LayerCount: 2
Fore
SplineSet
278.493164062 913 m 1xec
 320.493164062 913 l 1xec
 373.565429688 817 l 1xf4
 459.493164062 913 l 1
 501.493164062 913 l 1xec
 391.099609375 786 l 1
 345.099609375 786 l 1xf4
 278.493164062 913 l 1xec
14.5068359375 0 m 1
 139.69921875 710 l 1
 567.69921875 710 l 1
 559.235351562 662 l 1
 181.235351562 662 l 1
 131.158203125 378 l 1
 497.158203125 378 l 1
 488.87109375 331 l 1
 122.87109375 331 l 1
 72.970703125 48 l 1
 458.970703125 48 l 1
 450.506835938 0 l 1
 14.5068359375 0 l 1
EndSplineSet
Validated: 524289
EndChar

StartChar: Ecircumflex
Encoding: 202 202 27
Width: 583
GlyphClass: 2
Flags: HMW
HStem: 0 48<145 531 145 531> 331 47<145 511 145 511> 662 48<145 523 145 145> 786 127<199 333 199 333 287 380 287 422> 882 31<310 310>
VStem: 95 50<48 331 378 662>
AnchorPoint: "Anchor-3" 354.699 710 basechar 0
AnchorPoint: "Anchor-2" 450.507 0 basechar 0
AnchorPoint: "Anchor-0" 229.507 0 basechar 0
LayerCount: 2
Fore
SplineSet
257.099609375 786 m 1xf4
 367.493164062 913 l 1
 413.493164062 913 l 1xec
 480.099609375 786 l 1
 438.099609375 786 l 1xf4
 385.02734375 882 l 1xec
 299.099609375 786 l 1
 257.099609375 786 l 1xf4
14.5068359375 0 m 1
 139.69921875 710 l 1
 567.69921875 710 l 1
 559.235351562 662 l 1
 181.235351562 662 l 1
 131.158203125 378 l 1
 497.158203125 378 l 1
 488.87109375 331 l 1
 122.87109375 331 l 1
 72.970703125 48 l 1
 458.970703125 48 l 1
 450.506835938 0 l 1
 14.5068359375 0 l 1
EndSplineSet
Validated: 524289
EndChar

StartChar: Edieresis
Encoding: 203 203 28
Width: 583
GlyphClass: 2
Flags: HMW
HStem: 0 48<145 531 145 531> 331 47<145 511 145 511> 662 48<145 523 145 145> 803 79<212 264 212 264 355 407>
VStem: 95 50<48 331 378 662> 212 52<803 882 803 882> 355 52<803 882 803 882>
AnchorPoint: "Anchor-3" 357.432 710 basechar 0
AnchorPoint: "Anchor-2" 453.24 0 basechar 0
AnchorPoint: "Anchor-0" 232.24 0 basechar 0
LayerCount: 2
Fore
SplineSet
275.830078125 803 m 1
 289.759765625 882 l 1
 341.759765625 882 l 1
 327.830078125 803 l 1
 275.830078125 803 l 1
418.830078125 803 m 1
 432.759765625 882 l 1
 484.759765625 882 l 1
 470.830078125 803 l 1
 418.830078125 803 l 1
17.240234375 0 m 1
 142.431640625 710 l 1
 570.431640625 710 l 1
 561.96875 662 l 1
 183.96875 662 l 1
 133.891601562 378 l 1
 499.891601562 378 l 1
 491.604492188 331 l 1
 125.604492188 331 l 1
 75.703125 48 l 1
 461.703125 48 l 1
 453.240234375 0 l 1
 17.240234375 0 l 1
EndSplineSet
Validated: 524289
Substitution2: "'ss08' Style Set 8 in Latin lookup 41 subtable" Edieresis.ss08
Substitution2: "'aalt' Access All Alternates in Latin lookup 0 subtable" Edieresis.ss08
EndChar

StartChar: Edotaccent
Encoding: 278 278 29
Width: 583
GlyphClass: 2
Flags: HMW
HStem: 0 48<145 531 145 531> 331 47<145 511 145 511> 662 48<145 523 145 145> 803 79<284 336 284 336>
VStem: 95 50<48 331 378 662> 284 52<803 882 803 882>
AnchorPoint: "Anchor-3" 357.432 710 basechar 0
AnchorPoint: "Anchor-2" 453.24 0 basechar 0
AnchorPoint: "Anchor-0" 232.24 0 basechar 0
LayerCount: 2
Fore
SplineSet
347.830078125 803 m 1
 361.759765625 882 l 1
 413.759765625 882 l 1
 399.830078125 803 l 1
 347.830078125 803 l 1
17.240234375 0 m 1
 142.431640625 710 l 1
 570.431640625 710 l 1
 561.96875 662 l 1
 183.96875 662 l 1
 133.891601562 378 l 1
 499.891601562 378 l 1
 491.604492188 331 l 1
 125.604492188 331 l 1
 75.703125 48 l 1
 461.703125 48 l 1
 453.240234375 0 l 1
 17.240234375 0 l 1
EndSplineSet
Validated: 524289
Substitution2: "'ss08' Style Set 8 in Latin lookup 41 subtable" Edotaccent.ss08
Substitution2: "'aalt' Access All Alternates in Latin lookup 0 subtable" Edotaccent.ss08
EndChar

StartChar: Egrave
Encoding: 200 200 30
Width: 583
GlyphClass: 2
Flags: HMW
HStem: 0 48<145 531 145 531> 331 47<145 511 145 511> 662 48<145 523 145 145> 793 120<207 291 207 331>
VStem: 95 50<48 331 378 662>
AnchorPoint: "Anchor-3" 354.699 710 basechar 0
AnchorPoint: "Anchor-2" 450.507 0 basechar 0
AnchorPoint: "Anchor-0" 229.507 0 basechar 0
LayerCount: 2
Fore
SplineSet
350.333984375 793 m 1
 287.493164062 913 l 1
 341.493164062 913 l 1
 390.333984375 793 l 1
 350.333984375 793 l 1
14.5068359375 0 m 1
 139.69921875 710 l 1
 567.69921875 710 l 1
 559.235351562 662 l 1
 181.235351562 662 l 1
 131.158203125 378 l 1
 497.158203125 378 l 1
 488.87109375 331 l 1
 122.87109375 331 l 1
 72.970703125 48 l 1
 458.970703125 48 l 1
 450.506835938 0 l 1
 14.5068359375 0 l 1
EndSplineSet
Validated: 524289
EndChar

StartChar: Emacron
Encoding: 274 274 31
Width: 583
GlyphClass: 2
Flags: HMW
HStem: 0 48<145 531 145 531> 331 47<145 511 145 511> 662 48<145 523 145 145> 818 42<182 437 182 437>
VStem: 95 50<48 331 378 662>
AnchorPoint: "Anchor-3" 359.371 710 basechar 0
AnchorPoint: "Anchor-2" 455.18 0 basechar 0
AnchorPoint: "Anchor-0" 234.18 0 basechar 0
LayerCount: 2
Fore
SplineSet
250.415039062 818 m 1
 257.8203125 860 l 1
 512.8203125 860 l 1
 505.415039062 818 l 1
 250.415039062 818 l 1
19.1796875 0 m 1
 144.37109375 710 l 1
 572.37109375 710 l 1
 563.908203125 662 l 1
 185.908203125 662 l 1
 135.831054688 378 l 1
 501.831054688 378 l 1
 493.543945312 331 l 1
 127.543945312 331 l 1
 77.6435546875 48 l 1
 463.643554688 48 l 1
 455.1796875 0 l 1
 19.1796875 0 l 1
EndSplineSet
Validated: 524289
EndChar

StartChar: Eogonek
Encoding: 280 280 32
Width: 583
GlyphClass: 2
Flags: HMW
HStem: -198 40<495 514.5> 0 48<145 491 145 531> 331 47<145 511 145 511> 662 48<145 523 145 145>
VStem: 95 50<48 331 378 662> 423 46<-137.5 -118> 491 40<0 48>
AnchorPoint: "Anchor-3" 390.053 710 basechar 0
AnchorPoint: "Anchor-2" 485.86 0 basechar 0
AnchorPoint: "Anchor-0" 264.86 0 basechar 0
LayerCount: 2
Fore
SplineSet
49.8603515625 0 m 1
 175.052734375 710 l 1
 603.052734375 710 l 1
 594.588867188 662 l 1
 216.588867188 662 l 1
 166.51171875 378 l 1
 532.51171875 378 l 1
 524.224609375 331 l 1
 158.224609375 331 l 1
 108.32421875 48 l 1
 494.32421875 48 l 1
 485.860351562 0 l 1xfa
 449.278320312 -43 l 2
 421.8125 -74 406.404296875 -99 401.819335938 -125 c 0
 401.284721898 -128.031927207 401.029533642 -130.813816167 401.029533642 -133.361720716 c 0
 401.029533642 -151.822768355 414.426518328 -158 432.000976562 -158 c 0
 452.000976562 -158 469.05859375 -152 483.645507812 -143 c 1
 494.650390625 -177 l 1
 475.358398438 -190 448.947265625 -198 419.947265625 -198 c 0
 380.665744729 -198 352.82198094 -182.856549693 352.82198094 -148.300335015 c 0
 352.82198094 -144.149457627 353.223730513 -139.718479104 354.055664062 -135 c 0xfc
 360.05078125 -101 390.751953125 -63 424.452148438 -25 c 2
 445.860351562 0 l 1
 49.8603515625 0 l 1
EndSplineSet
Validated: 524289
EndChar

StartChar: uni1EBC
Encoding: 7868 7868 33
Width: 583
GlyphClass: 2
Flags: HMW
HStem: 0 48<145 531 145 531> 331 47<145 511 145 511> 662 48<145 523 145 145> 803 35<359 380 359 389.5> 861 35<233 258>
VStem: 95 50<48 331 378 662> 164 35<798 798> 411 34<905 905>
AnchorPoint: "Anchor-3" 355.404 710 basechar 0
AnchorPoint: "Anchor-2" 451.212 0 basechar 0
AnchorPoint: "Anchor-0" 230.212 0 basechar 0
LayerCount: 2
Fore
SplineSet
427.802734375 803 m 0
 400.802734375 803 383.7421875 814 367.268554688 834 c 0
 352.442382812 852 341.029296875 861 319.029296875 861 c 0
 291.029296875 861 269.85546875 843 259.920898438 798 c 1
 224.920898438 798 l 1
 240.029296875 861 279.201171875 896 325.201171875 896 c 0xea
 357.201171875 896 374.732421875 882 392.206054688 862 c 0
 408.032226562 844 418.973632812 838 434.973632812 838 c 0
 460.973632812 838 477.971679688 855 490.788085938 905 c 1
 524.788085938 905 l 1
 509.502929688 841 474.802734375 803 427.802734375 803 c 0
15.2119140625 0 m 1xec
 140.404296875 710 l 1
 568.404296875 710 l 1
 559.940429688 662 l 1
 181.940429688 662 l 1
 131.86328125 378 l 1
 497.86328125 378 l 1
 489.576171875 331 l 1
 123.576171875 331 l 1
 73.67578125 48 l 1
 459.67578125 48 l 1
 451.211914062 0 l 1
 15.2119140625 0 l 1xec
EndSplineSet
Validated: 524289
EndChar

StartChar: uni018F
Encoding: 399 399 34
Width: 705
GlyphClass: 1
Flags: HMW
HStem: -15 49<280.5 420 280.5 440> 325 48<102 604 102 102> 677 49<298.5 421.5>
VStem: 48 54<325 373 325 373> 604 53<325 325> 605 52<373 373>
LayerCount: 2
Fore
SplineSet
657.087890625 356 m 0xf4
 616.533203125 126 464.670898438 -15 284.670898438 -15 c 0
 138.930895856 -15 38.613730266 84.2186860751 38.613730266 258.083285632 c 0
 38.613730266 287.024925962 41.3934384631 318.034944684 47.2060546875 351 c 2
 51.0859375 373 l 1
 608.0859375 373 l 1
 611.689973537 397.04794754 613.431462534 419.897874874 613.431462534 441.465325616 c 0
 613.431462534 589.402909906 531.494445198 677 406.689453125 677 c 0
 303.689453125 677 207.227539062 612 152.418945312 511 c 1
 100.30078125 516 l 1
 160.517578125 642 282.329101562 726 415.329101562 726 c 0
 571.209489661 726 665.858366189 621.517568853 665.858366189 450.87159085 c 0
 665.858366189 421.183105002 662.99353229 389.491979726 657.087890625 356 c 0xf4
293.310546875 34 m 0
 433.310546875 34 560.177734375 141 598.622070312 325 c 1xf8
 96.6220703125 325 l 1
 94.3154193678 305.15208312 93.1877250452 286.186410718 93.1877250452 268.14508506 c 0
 93.1877250452 119.843382616 169.386287019 34 293.310546875 34 c 0
EndSplineSet
Validated: 524289
EndChar

StartChar: F
Encoding: 70 70 35
Width: 570
GlyphClass: 1
Flags: HMW
HStem: 0 21G<95 95 95 145> 328 47<145 505 145 505> 662 48<145 523 145 145>
VStem: 95 50<0 328 375 662>
LayerCount: 2
Fore
SplineSet
32.404296875 0 m 1
 157.595703125 710 l 1
 585.595703125 710 l 1
 577.1328125 662 l 1
 199.1328125 662 l 1
 148.526367188 375 l 1
 508.526367188 375 l 1
 500.239257812 328 l 1
 140.239257812 328 l 1
 82.404296875 0 l 1
 32.404296875 0 l 1
EndSplineSet
Validated: 524289
EndChar

StartChar: G
Encoding: 71 71 36
Width: 683
GlyphClass: 2
Flags: HMW
HStem: -16 49<272 413.5> 0 21G<590 630 590 590> 294 46<358 582 358 630> 677 49<271.5 417.5>
VStem: 48 53<257.5 449.5 257.5 466> 582 48<294 294> 588 42
AnchorPoint: "Anchor-3" 418.596 710 basechar 0
AnchorPoint: "Anchor-0" 295.404 0 basechar 0
LayerCount: 2
Fore
SplineSet
285.583007812 -16 m 0xba
 127.557884463 -16 38.7448757303 88.9751243276 38.7448757303 256.079209248 c 0
 38.7448757303 286.718769248 41.7307223771 319.44707223 47.8232421875 354 c 0
 87.3212890625 578 226.416992188 726 421.416992188 726 c 0
 570.416992188 726 648.37109375 635 650.922851562 485 c 1
 598.041015625 480 l 1
 595.434570312 607 535.77734375 677 412.77734375 677 c 0
 243.77734375 677 134.501953125 545 100.823242188 354 c 0
 95.1211916304 321.661271969 92.2957805484 291.147467197 92.2957805484 262.754957858 c 0
 92.2957805484 121.698801894 162.031964462 33 295.22265625 33 c 0
 433.22265625 33 533.85546875 133 571.244140625 294 c 1xbc
 347.244140625 294 l 1
 355.35546875 340 l 1
 627.35546875 340 l 1
 567.404296875 0 l 1
 527.404296875 0 l 1x7a
 550.911132812 156 l 1
 505.807617188 59 410.583007812 -16 285.583007812 -16 c 0xba
EndSplineSet
Validated: 524289
Substitution2: "'ss06' Style Set 6 in Latin lookup 39 subtable" G.ss06
Substitution2: "'aalt' Access All Alternates in Latin lookup 0 subtable" G.ss06
EndChar

StartChar: Gbreve
Encoding: 286 286 37
Width: 683
GlyphClass: 2
Flags: HMW
HStem: -16 49<272 413.5> 0 21G<590 630 590 590> 294 46<358 582 358 630> 677 49<271.5 417.5> 793 39<331 381 331 393>
VStem: 48 53<257.5 449.5 257.5 466> 582 48<294 294> 588 42
AnchorPoint: "Anchor-3" 402.109 710 basechar 0
AnchorPoint: "Anchor-0" 278.917 0 basechar 0
LayerCount: 2
Fore
SplineSet
416.745117188 793 m 0xbd
 346.903341378 793 308.49437436 834.86633701 308.49437436 900.943920233 c 0
 308.49437436 904.878032758 308.630524434 908.897968028 308.904296875 913 c 1
 344.904296875 913 l 1
 343.381835938 859 373.62109375 832 423.62109375 832 c 0
 473.62109375 832 513.381835938 859 529.904296875 913 c 1
 566.904296875 913 l 1
 546.032226562 840 490.745117188 793 416.745117188 793 c 0xbd
269.095703125 -16 m 0
 111.070772041 -16 22.2584845339 88.9748688863 22.2584845339 256.078599314 c 0
 22.2584845339 286.718334905 25.2443538246 319.446842951 31.3369140625 354 c 0
 70.833984375 578 209.930664062 726 404.930664062 726 c 0
 553.930664062 726 631.884765625 635 634.435546875 485 c 1
 581.5546875 480 l 1
 578.948242188 607 519.291015625 677 396.291015625 677 c 0
 227.291015625 677 118.015625 545 84.3369140625 354 c 0
 78.6346315169 321.660884296 75.8091122532 291.146735606 75.8091122532 262.753936761 c 0
 75.8091122532 121.698373838 145.545957724 33 278.736328125 33 c 0
 416.736328125 33 517.369140625 133 554.7578125 294 c 1xbe
 330.7578125 294 l 1
 338.868164062 340 l 1
 610.868164062 340 l 1
 550.916992188 0 l 1
 510.916992188 0 l 1x7d
 534.424804688 156 l 1
 489.3203125 59 394.095703125 -16 269.095703125 -16 c 0
EndSplineSet
Validated: 524321
Substitution2: "'ss06' Style Set 6 in Latin lookup 39 subtable" Gbreve.ss06
Substitution2: "'aalt' Access All Alternates in Latin lookup 0 subtable" Gbreve.ss06
EndChar

StartChar: Gcaron
Encoding: 486 486 38
Width: 683
GlyphClass: 2
Flags: HMW
HStem: -16 49<272 413.5> 0 21G<590 630 590 590> 294 46<358 582 358 630> 677 49<271.5 417.5> 786 31<356 356 356 379 333 356> 786 127<244 379 244 333>
VStem: 48 53<257.5 449.5 257.5 466> 582 48<294 294> 588 42
AnchorPoint: "Anchor-3" 402.109 710 basechar 0
AnchorPoint: "Anchor-0" 278.917 0 basechar 0
LayerCount: 2
Fore
SplineSet
325.904296875 913 m 1xb680
 367.904296875 913 l 1xb680
 420.9765625 817 l 1xba80
 507.904296875 913 l 1
 549.904296875 913 l 1xb7
 438.510742188 786 l 1
 392.510742188 786 l 1xbb
 325.904296875 913 l 1xb680
269.095703125 -16 m 0
 111.070772041 -16 22.2584845339 88.9748688863 22.2584845339 256.078599314 c 0
 22.2584845339 286.718334905 25.2443538246 319.446842951 31.3369140625 354 c 0
 70.833984375 578 209.930664062 726 404.930664062 726 c 0
 553.930664062 726 631.884765625 635 634.435546875 485 c 1
 581.5546875 480 l 1
 578.948242188 607 519.291015625 677 396.291015625 677 c 0
 227.291015625 677 118.015625 545 84.3369140625 354 c 0
 78.6346315169 321.660884296 75.8091122532 291.146735606 75.8091122532 262.753936761 c 0
 75.8091122532 121.698373838 145.545957724 33 278.736328125 33 c 0
 416.736328125 33 517.369140625 133 554.7578125 294 c 1xb3
 330.7578125 294 l 1
 338.868164062 340 l 1
 610.868164062 340 l 1
 550.916992188 0 l 1
 510.916992188 0 l 1x7280
 534.424804688 156 l 1
 489.3203125 59 394.095703125 -16 269.095703125 -16 c 0
EndSplineSet
Validated: 524289
EndChar

StartChar: Gcircumflex
Encoding: 284 284 39
Width: 683
GlyphClass: 2
Flags: HMW
HStem: -16 49<272 413.5> 0 21G<590 630 590 590> 294 46<358 582 358 630> 677 49<271.5 417.5> 786 127<245 380 245 380 334 426 334 468> 882 31<357 357>
VStem: 48 53<257.5 449.5 257.5 466> 582 48<294 294> 588 42
AnchorPoint: "Anchor-3" 402.109 710 basechar 0
AnchorPoint: "Anchor-0" 278.917 0 basechar 0
LayerCount: 2
Fore
SplineSet
304.510742188 786 m 1xbb
 415.904296875 913 l 1
 461.904296875 913 l 1xb680
 527.510742188 786 l 1
 485.510742188 786 l 1xbb
 433.4375 882 l 1xb7
 346.510742188 786 l 1
 304.510742188 786 l 1xbb
269.095703125 -16 m 0
 111.070772041 -16 22.2584845339 88.9748688863 22.2584845339 256.078599314 c 0
 22.2584845339 286.718334905 25.2443538246 319.446842951 31.3369140625 354 c 0
 70.833984375 578 209.930664062 726 404.930664062 726 c 0
 553.930664062 726 631.884765625 635 634.435546875 485 c 1
 581.5546875 480 l 1
 578.948242188 607 519.291015625 677 396.291015625 677 c 0
 227.291015625 677 118.015625 545 84.3369140625 354 c 0
 78.6346315169 321.660884296 75.8091122532 291.146735606 75.8091122532 262.753936761 c 0
 75.8091122532 121.698373838 145.545957724 33 278.736328125 33 c 0
 416.736328125 33 517.369140625 133 554.7578125 294 c 1xb3
 330.7578125 294 l 1
 338.868164062 340 l 1
 610.868164062 340 l 1
 550.916992188 0 l 1
 510.916992188 0 l 1x7280
 534.424804688 156 l 1
 489.3203125 59 394.095703125 -16 269.095703125 -16 c 0
EndSplineSet
Validated: 524289
Substitution2: "'ss06' Style Set 6 in Latin lookup 39 subtable" Gcircumflex.ss06
Substitution2: "'aalt' Access All Alternates in Latin lookup 0 subtable" Gcircumflex.ss06
EndChar

StartChar: uni0122
Encoding: 290 290 40
Width: 683
GlyphClass: 2
Flags: HMW
HStem: -110 62<325 353 325 391> -16 49<272 413.5> 0 21G<590 630 590 590> 294 46<358 582 358 630> 677 49<271.5 417.5>
VStem: 48 53<257.5 449.5 257.5 466> 325 66<-104 -48 -104 -48 -104 -48> 582 48<294 294> 588 42
AnchorPoint: "Anchor-3" 434.201 710 basechar 0
AnchorPoint: "Anchor-0" 276.978 -193 basechar 0
LayerCount: 2
Fore
SplineSet
301.1875 -16 m 0xde80
 143.162900939 -16 54.3499572382 88.9744277652 54.3499572382 256.077546019 c 0
 54.3499572382 286.717584838 57.3359295683 319.446447008 63.4287109375 354 c 0
 102.92578125 578 242.022460938 726 437.022460938 726 c 0
 586.022460938 726 663.9765625 635 666.52734375 485 c 1
 613.645507812 480 l 1
 611.0390625 607 551.381835938 677 428.381835938 677 c 0
 259.381835938 677 150.107421875 545 116.428710938 354 c 0
 110.726428392 321.660884296 107.900909128 291.146735606 107.900909128 262.753936761 c 0
 107.900909128 121.698373838 177.637754599 33 310.828125 33 c 0
 448.828125 33 549.459960938 133 586.848632812 294 c 1xdf
 362.848632812 294 l 1
 370.959960938 340 l 1
 642.959960938 340 l 1
 583.008789062 0 l 1
 543.008789062 0 l 1xbe80
 566.515625 156 l 1
 521.412109375 59 426.1875 -16 301.1875 -16 c 0xde80
228.977539062 -193 m 1
 286.61328125 -110 l 1
 258.61328125 -110 l 1
 269.544921875 -48 l 1
 335.544921875 -48 l 1
 325.670898438 -104 l 1
 262.977539062 -193 l 1
 228.977539062 -193 l 1
EndSplineSet
Validated: 524289
Substitution2: "'ss06' Style Set 6 in Latin lookup 39 subtable" uni0122.ss06
Substitution2: "'aalt' Access All Alternates in Latin lookup 0 subtable" uni0122.ss06
EndChar

StartChar: Gdotaccent
Encoding: 288 288 41
Width: 683
GlyphClass: 2
Flags: HMW
HStem: -16 49<272 413.5> 0 21G<590 630 590 590> 294 46<358 582 358 630> 677 49<271.5 417.5> 803 79<330 382 330 382>
VStem: 48 53<257.5 449.5 257.5 466> 330 52<803 882 803 882> 582 48<294 294> 588 42
AnchorPoint: "Anchor-3" 404.843 710 basechar 0
AnchorPoint: "Anchor-0" 281.65 0 basechar 0
LayerCount: 2
Fore
SplineSet
395.241210938 803 m 1xbe80
 409.170898438 882 l 1
 461.170898438 882 l 1
 447.241210938 803 l 1
 395.241210938 803 l 1xbe80
271.829101562 -16 m 0
 113.804502502 -16 24.9915588007 88.9744277652 24.9915588007 256.077546019 c 0
 24.9915588007 286.717584838 27.9775311308 319.446447008 34.0703125 354 c 0
 73.5673828125 578 212.6640625 726 407.6640625 726 c 0
 556.6640625 726 634.618164062 635 637.168945312 485 c 1
 584.287109375 480 l 1
 581.680664062 607 522.0234375 677 399.0234375 677 c 0
 230.0234375 677 120.749023438 545 87.0703125 354 c 0
 81.3679838919 321.660623064 78.5424376235 291.146242625 78.5424376235 262.753248698 c 0
 78.5424376235 121.698085393 148.278596165 33 281.46875 33 c 0
 419.46875 33 520.1015625 133 557.490234375 294 c 1xbf
 333.490234375 294 l 1
 341.6015625 340 l 1
 613.6015625 340 l 1
 553.650390625 0 l 1
 513.650390625 0 l 1x7e80
 537.157226562 156 l 1
 492.053710938 59 396.829101562 -16 271.829101562 -16 c 0
EndSplineSet
Validated: 524289
Substitution2: "'ss08' Style Set 8 in Latin lookup 41 subtable" Gdotaccent.ss08
Substitution2: "'ss06' Style Set 6 in Latin lookup 39 subtable" Gdotaccent.ss06
AlternateSubs2: "'aalt' Access All Alternates in Latin lookup 1 subtable" Gdotaccent.ss06 Gdotaccent.ss08
EndChar

StartChar: uni1E20
Encoding: 7712 7712 42
Width: 683
GlyphClass: 2
Flags: HMW
HStem: -16 49<272 413.5> 0 21G<590 630 590 590> 294 46<358 582 358 630> 677 49<271.5 417.5> 818 42<229 483 229 483>
VStem: 48 53<257.5 449.5 257.5 466> 582 48<294 294> 588 42
AnchorPoint: "Anchor-3" 406.782 710 basechar 0
AnchorPoint: "Anchor-0" 283.59 0 basechar 0
LayerCount: 2
Fore
SplineSet
298.825195312 818 m 1xbd
 306.231445312 860 l 1
 560.231445312 860 l 1
 552.825195312 818 l 1
 298.825195312 818 l 1xbd
273.768554688 -16 m 0
 115.743955627 -16 26.9310119257 88.9744277652 26.9310119257 256.077546019 c 0
 26.9310119257 286.717584838 29.9169842558 319.446447008 36.009765625 354 c 0
 75.5068359375 578 214.603515625 726 409.603515625 726 c 0
 558.603515625 726 636.557617188 635 639.108398438 485 c 1
 586.2265625 480 l 1
 583.620117188 607 523.963867188 677 400.963867188 677 c 0
 231.963867188 677 122.688476562 545 89.009765625 354 c 0
 83.3074830794 321.660884296 80.4819638157 291.146735606 80.4819638157 262.753936761 c 0
 80.4819638157 121.698373838 150.218809287 33 283.409179688 33 c 0
 421.409179688 33 522.041015625 133 559.4296875 294 c 1xbe
 335.4296875 294 l 1
 343.541015625 340 l 1
 615.541015625 340 l 1
 555.58984375 0 l 1
 515.58984375 0 l 1x7d
 539.096679688 156 l 1
 493.993164062 59 398.768554688 -16 273.768554688 -16 c 0
EndSplineSet
Validated: 524289
Substitution2: "'ss06' Style Set 6 in Latin lookup 39 subtable" uni1E20.ss06
Substitution2: "'aalt' Access All Alternates in Latin lookup 0 subtable" uni1E20.ss06
EndChar

StartChar: uni01E4
Encoding: 484 484 43
Width: 724
GlyphClass: 2
Flags: HMW
HStem: -16 49<269 400.5 269 414.5> 163 41<359 556 359 570 359 607 619 681> 294 46<358 582 358 630> 677 49<275 419>
VStem: 48 53<257.5 453.5 257.5 468> 582 48<290 294>
AnchorPoint: "Anchor-3" 419.596 710 basechar 0
AnchorPoint: "Anchor-0" 293.404 0 basechar 0
LayerCount: 2
Fore
SplineSet
284.583007812 -16 m 0
 125.43646229 -16 38.555232759 88.2289010356 38.555232759 254.296589095 c 0
 38.555232759 285.44834391 41.612410657 318.776082812 47.8232421875 354 c 0
 88.0263671875 582 230.416992188 726 423.416992188 726 c 0
 568.416992188 726 648.724609375 637 650.922851562 485 c 1
 598.041015625 480 l 1
 596.729492188 603 536.77734375 677 414.77734375 677 c 0
 248.77734375 677 135.913085938 553 100.823242188 354 c 0
 94.9377784253 320.621058506 91.9973476373 289.186330086 91.9973476373 260.021716197 c 0
 91.9973476373 120.553946059 159.240213359 33 293.22265625 33 c 0
 394.22265625 33 473.0390625 83 522.145507812 163 c 1
 325.145507812 163 l 1
 332.375 204 l 1
 543.375 204 l 1
 556.135742188 231 565.424804688 261 571.244140625 294 c 1
 347.244140625 294 l 1
 355.35546875 340 l 1
 627.35546875 340 l 1
 621.888671875 309 l 2
 615.188476562 271 605.016601562 236 592.375 204 c 1
 654.375 204 l 1
 647.145507812 163 l 1
 573.145507812 163 l 1
 514.396484375 51 413.583007812 -16 284.583007812 -16 c 0
EndSplineSet
Validated: 524289
EndChar

StartChar: H
Encoding: 72 72 44
Width: 688
GlyphClass: 2
Flags: HMW
HStem: 0 21G<95 95 95 145 544 544 544 594> 338 48<145 544 145 544> 690 20G<95 145 145 145 544 594 594 594>
VStem: 95 50<0 338 386 710> 544 50<0 338 338 338 386 710 0 710>
AnchorPoint: "Anchor-3" 406.596 710 basechar 0
AnchorPoint: "Anchor-1" 380.676 563 basechar 0
AnchorPoint: "Anchor-0" 281.404 0 basechar 0
LayerCount: 2
Fore
SplineSet
32.404296875 0 m 1
 157.595703125 710 l 1
 207.595703125 710 l 1
 150.465820312 386 l 1
 549.465820312 386 l 1
 606.595703125 710 l 1
 656.595703125 710 l 1
 531.404296875 0 l 1
 481.404296875 0 l 1
 541.001953125 338 l 1
 142.001953125 338 l 1
 82.404296875 0 l 1
 32.404296875 0 l 1
EndSplineSet
Validated: 524289
EndChar

StartChar: Hbar
Encoding: 294 294 45
Width: 688
GlyphClass: 2
Flags: HMW
HStem: 0 21G<95 95 95 145 544 544 544 594> 338 48<145 544 145 544> 540 45<18 95 18 95 145 544 594 671> 540 170<18 145 18 145 95 145 95 544>
VStem: 95 50<0 338 386 540 585 710> 544 50<0 338 338 338 386 540 0 540 585 710>
AnchorPoint: "Anchor-3" 406.596 710 basechar 0
AnchorPoint: "Anchor-1" 380.676 563 basechar 0
AnchorPoint: "Anchor-0" 281.404 0 basechar 0
LayerCount: 2
Fore
SplineSet
32.404296875 0 m 1xec
 127.620117188 540 l 1
 50.6201171875 540 l 1
 58.5556640625 585 l 1
 135.555664062 585 l 1xec
 157.595703125 710 l 1
 207.595703125 710 l 1xdc
 185.555664062 585 l 1
 584.555664062 585 l 1xec
 606.595703125 710 l 1
 656.595703125 710 l 1xdc
 634.555664062 585 l 1
 711.555664062 585 l 1
 703.620117188 540 l 1
 626.620117188 540 l 1
 531.404296875 0 l 1
 481.404296875 0 l 1
 541.001953125 338 l 1
 142.001953125 338 l 1
 82.404296875 0 l 1
 32.404296875 0 l 1xec
150.465820312 386 m 1
 549.465820312 386 l 1
 576.620117188 540 l 1
 177.620117188 540 l 1
 150.465820312 386 l 1
EndSplineSet
Validated: 524289
EndChar

StartChar: Hcircumflex
Encoding: 292 292 46
Width: 688
GlyphClass: 2
Flags: HMW
HStem: 0 21G<95 95 95 145 544 544 544 594> 338 48<145 544 145 544> 690 20G<95 145 145 145 544 594 594 594> 786 127<233 368 233 368 322 415 322 457> 882 31<345 345>
VStem: 95 50<0 338 386 710> 544 50<0 338 338 338 386 710 0 710>
AnchorPoint: "Anchor-3" 388.699 710 basechar 0
AnchorPoint: "Anchor-1" 362.779 563 basechar 0
AnchorPoint: "Anchor-0" 263.507 0 basechar 0
LayerCount: 2
Fore
SplineSet
291.099609375 786 m 1xf6
 402.493164062 913 l 1
 448.493164062 913 l 1xee
 515.099609375 786 l 1
 473.099609375 786 l 1xf6
 420.02734375 882 l 1xee
 333.099609375 786 l 1
 291.099609375 786 l 1xf6
14.5068359375 0 m 1
 139.69921875 710 l 1
 189.69921875 710 l 1
 132.569335938 386 l 1
 531.569335938 386 l 1
 588.69921875 710 l 1
 638.69921875 710 l 1
 513.506835938 0 l 1
 463.506835938 0 l 1
 523.10546875 338 l 1
 124.10546875 338 l 1
 64.5068359375 0 l 1
 14.5068359375 0 l 1
EndSplineSet
Validated: 524289
EndChar

StartChar: I
Encoding: 73 73 47
Width: 239
GlyphClass: 2
Flags: HMW
HStem: 0 21G<95 95 95 145> 690 20G<95 145 145 145>
VStem: 95 50<0 710 0 710>
AnchorPoint: "Anchor-3" 182.596 710 basechar 0
AnchorPoint: "Anchor-2" 82.4043 0 basechar 0
AnchorPoint: "Anchor-0" 57.4043 0 basechar 0
LayerCount: 2
Fore
SplineSet
32.404296875 0 m 1
 157.595703125 710 l 1
 207.595703125 710 l 1
 82.404296875 0 l 1
 32.404296875 0 l 1
EndSplineSet
Validated: 524289
Substitution2: "'ss05' Style Set 5 in Latin lookup 38 subtable" I.ss05
Substitution2: "'aalt' Access All Alternates in Latin lookup 0 subtable" I.ss05
EndChar

StartChar: IJ
Encoding: 306 306 48
Width: 792
GlyphClass: 2
Flags: HMW
HStem: -16 49<447.5 547.5 447.5 561.5> 0 21G<95 95 95 145> 690 20G<95 145 145 145 662 712 712 712>
VStem: 95 50<0 710 0 710> 282 52<233 237> 662 50<248 710>
AnchorPoint: "Anchor-3" 751.007 710 basechar 0
AnchorPoint: "Anchor-2" 83.8145 0 basechar 0
AnchorPoint: "Anchor-0" 58.8145 0 basechar 0
LayerCount: 2
Fore
SplineSet
33.814453125 0 m 1x7c
 159.006835938 710 l 1
 209.006835938 710 l 1
 83.814453125 0 l 1
 33.814453125 0 l 1x7c
431.993164062 -16 m 0
 323.962914889 -16 256.82694884 54.9568511985 256.82694884 173.63202666 c 0
 256.82694884 192.27391791 258.483540299 212.093266982 261.8984375 233 c 1
 314.604492188 237 l 1
 311.316731556 216.616392956 309.718596803 197.689084688 309.718596803 180.250474128 c 0
 309.718596803 83.9047481112 358.500028786 33 440.633789062 33 c 0
 543.633789062 33 619.504882812 106 644.543945312 248 c 2
 726.006835938 710 l 1
 776.006835938 710 l 1
 694.543945312 248 l 2xbc
 664.744140625 79 562.993164062 -16 431.993164062 -16 c 0
EndSplineSet
Validated: 524289
EndChar

StartChar: Iacute
Encoding: 205 205 49
Width: 239
GlyphClass: 2
Flags: HMW
HStem: 0 21G<95 95 95 145> 690 20G<95 145 145 145> 786 120<98 222 98 222>
VStem: 95 50<0 710 0 710>
AnchorPoint: "Anchor-3" 165.316 710 basechar 0
AnchorPoint: "Anchor-2" 65.124 0 basechar 0
AnchorPoint: "Anchor-0" 40.124 0 basechar 0
LayerCount: 2
Fore
SplineSet
156.716796875 786 m 1
 247.875976562 906 l 1
 301.875976562 906 l 1
 197.716796875 786 l 1
 156.716796875 786 l 1
15.1240234375 0 m 1
 140.31640625 710 l 1
 190.31640625 710 l 1
 65.1240234375 0 l 1
 15.1240234375 0 l 1
EndSplineSet
Validated: 524289
Substitution2: "'ss05' Style Set 5 in Latin lookup 38 subtable" Iacute.ss05
Substitution2: "'aalt' Access All Alternates in Latin lookup 0 subtable" Iacute.ss05
EndChar

StartChar: Icircumflex
Encoding: 206 206 50
Width: 239
GlyphClass: 2
Flags: HMW
HStem: 0 21G<95 95 95 145> 690 20G<95 145 145 145> 786 127<9 143 9 143 97 190 97 232> 882 31<120 120>
VStem: 95 50<0 710 0 710>
AnchorPoint: "Anchor-3" 164.699 710 basechar 0
AnchorPoint: "Anchor-2" 64.5068 0 basechar 0
AnchorPoint: "Anchor-0" 39.5068 0 basechar 0
LayerCount: 2
Fore
SplineSet
67.099609375 786 m 1xe8
 177.493164062 913 l 1
 223.493164062 913 l 1xd8
 290.099609375 786 l 1
 248.099609375 786 l 1xe8
 195.02734375 882 l 1xd8
 109.099609375 786 l 1
 67.099609375 786 l 1xe8
14.5068359375 0 m 1
 139.69921875 710 l 1
 189.69921875 710 l 1
 64.5068359375 0 l 1
 14.5068359375 0 l 1
EndSplineSet
Validated: 524289
Substitution2: "'ss05' Style Set 5 in Latin lookup 38 subtable" Icircumflex.ss05
Substitution2: "'aalt' Access All Alternates in Latin lookup 0 subtable" Icircumflex.ss05
EndChar

StartChar: Idieresis
Encoding: 207 207 51
Width: 239
GlyphClass: 2
Flags: HMW
HStem: 0 21G<95 95 95 145> 690 20G<95 145 145 145> 803 79<22 74 22 74 165 217>
VStem: 22 52<803 882 803 882> 95 50<0 710 0 710> 165 52<803 882 803 882>
AnchorPoint: "Anchor-3" 167.432 710 basechar 0
AnchorPoint: "Anchor-2" 67.2402 0 basechar 0
AnchorPoint: "Anchor-0" 42.2402 0 basechar 0
LayerCount: 2
Fore
SplineSet
85.830078125 803 m 1
 99.759765625 882 l 1
 151.759765625 882 l 1
 137.830078125 803 l 1
 85.830078125 803 l 1
228.830078125 803 m 1
 242.759765625 882 l 1
 294.759765625 882 l 1
 280.830078125 803 l 1
 228.830078125 803 l 1
17.240234375 0 m 1xe8
 142.431640625 710 l 1
 192.431640625 710 l 1
 67.240234375 0 l 1
 17.240234375 0 l 1xe8
EndSplineSet
Validated: 524289
Substitution2: "'ss08' Style Set 8 in Latin lookup 41 subtable" Idieresis.ss08
Substitution2: "'ss05' Style Set 5 in Latin lookup 38 subtable" Idieresis.ss05
AlternateSubs2: "'aalt' Access All Alternates in Latin lookup 1 subtable" Idieresis.ss05 Idieresis.ss08
EndChar

StartChar: Idotaccent
Encoding: 304 304 52
Width: 239
GlyphClass: 2
Flags: HMW
HStem: 0 21G<95 95 95 145> 690 20G<95 145 145 145> 803 79<94 146 94 146>
VStem: 94 52<803 882 803 882> 95 50<0 710 0 710>
AnchorPoint: "Anchor-3" 167.432 710 basechar 0
AnchorPoint: "Anchor-2" 67.2402 0 basechar 0
AnchorPoint: "Anchor-0" 42.2402 0 basechar 0
LayerCount: 2
Fore
SplineSet
157.830078125 803 m 1xf0
 171.759765625 882 l 1
 223.759765625 882 l 1
 209.830078125 803 l 1
 157.830078125 803 l 1xf0
17.240234375 0 m 1xe8
 142.431640625 710 l 1
 192.431640625 710 l 1
 67.240234375 0 l 1
 17.240234375 0 l 1xe8
EndSplineSet
Validated: 524289
Substitution2: "'ss08' Style Set 8 in Latin lookup 41 subtable" Idotaccent.ss08
Substitution2: "'ss05' Style Set 5 in Latin lookup 38 subtable" Idotaccent.ss05
AlternateSubs2: "'aalt' Access All Alternates in Latin lookup 1 subtable" Idotaccent.ss05 Idotaccent.ss08
EndChar

StartChar: Igrave
Encoding: 204 204 53
Width: 239
GlyphClass: 2
Flags: HMW
HStem: 0 21G<95 95 95 145> 690 20G<95 145 145 145> 793 120<17 101 17 141>
VStem: 95 50<0 710 0 710>
AnchorPoint: "Anchor-3" 164.699 710 basechar 0
AnchorPoint: "Anchor-2" 64.5068 0 basechar 0
AnchorPoint: "Anchor-0" 39.5068 0 basechar 0
LayerCount: 2
Fore
SplineSet
160.333984375 793 m 1
 97.4931640625 913 l 1
 151.493164062 913 l 1
 200.333984375 793 l 1
 160.333984375 793 l 1
14.5068359375 0 m 1
 139.69921875 710 l 1
 189.69921875 710 l 1
 64.5068359375 0 l 1
 14.5068359375 0 l 1
EndSplineSet
Validated: 524289
Substitution2: "'ss05' Style Set 5 in Latin lookup 38 subtable" Igrave.ss05
Substitution2: "'aalt' Access All Alternates in Latin lookup 0 subtable" Igrave.ss05
EndChar

StartChar: Imacron
Encoding: 298 298 54
Width: 239
GlyphClass: 2
Flags: HMW
HStem: 0 21G<95 95 95 145> 690 20G<95 145 145 145> 818 42<-8 247 -8 247>
VStem: 95 50<0 710 0 710>
AnchorPoint: "Anchor-3" 169.371 710 basechar 0
AnchorPoint: "Anchor-2" 69.1797 0 basechar 0
AnchorPoint: "Anchor-0" 44.1797 0 basechar 0
LayerCount: 2
Fore
SplineSet
60.4150390625 818 m 1
 67.8203125 860 l 1
 322.8203125 860 l 1
 315.415039062 818 l 1
 60.4150390625 818 l 1
19.1796875 0 m 1
 144.37109375 710 l 1
 194.37109375 710 l 1
 69.1796875 0 l 1
 19.1796875 0 l 1
EndSplineSet
Validated: 524289
Substitution2: "'ss05' Style Set 5 in Latin lookup 38 subtable" Imacron.ss05
Substitution2: "'aalt' Access All Alternates in Latin lookup 0 subtable" Imacron.ss05
EndChar

StartChar: Iogonek
Encoding: 302 302 55
Width: 239
GlyphClass: 2
Flags: HMW
HStem: -198 40<109 128.5> 0 21G<95 95 95 105 145 145> 690 20G<95 145 145 145>
VStem: 37 46<-137.5 -118> 95 50<0 710 0 710>
AnchorPoint: "Anchor-3" 200.053 710 basechar 0
AnchorPoint: "Anchor-2" 99.8604 0 basechar 0
AnchorPoint: "Anchor-0" 74.8604 0 basechar 0
LayerCount: 2
Fore
SplineSet
49.8603515625 0 m 1
 175.052734375 710 l 1
 225.052734375 710 l 1
 99.8603515625 0 l 1xe8
 63.2783203125 -43 l 2
 35.8125 -74 20.404296875 -99 15.8193359375 -125 c 0
 15.284721898 -128.031927207 15.0295336423 -130.813816167 15.0295336423 -133.361720716 c 0
 15.0295336423 -151.822768355 28.426518328 -158 46.0009765625 -158 c 0
 66.0009765625 -158 83.05859375 -152 97.6455078125 -143 c 1
 108.650390625 -177 l 1
 89.3583984375 -190 62.947265625 -198 33.947265625 -198 c 0
 -5.33425527074 -198 -33.1780190603 -182.856549693 -33.1780190603 -148.300335015 c 0
 -33.1780190603 -144.149457627 -32.776269487 -139.718479104 -31.9443359375 -135 c 0xf0
 -25.94921875 -101 4.751953125 -63 38.4521484375 -25 c 2
 59.8603515625 0 l 1
 49.8603515625 0 l 1
EndSplineSet
Validated: 524289
Substitution2: "'ss05' Style Set 5 in Latin lookup 38 subtable" Iogonek.ss05
Substitution2: "'aalt' Access All Alternates in Latin lookup 0 subtable" Iogonek.ss05
EndChar

StartChar: Itilde
Encoding: 296 296 56
Width: 239
GlyphClass: 2
Flags: HMW
HStem: 0 21G<95 95 95 145> 690 20G<95 145 145 145> 803 35<169 190 169 199.5> 861 35<43 68>
VStem: -26 35<798 798> 95 50<0 710 0 710> 221 34<905 905>
AnchorPoint: "Anchor-3" 165.404 710 basechar 0
AnchorPoint: "Anchor-2" 65.2119 0 basechar 0
AnchorPoint: "Anchor-0" 40.2119 0 basechar 0
LayerCount: 2
Fore
SplineSet
237.802734375 803 m 0
 210.802734375 803 193.7421875 814 177.268554688 834 c 0
 162.442382812 852 151.029296875 861 129.029296875 861 c 0
 101.029296875 861 79.85546875 843 69.9208984375 798 c 1
 34.9208984375 798 l 1
 50.029296875 861 89.201171875 896 135.201171875 896 c 0xde
 167.201171875 896 184.732421875 882 202.206054688 862 c 0
 218.032226562 844 228.973632812 838 244.973632812 838 c 0
 270.973632812 838 287.971679688 855 300.788085938 905 c 1
 334.788085938 905 l 1
 319.502929688 841 284.802734375 803 237.802734375 803 c 0
15.2119140625 0 m 1
 140.404296875 710 l 1
 190.404296875 710 l 1
 65.2119140625 0 l 1
 15.2119140625 0 l 1
EndSplineSet
Validated: 524289
Substitution2: "'ss05' Style Set 5 in Latin lookup 38 subtable" Itilde.ss05
Substitution2: "'aalt' Access All Alternates in Latin lookup 0 subtable" Itilde.ss05
EndChar

StartChar: J
Encoding: 74 74 57
Width: 579
GlyphClass: 2
Flags: HMW
HStem: -16 49<235 335 235 349.5> 690 20G<449 499 499 499>
VStem: 70 52<233 237> 449 50<248 710>
AnchorPoint: "Anchor-3" 539.007 710 basechar 0
LayerCount: 2
Fore
SplineSet
219.993164062 -16 m 0
 111.604102669 -16 44.4705835377 54.2996926067 44.4705835377 171.982633616 c 0
 44.4705835377 191.103631828 46.2428683209 211.475519481 49.8984375 233 c 1
 102.604492188 237 l 1
 99.0506029404 215.947793295 97.3240546269 196.448987871 97.3240546269 178.539276513 c 0
 97.3240546269 83.3021028935 146.145941371 33 228.633789062 33 c 0
 330.633789062 33 406.504882812 106 431.543945312 248 c 2
 513.006835938 710 l 1
 563.006835938 710 l 1
 481.543945312 248 l 2
 451.744140625 79 350.993164062 -16 219.993164062 -16 c 0
EndSplineSet
Validated: 524289
Substitution2: "Single Substitution lookup 16 subtable" uni004A0301
Substitution2: "'aalt' Access All Alternates in Latin lookup 0 subtable" uni004A0301
EndChar

StartChar: uni004A0301
Encoding: 65537 -1 58
Width: 579
GlyphClass: 2
Flags: HMW
HStem: -16 49<235 335 235 349.5> 690 20G<449 499 499 499> 786 120<453 577 453 577>
VStem: 70 52<233 237> 449 50<248 710>
AnchorPoint: "Anchor-3" 521.727 710 basechar 0
LayerCount: 2
Fore
SplineSet
513.127929688 786 m 1
 604.287109375 906 l 1
 658.287109375 906 l 1
 554.127929688 786 l 1
 513.127929688 786 l 1
202.712890625 -16 m 0
 94.3243310624 -16 27.1909317442 54.2990416469 27.1909317442 171.980999038 c 0
 27.1909317442 191.102470819 28.9633307816 211.474906132 32.619140625 233 c 1
 85.32421875 237 l 1
 81.7703295029 215.947793295 80.0437811894 196.448987871 80.0437811894 178.539276513 c 0
 80.0437811894 83.3021028935 128.865667934 33 211.353515625 33 c 0
 313.353515625 33 389.225585938 106 414.263671875 248 c 2
 495.7265625 710 l 1
 545.7265625 710 l 1
 464.263671875 248 l 2
 434.463867188 79 333.712890625 -16 202.712890625 -16 c 0
EndSplineSet
Validated: 524289
EndChar

StartChar: Jcircumflex
Encoding: 308 308 59
Width: 579
GlyphClass: 2
Flags: HMW
HStem: -16 49<235 335 235 349.5> 690 20G<449 499 499 499> 786 127<364 498 364 498 452 545 452 587> 882 31<475 475>
VStem: 70 52<233 237> 449 50<248 710>
AnchorPoint: "Anchor-3" 521.109 710 basechar 0
LayerCount: 2
Fore
SplineSet
423.510742188 786 m 1xec
 533.904296875 913 l 1
 579.904296875 913 l 1xdc
 646.510742188 786 l 1
 604.510742188 786 l 1xec
 551.4375 882 l 1xdc
 465.510742188 786 l 1
 423.510742188 786 l 1xec
202.095703125 -16 m 0
 93.7068048082 -16 26.5740472623 54.2994810684 26.5740472623 171.982102437 c 0
 26.5740472623 191.103254543 28.3463500955 211.475320165 32.001953125 233 c 1
 84.70703125 237 l 1
 81.1531420029 215.947793295 79.4265936894 196.448987871 79.4265936894 178.539276513 c 0
 79.4265936894 83.3021028935 128.248480434 33 210.736328125 33 c 0
 312.736328125 33 388.608398438 106 413.646484375 248 c 2
 495.109375 710 l 1
 545.109375 710 l 1
 463.646484375 248 l 2
 433.84765625 79 333.095703125 -16 202.095703125 -16 c 0
EndSplineSet
Validated: 524289
EndChar

StartChar: K
Encoding: 75 75 60
Width: 623
GlyphClass: 2
Flags: HMW
HStem: 0 21G<95 95 95 145 545 545 545 605> 690 20G<95 145 145 145 522 584 584 584>
VStem: 95 50<0 234 302 710>
AnchorPoint: "Anchor-3" 383.596 710 basechar 0
AnchorPoint: "Anchor-0" 271.404 0 basechar 0
LayerCount: 2
Fore
SplineSet
32.404296875 0 m 1
 157.595703125 710 l 1
 207.595703125 710 l 1
 135.654296875 302 l 1
 584.595703125 710 l 1
 646.595703125 710 l 1
 307.111328125 401 l 1
 542.404296875 0 l 1
 482.404296875 0 l 1
 268.939453125 366 l 1
 123.6640625 234 l 1
 82.404296875 0 l 1
 32.404296875 0 l 1
EndSplineSet
Validated: 524289
EndChar

StartChar: uni01E8
Encoding: 488 488 61
Width: 623
GlyphClass: 2
Flags: HMW
HStem: 0 21G<95 95 95 145 545 545 545 605> 690 20G<95 145 145 145 522 584 584 584> 786 31<321 321 321 344 298 321> 786 127<209 344 209 298>
VStem: 95 50<0 234 302 710>
AnchorPoint: "Anchor-3" 365.699 710 basechar 0
AnchorPoint: "Anchor-0" 253.507 0 basechar 0
LayerCount: 2
Fore
SplineSet
289.493164062 913 m 1xd8
 331.493164062 913 l 1xd8
 384.565429688 817 l 1xe8
 470.493164062 913 l 1
 512.493164062 913 l 1xd8
 402.099609375 786 l 1
 356.099609375 786 l 1xe8
 289.493164062 913 l 1xd8
14.5068359375 0 m 1
 139.69921875 710 l 1
 189.69921875 710 l 1
 117.7578125 302 l 1
 566.69921875 710 l 1
 628.69921875 710 l 1
 289.213867188 401 l 1
 524.506835938 0 l 1
 464.506835938 0 l 1
 251.041992188 366 l 1
 105.767578125 234 l 1
 64.5068359375 0 l 1
 14.5068359375 0 l 1
EndSplineSet
Validated: 524289
EndChar

StartChar: uni0136
Encoding: 310 310 62
Width: 623
GlyphClass: 2
Flags: HMW
HStem: -110 62<300 328 300 367> 0 21G<95 95 95 145 545 545 545 605> 690 20G<95 145 145 145 522 584 584 584>
VStem: 95 50<0 234 302 710> 300 67<-104 -48 -104 -48 -104 -48>
AnchorPoint: "Anchor-3" 400.611 710 basechar 0
AnchorPoint: "Anchor-0" 254.389 -193 basechar 0
LayerCount: 2
Fore
SplineSet
49.419921875 0 m 1
 174.611328125 710 l 1
 224.611328125 710 l 1
 152.669921875 302 l 1
 601.611328125 710 l 1
 663.611328125 710 l 1
 324.126953125 401 l 1
 559.419921875 0 l 1
 499.419921875 0 l 1
 285.955078125 366 l 1
 140.6796875 234 l 1
 99.419921875 0 l 1
 49.419921875 0 l 1
206.388671875 -193 m 1
 263.0234375 -110 l 1
 235.0234375 -110 l 1
 245.956054688 -48 l 1
 312.956054688 -48 l 1
 303.081054688 -104 l 1
 240.388671875 -193 l 1
 206.388671875 -193 l 1
EndSplineSet
Validated: 524289
EndChar

StartChar: L
Encoding: 76 76 63
Width: 560
GlyphClass: 2
Flags: HMW
HStem: 0 48<145 518 145 518> 690 20G<95 145 145 145>
VStem: 95 50<48 710 48 710 48 710>
AnchorPoint: "Anchor-4" 383.857 530 basechar 0
AnchorPoint: "Anchor-3" 182.596 710 basechar 0
AnchorPoint: "Anchor-1" 155.408 380 basechar 0
AnchorPoint: "Anchor-0" 243.404 0 basechar 0
LayerCount: 2
Fore
SplineSet
32.404296875 0 m 1
 157.595703125 710 l 1
 207.595703125 710 l 1
 90.8671875 48 l 1
 463.8671875 48 l 1
 455.404296875 0 l 1
 32.404296875 0 l 1
EndSplineSet
Validated: 524289
EndChar

StartChar: Lacute
Encoding: 313 313 64
Width: 560
GlyphClass: 2
Flags: HMW
HStem: 0 48<145 518 145 518> 690 20G<95 145 145 145> 786 120<98 222 98 222>
VStem: 95 50<48 710 48 710 48 710>
AnchorPoint: "Anchor-4" 366.577 530 basechar 0
AnchorPoint: "Anchor-3" 165.316 710 basechar 0
AnchorPoint: "Anchor-1" 138.128 380 basechar 0
AnchorPoint: "Anchor-0" 226.124 0 basechar 0
LayerCount: 2
Fore
SplineSet
156.716796875 786 m 1
 247.875976562 906 l 1
 301.875976562 906 l 1
 197.716796875 786 l 1
 156.716796875 786 l 1
15.1240234375 0 m 1
 140.31640625 710 l 1
 190.31640625 710 l 1
 73.587890625 48 l 1
 446.587890625 48 l 1
 438.124023438 0 l 1
 15.1240234375 0 l 1
EndSplineSet
Validated: 524289
EndChar

StartChar: Lcaron
Encoding: 317 317 65
Width: 560
GlyphClass: 2
Flags: HMW
HStem: 0 48<145 518 145 518> 690 20G<95 145 145 145 406 455 455 455>
VStem: 95 50<48 710 48 710 48 710>
AnchorPoint: "Anchor-4" 383.857 530 basechar 0
AnchorPoint: "Anchor-3" 182.596 710 basechar 0
AnchorPoint: "Anchor-1" 155.408 380 basechar 0
AnchorPoint: "Anchor-0" 243.404 0 basechar 0
LayerCount: 2
Fore
SplineSet
32.404296875 0 m 1
 157.595703125 710 l 1
 207.595703125 710 l 1
 90.8671875 48 l 1
 463.8671875 48 l 1
 455.404296875 0 l 1
 32.404296875 0 l 1
396.098632812 486 m 1
 468.595703125 710 l 1
 517.595703125 710 l 1
 434.098632812 486 l 1
 396.098632812 486 l 1
EndSplineSet
Validated: 524289
EndChar

StartChar: uni013B
Encoding: 315 315 66
Width: 560
GlyphClass: 2
Flags: HMW
HStem: -110 62<273 301 273 340> 0 48<145 518 145 518> 690 20G<95 145 145 145>
VStem: 95 50<48 710 48 710 48 710> 273 67<-104 -48 -104 -48 -104 -48>
AnchorPoint: "Anchor-4" 400.873 530 basechar 0
AnchorPoint: "Anchor-3" 199.611 710 basechar 0
AnchorPoint: "Anchor-1" 172.424 380 basechar 0
AnchorPoint: "Anchor-0" 226.389 -193 basechar 0
LayerCount: 2
Fore
SplineSet
49.419921875 0 m 1
 174.611328125 710 l 1
 224.611328125 710 l 1
 107.8828125 48 l 1
 480.8828125 48 l 1
 472.419921875 0 l 1
 49.419921875 0 l 1
179.388671875 -193 m 1
 236.0234375 -110 l 1
 208.0234375 -110 l 1
 218.956054688 -48 l 1
 285.956054688 -48 l 1
 276.081054688 -104 l 1
 213.388671875 -193 l 1
 179.388671875 -193 l 1
EndSplineSet
Validated: 524289
Substitution2: "'locl' Localized Forms in Latin lookup 11 subtable" uni013B.loclMAH
Substitution2: "'aalt' Access All Alternates in Latin lookup 0 subtable" uni013B.loclMAH
EndChar

StartChar: Lslash
Encoding: 321 321 67
Width: 560
GlyphClass: 2
Flags: HMW
HStem: 0 48<145 518 145 518> 690 20G<95 145 145 145>
VStem: 95 50<48 331 331 331 398 710> 95 183<0 463 331 463 420 463 420 710>
AnchorPoint: "Anchor-4" 383.857 530 basechar 0
AnchorPoint: "Anchor-3" 182.596 710 basechar 0
AnchorPoint: "Anchor-1" 155.408 380 basechar 0
AnchorPoint: "Anchor-0" 243.404 0 basechar 0
LayerCount: 2
Fore
SplineSet
32.404296875 0 m 1xe0
 90.7685546875 331 l 1
 14.7734375 297 l 1
 22.35546875 340 l 1
 98.3505859375 374 l 1
 157.595703125 710 l 1
 207.595703125 710 l 1
 152.58203125 398 l 1xe0
 297.04296875 463 l 1
 289.4609375 420 l 1xd0
 145 355 l 1
 90.8671875 48 l 1
 463.8671875 48 l 1
 455.404296875 0 l 1
 32.404296875 0 l 1xe0
EndSplineSet
Validated: 524289
EndChar

StartChar: M
Encoding: 77 77 68
Width: 859
GlyphClass: 2
Flags: HMW
HStem: 0 54<398 430 430 430 430 461> 637 73<145 145 714 714>
VStem: 95 50<0 637 0 710> 714 50<0 637 637 637>
AnchorPoint: "Anchor-3" 492.596 710 basechar 0
AnchorPoint: "Anchor-0" 367.404 0 basechar 0
LayerCount: 2
Fore
SplineSet
32.404296875 0 m 1
 157.595703125 710 l 1
 233.595703125 710 l 1
 376.92578125 54 l 1
 750.595703125 710 l 1
 826.595703125 710 l 1
 701.404296875 0 l 1
 651.404296875 0 l 1
 763.724609375 637 l 1
 398.404296875 0 l 1
 335.404296875 0 l 1
 194.724609375 637 l 1
 82.404296875 0 l 1
 32.404296875 0 l 1
EndSplineSet
Validated: 524289
EndChar

StartChar: N
Encoding: 78 78 69
Width: 722
GlyphClass: 2
Flags: HMW
HStem: 0 49<553 577 577 577 577 627> 657 53<145 145>
VStem: 95 50<0 657 0 710> 577 50<49 710 0 710>
AnchorPoint: "Anchor-3" 428.596 710 basechar 0
AnchorPoint: "Anchor-0" 299.404 0 basechar 0
LayerCount: 2
Fore
SplineSet
32.404296875 0 m 1
 157.595703125 710 l 1
 229.595703125 710 l 1
 523.043945312 49 l 1
 639.595703125 710 l 1
 689.595703125 710 l 1
 564.404296875 0 l 1
 490.404296875 0 l 1
 198.250976562 657 l 1
 82.404296875 0 l 1
 32.404296875 0 l 1
EndSplineSet
Validated: 524289
EndChar

StartChar: Nacute
Encoding: 323 323 70
Width: 722
GlyphClass: 2
Flags: HMW
HStem: 0 49<553 577 577 577 577 627> 657 53<145 145> 786 120<344 468 344 468>
VStem: 95 50<0 657 0 710> 577 50<49 710 0 710>
AnchorPoint: "Anchor-3" 411.316 710 basechar 0
AnchorPoint: "Anchor-0" 282.124 0 basechar 0
LayerCount: 2
Fore
SplineSet
402.716796875 786 m 1
 493.875976562 906 l 1
 547.875976562 906 l 1
 443.716796875 786 l 1
 402.716796875 786 l 1
15.1240234375 0 m 1
 140.31640625 710 l 1
 212.31640625 710 l 1
 505.763671875 49 l 1
 622.31640625 710 l 1
 672.31640625 710 l 1
 547.124023438 0 l 1
 473.124023438 0 l 1
 180.970703125 657 l 1
 65.1240234375 0 l 1
 15.1240234375 0 l 1
EndSplineSet
Validated: 524289
EndChar

StartChar: Ncaron
Encoding: 327 327 71
Width: 722
GlyphClass: 2
Flags: HMW
HStem: 0 49<553 577 577 577 577 627> 657 53<145 145> 786 31<366 366 366 389 343 366> 786 127<254 389 254 343>
VStem: 95 50<0 657 0 710> 577 50<49 710 0 710>
AnchorPoint: "Anchor-3" 410.699 710 basechar 0
AnchorPoint: "Anchor-0" 281.507 0 basechar 0
LayerCount: 2
Fore
SplineSet
334.493164062 913 m 1xdc
 376.493164062 913 l 1xdc
 429.565429688 817 l 1xec
 516.493164062 913 l 1
 558.493164062 913 l 1xdc
 447.099609375 786 l 1
 401.099609375 786 l 1xec
 334.493164062 913 l 1xdc
14.5068359375 0 m 1
 139.69921875 710 l 1
 211.69921875 710 l 1
 505.146484375 49 l 1
 621.69921875 710 l 1
 671.69921875 710 l 1
 546.506835938 0 l 1
 472.506835938 0 l 1
 180.353515625 657 l 1
 64.5068359375 0 l 1
 14.5068359375 0 l 1
EndSplineSet
Validated: 524289
EndChar

StartChar: uni0145
Encoding: 325 325 72
Width: 722
GlyphClass: 2
Flags: HMW
HStem: -110 62<328 356 328 395> 0 49<553 577 577 577 577 627> 657 53<145 145>
VStem: 95 50<0 657 0 710> 328 67<-104 -48 -104 -48 -104 -48> 577 50<49 710 0 710>
AnchorPoint: "Anchor-3" 445.611 710 basechar 0
AnchorPoint: "Anchor-0" 282.389 -193 basechar 0
LayerCount: 2
Fore
SplineSet
49.419921875 0 m 1
 174.611328125 710 l 1
 246.611328125 710 l 1
 540.059570312 49 l 1
 656.611328125 710 l 1
 706.611328125 710 l 1
 581.419921875 0 l 1
 507.419921875 0 l 1
 215.266601562 657 l 1
 99.419921875 0 l 1
 49.419921875 0 l 1
234.388671875 -193 m 1
 291.0234375 -110 l 1
 263.0234375 -110 l 1
 273.956054688 -48 l 1
 340.956054688 -48 l 1
 331.081054688 -104 l 1
 268.388671875 -193 l 1
 234.388671875 -193 l 1
EndSplineSet
Validated: 524289
Substitution2: "'locl' Localized Forms in Latin lookup 11 subtable" uni0145.loclMAH
Substitution2: "'aalt' Access All Alternates in Latin lookup 0 subtable" uni0145.loclMAH
EndChar

StartChar: Ntilde
Encoding: 209 209 73
Width: 722
GlyphClass: 2
Flags: HMW
HStem: 0 49<553 577 577 577 577 627> 657 53<145 145> 803 35<416 436.5 416 445.5> 861 35<289 314.5>
VStem: 95 50<0 657 0 710> 221 34<798 798> 467 35<905 905> 577 50<49 710 0 710>
AnchorPoint: "Anchor-3" 411.404 710 basechar 0
AnchorPoint: "Anchor-0" 282.212 0 basechar 0
LayerCount: 2
Fore
SplineSet
483.802734375 803 m 0
 456.802734375 803 439.7421875 814 423.268554688 834 c 0
 408.442382812 852 398.029296875 861 375.029296875 861 c 0
 347.029296875 861 325.85546875 843 315.920898438 798 c 1
 281.920898438 798 l 1
 296.029296875 861 335.201171875 896 381.201171875 896 c 0xdf
 413.201171875 896 430.732421875 882 448.206054688 862 c 0
 464.032226562 844 475.973632812 838 491.973632812 838 c 0
 516.973632812 838 533.971679688 855 546.788085938 905 c 1
 581.788085938 905 l 1
 566.502929688 841 530.802734375 803 483.802734375 803 c 0
15.2119140625 0 m 1
 140.404296875 710 l 1
 212.404296875 710 l 1
 505.852539062 49 l 1
 622.404296875 710 l 1
 672.404296875 710 l 1
 547.211914062 0 l 1
 473.211914062 0 l 1
 181.05859375 657 l 1
 65.2119140625 0 l 1
 15.2119140625 0 l 1
EndSplineSet
Validated: 524289
EndChar

StartChar: Eng
Encoding: 330 330 74
Width: 722
GlyphClass: 2
Flags: HMW
HStem: -150 45<395 495 395 495> 0 21G<95 95 95 145 553 553 553 577> 0 49<553 577 553 577> 657 53<145 145>
VStem: 95 50<0 657 0 710> 577 50<-23 -22 -22 0 0 0 49 710>
AnchorPoint: "Anchor-3" 436.82 710 basechar 0
AnchorPoint: "Anchor-0" 285.18 -150 basechar 0
LayerCount: 2
Fore
SplineSet
45.62890625 0 m 1xdc
 170.8203125 710 l 1
 242.8203125 710 l 1
 536.268554688 49 l 1xbc
 652.8203125 710 l 1
 702.8203125 710 l 1
 573.749023438 -22 l 2
 560.348632812 -98 501.1796875 -150 419.1796875 -150 c 2
 319.1796875 -150 l 1
 327.114257812 -105 l 1
 427.114257812 -105 l 2
 480.114257812 -105 515.109375 -71 523.573242188 -23 c 2
 527.62890625 0 l 1
 503.62890625 0 l 1
 211.475585938 657 l 1
 95.62890625 0 l 1
 45.62890625 0 l 1xdc
EndSplineSet
Validated: 524289
EndChar

StartChar: O
Encoding: 79 79 75
Width: 722
GlyphClass: 2
Flags: HMW
HStem: -16 49<280.5 442 280.5 458> 677 49<280.5 442>
VStem: 48 53<254.5 453.5 254.5 468.5> 621 53<254.5 453.5>
AnchorPoint: "Anchor-3" 423.596 710 basechar 0
AnchorPoint: "Anchor-1" 361 355 basechar 0
AnchorPoint: "Anchor-0" 298.404 0 basechar 0
LayerCount: 2
Fore
SplineSet
295.583007812 -16 m 0
 131.224988279 -16 38.6701543974 85.9217057889 38.6701543974 255.712105032 c 0
 38.6701543974 286.333815563 41.6806066272 319.163033266 47.8232421875 354 c 0
 88.2021484375 583 232.416992188 726 426.416992188 726 c 0
 590.645168984 726 683.056895217 623.522641893 683.056895217 453.14694565 c 0
 683.056895217 422.260679934 680.019910528 389.143028421 673.823242188 354 c 0
 633.62109375 126 489.583007812 -16 295.583007812 -16 c 0
304.22265625 33 m 0
 466.22265625 33 585.734375 155 620.823242188 354 c 0
 626.461669826 385.976406282 629.228273231 416.016326316 629.228273231 443.916465517 c 0
 629.228273231 589.648336495 553.74629944 677 417.77734375 677 c 0
 256.77734375 677 135.913085938 553 100.823242188 354 c 0
 95.2401896016 322.336753117 92.5072034631 292.622881569 92.5072034631 265.039652723 c 0
 92.5072034631 119.265343076 168.839654984 33 304.22265625 33 c 0
EndSplineSet
Validated: 524289
Substitution2: "Single Substitution lookup 27 subtable" ordmasculine
Substitution2: "'aalt' Access All Alternates in Latin lookup 0 subtable" ordmasculine
EndChar

StartChar: Oacute
Encoding: 211 211 76
Width: 722
GlyphClass: 2
Flags: HMW
HStem: -16 49<280.5 442 280.5 458> 677 49<280.5 442> 786 120<339 463 339 463>
VStem: 48 53<254.5 453.5 254.5 468.5> 621 53<254.5 453.5>
AnchorPoint: "Anchor-3" 407.727 710 basechar 0
AnchorPoint: "Anchor-1" 345.131 355 basechar 0
AnchorPoint: "Anchor-0" 282.534 0 basechar 0
LayerCount: 2
Fore
SplineSet
399.127929688 786 m 1
 490.287109375 906 l 1
 544.287109375 906 l 1
 440.127929688 786 l 1
 399.127929688 786 l 1
279.712890625 -16 m 0
 115.355061277 -16 22.8009523428 85.9214699131 22.8009523428 255.711515616 c 0
 22.8009523428 286.333394293 25.8114265905 319.162809749 31.9541015625 354 c 0
 72.3330078125 583 216.547851562 726 410.547851562 726 c 0
 574.776028359 726 667.187754592 623.522641893 667.187754592 453.14694565 c 0
 667.187754592 422.260679934 664.150769903 389.143028421 657.954101562 354 c 0
 617.751953125 126 473.712890625 -16 279.712890625 -16 c 0
288.353515625 33 m 0
 450.353515625 33 569.865234375 155 604.954101562 354 c 0
 610.59230277 385.976012059 613.358800982 416.015585617 613.358800982 443.91543361 c 0
 613.358800982 589.647924145 537.877479741 677 401.908203125 677 c 0
 240.908203125 677 120.04296875 553 84.9541015625 354 c 0
 79.3710489766 322.336753117 76.6380628381 292.622881569 76.6380628381 265.039652723 c 0
 76.6380628381 119.265343076 152.970514359 33 288.353515625 33 c 0
EndSplineSet
Validated: 524289
EndChar

StartChar: Ocircumflex
Encoding: 212 212 77
Width: 722
GlyphClass: 2
Flags: HMW
HStem: -16 49<280.5 442 280.5 458> 677 49<280.5 442> 786 127<250 385 250 385 339 431 339 473> 882 31<362 362>
VStem: 48 53<254.5 453.5 254.5 468.5> 621 53<254.5 453.5>
AnchorPoint: "Anchor-3" 407.109 710 basechar 0
AnchorPoint: "Anchor-1" 344.514 355 basechar 0
AnchorPoint: "Anchor-0" 281.917 0 basechar 0
LayerCount: 2
Fore
SplineSet
309.510742188 786 m 1xec
 420.904296875 913 l 1
 466.904296875 913 l 1xdc
 532.510742188 786 l 1
 490.510742188 786 l 1xec
 438.4375 882 l 1xdc
 351.510742188 786 l 1
 309.510742188 786 l 1xec
279.095703125 -16 m 0
 114.737873777 -16 22.1837648428 85.9214699131 22.1837648428 255.711515616 c 0
 22.1837648428 286.333394293 25.1942390905 319.162809749 31.3369140625 354 c 0
 71.7158203125 583 215.930664062 726 409.930664062 726 c 0
 574.158840859 726 666.570567092 623.522641893 666.570567092 453.14694565 c 0
 666.570567092 422.260679934 663.533582403 389.143028421 657.336914062 354 c 0
 617.134765625 126 473.095703125 -16 279.095703125 -16 c 0
287.736328125 33 m 0
 449.736328125 33 569.248046875 155 604.336914062 354 c 0
 609.97511527 385.976012059 612.741613482 416.015585617 612.741613482 443.91543361 c 0
 612.741613482 589.647924145 537.260292241 677 401.291015625 677 c 0
 240.291015625 677 119.42578125 553 84.3369140625 354 c 0
 78.7538614766 322.336753117 76.0208753381 292.622881569 76.0208753381 265.039652723 c 0
 76.0208753381 119.265343076 152.353326859 33 287.736328125 33 c 0
EndSplineSet
Validated: 524289
EndChar

StartChar: Odieresis
Encoding: 214 214 78
Width: 722
GlyphClass: 2
Flags: HMW
HStem: -16 49<280.5 442 280.5 458> 677 49<280.5 442> 803 79<263 315 263 315 407 459>
VStem: 48 53<254.5 453.5 254.5 468.5> 263 52<803 882 803 882> 407 52<803 882 803 882> 621 53<254.5 453.5>
AnchorPoint: "Anchor-3" 409.843 710 basechar 0
AnchorPoint: "Anchor-1" 347.246 355 basechar 0
AnchorPoint: "Anchor-0" 284.65 0 basechar 0
LayerCount: 2
Fore
SplineSet
328.241210938 803 m 1
 342.170898438 882 l 1
 394.170898438 882 l 1
 380.241210938 803 l 1
 328.241210938 803 l 1
472.241210938 803 m 1
 486.170898438 882 l 1
 538.170898438 882 l 1
 524.241210938 803 l 1
 472.241210938 803 l 1
281.829101562 -16 m 0
 117.471609291 -16 24.916841982 85.9210518581 24.916841982 255.710470965 c 0
 24.916841982 286.332647652 27.9274184612 319.162413597 34.0703125 354 c 0
 74.44921875 583 218.6640625 726 412.6640625 726 c 0
 576.892239297 726 669.303965529 623.522641893 669.303965529 453.14694565 c 0
 669.303965529 422.260679934 666.26698084 389.143028421 660.0703125 354 c 0
 619.8671875 126 475.829101562 -16 281.829101562 -16 c 0
290.46875 33 m 0
 452.46875 33 571.981445312 155 607.0703125 354 c 0
 612.708470578 385.975767457 615.474944381 416.015126039 615.474944381 443.914793347 c 0
 615.474944381 589.647668296 539.992913239 677 404.0234375 677 c 0
 243.0234375 677 122.159179688 553 87.0703125 354 c 0
 81.4872174443 322.336512258 78.754207473 292.622429508 78.754207473 265.039023254 c 0
 78.754207473 119.26509474 155.085943601 33 290.46875 33 c 0
EndSplineSet
Validated: 524289
Substitution2: "'ss08' Style Set 8 in Latin lookup 41 subtable" Odieresis.ss08
Substitution2: "'aalt' Access All Alternates in Latin lookup 0 subtable" Odieresis.ss08
EndChar

StartChar: Ograve
Encoding: 210 210 79
Width: 722
GlyphClass: 2
Flags: HMW
HStem: -16 49<280.5 442 280.5 458> 677 49<280.5 442> 793 120<259 342 259 383>
VStem: 48 53<254.5 453.5 254.5 468.5> 621 53<254.5 453.5>
AnchorPoint: "Anchor-3" 407.109 710 basechar 0
AnchorPoint: "Anchor-1" 344.514 355 basechar 0
AnchorPoint: "Anchor-0" 281.917 0 basechar 0
LayerCount: 2
Fore
SplineSet
402.745117188 793 m 1
 340.904296875 913 l 1
 394.904296875 913 l 1
 443.745117188 793 l 1
 402.745117188 793 l 1
279.095703125 -16 m 0
 114.737873777 -16 22.1837648428 85.9214699131 22.1837648428 255.711515616 c 0
 22.1837648428 286.333394293 25.1942390905 319.162809749 31.3369140625 354 c 0
 71.7158203125 583 215.930664062 726 409.930664062 726 c 0
 574.158840859 726 666.570567092 623.522641893 666.570567092 453.14694565 c 0
 666.570567092 422.260679934 663.533582403 389.143028421 657.336914062 354 c 0
 617.134765625 126 473.095703125 -16 279.095703125 -16 c 0
287.736328125 33 m 0
 449.736328125 33 569.248046875 155 604.336914062 354 c 0
 609.97511527 385.976012059 612.741613482 416.015585617 612.741613482 443.91543361 c 0
 612.741613482 589.647924145 537.260292241 677 401.291015625 677 c 0
 240.291015625 677 119.42578125 553 84.3369140625 354 c 0
 78.7538614766 322.336753117 76.0208753381 292.622881569 76.0208753381 265.039652723 c 0
 76.0208753381 119.265343076 152.353326859 33 287.736328125 33 c 0
EndSplineSet
Validated: 524289
EndChar

StartChar: Ohungarumlaut
Encoding: 336 336 80
Width: 722
GlyphClass: 2
Flags: HMW
HStem: -16 49<280.5 442 280.5 458> 677 49<280.5 442> 786 120<286 410 286 410 393 410 356 433 393 393>
VStem: 48 53<254.5 453.5 254.5 468.5> 621 53<254.5 453.5>
AnchorPoint: "Anchor-3" 407.727 710 basechar 0
AnchorPoint: "Anchor-1" 345.131 355 basechar 0
AnchorPoint: "Anchor-0" 282.534 0 basechar 0
LayerCount: 2
Fore
SplineSet
346.127929688 786 m 1
 437.287109375 906 l 1
 491.287109375 906 l 1
 387.127929688 786 l 1
 346.127929688 786 l 1
453.127929688 786 m 1
 544.287109375 906 l 1
 598.287109375 906 l 1
 493.127929688 786 l 1
 453.127929688 786 l 1
279.712890625 -16 m 0
 115.355061277 -16 22.8009523428 85.9214699131 22.8009523428 255.711515616 c 0
 22.8009523428 286.333394293 25.8114265905 319.162809749 31.9541015625 354 c 0
 72.3330078125 583 216.547851562 726 410.547851562 726 c 0
 574.776028359 726 667.187754592 623.522641893 667.187754592 453.14694565 c 0
 667.187754592 422.260679934 664.150769903 389.143028421 657.954101562 354 c 0
 617.751953125 126 473.712890625 -16 279.712890625 -16 c 0
288.353515625 33 m 0
 450.353515625 33 569.865234375 155 604.954101562 354 c 0
 610.59230277 385.976012059 613.358800982 416.015585617 613.358800982 443.91543361 c 0
 613.358800982 589.647924145 537.877479741 677 401.908203125 677 c 0
 240.908203125 677 120.04296875 553 84.9541015625 354 c 0
 79.3710489766 322.336753117 76.6380628381 292.622881569 76.6380628381 265.039652723 c 0
 76.6380628381 119.265343076 152.970514359 33 288.353515625 33 c 0
EndSplineSet
Validated: 524289
EndChar

StartChar: Omacron
Encoding: 332 332 81
Width: 722
GlyphClass: 2
Flags: HMW
HStem: -16 49<280.5 442 280.5 458> 677 49<280.5 442> 818 42<234 488 234 488>
VStem: 48 53<254.5 453.5 254.5 468.5> 621 53<254.5 453.5>
AnchorPoint: "Anchor-3" 411.782 710 basechar 0
AnchorPoint: "Anchor-1" 349.187 355 basechar 0
AnchorPoint: "Anchor-0" 286.59 0 basechar 0
LayerCount: 2
Fore
SplineSet
303.825195312 818 m 1
 311.231445312 860 l 1
 565.231445312 860 l 1
 557.825195312 818 l 1
 303.825195312 818 l 1
283.768554688 -16 m 0
 119.41072534 -16 26.8566164053 85.9214699131 26.8566164053 255.711515616 c 0
 26.8566164053 286.333394293 29.867090653 319.162809749 36.009765625 354 c 0
 76.388671875 583 220.603515625 726 414.603515625 726 c 0
 578.831692422 726 671.243418654 623.522641893 671.243418654 453.14694565 c 0
 671.243418654 422.260679934 668.206433965 389.143028421 662.009765625 354 c 0
 621.807617188 126 477.768554688 -16 283.768554688 -16 c 0
292.409179688 33 m 0
 454.409179688 33 573.920898438 155 609.009765625 354 c 0
 614.647966833 385.976012059 617.414465044 416.015585617 617.414465044 443.91543361 c 0
 617.414465044 589.647924145 541.933143803 677 405.963867188 677 c 0
 244.963867188 677 124.098632812 553 89.009765625 354 c 0
 83.4267130391 322.336753117 80.6937269006 292.622881569 80.6937269006 265.039652723 c 0
 80.6937269006 119.265343076 157.026178422 33 292.409179688 33 c 0
EndSplineSet
Validated: 524289
EndChar

StartChar: Oslash
Encoding: 216 216 82
Width: 722
GlyphClass: 2
Flags: HMW
HStem: -16 49<329 442 329 458> 677 49<280.5 393>
VStem: 48 53<304 453.5 304 468.5> 621 53<254.5 404.5>
AnchorPoint: "Anchor-3" 423.596 710 basechar 0
AnchorPoint: "Anchor-1" 361 355 basechar 0
AnchorPoint: "Anchor-0" 298.404 0 basechar 0
LayerCount: 2
Fore
SplineSet
12.5830078125 -16 m 1
 91.4521484375 74 l 1
 56.8310020144 119.484152273 38.6964791192 181.130867889 38.6964791192 256.068504302 c 0
 38.6964791192 286.574379326 41.7016773574 319.282785512 47.8232421875 354 c 0
 88.2021484375 583 232.416992188 726 426.416992188 726 c 0
 502.416992188 726 562.538085938 704 605.661132812 665 c 1
 658.416992188 726 l 1
 709.416992188 726 l 1
 631.547851562 636 l 1
 665.293938206 590.73631735 683.124623127 528.966181595 683.124623127 453.873440131 c 0
 683.124623127 422.7897688 680.069443687 389.423349989 673.823242188 354 c 0
 633.62109375 126 489.583007812 -16 295.583007812 -16 c 0
 220.583007812 -16 160.28515625 5 116.338867188 45 c 1
 63.5830078125 -16 l 1
 12.5830078125 -16 l 1
100.823242188 354 m 0
 95.2219663922 322.232033152 92.4816451594 292.381553368 92.4816451594 264.672983099 c 0
 92.4816451594 205.159823373 105.123164078 155.527618234 129.2109375 118 c 1
 568.079101562 622 l 1
 532.250976562 657 481.77734375 677 417.77734375 677 c 0
 256.77734375 677 135.913085938 553 100.823242188 354 c 0
304.22265625 33 m 0
 466.22265625 33 585.734375 155 620.823242188 354 c 0
 626.507892964 386.238269558 629.286099254 416.438883937 629.286099254 444.406722908 c 0
 629.286099254 504.059955875 616.647043179 553.555493324 592.61328125 591 c 1
 153.920898438 88 l 1
 189.573242188 52 240.22265625 33 304.22265625 33 c 0
EndSplineSet
Validated: 524289
EndChar

StartChar: Otilde
Encoding: 213 213 83
Width: 722
GlyphClass: 2
Flags: HMW
HStem: -16 49<280.5 442 280.5 458> 677 49<280.5 442> 803 35<411 431.5 411 440.5> 861 35<284 309.5>
VStem: 48 53<254.5 453.5 254.5 468.5> 216 34<798 798> 462 35<905 905> 621 53<254.5 453.5>
AnchorPoint: "Anchor-3" 407.814 710 basechar 0
AnchorPoint: "Anchor-1" 345.219 355 basechar 0
AnchorPoint: "Anchor-0" 282.623 0 basechar 0
LayerCount: 2
Fore
SplineSet
480.212890625 803 m 0
 453.212890625 803 436.15234375 814 419.6796875 834 c 0
 404.853515625 852 394.440429688 861 371.440429688 861 c 0
 343.440429688 861 322.266601562 843 312.33203125 798 c 1
 278.33203125 798 l 1
 292.440429688 861 331.611328125 896 377.611328125 896 c 0xdf
 409.611328125 896 427.142578125 882 444.616210938 862 c 0
 460.442382812 844 472.384765625 838 488.384765625 838 c 0
 513.384765625 838 530.381835938 855 543.198242188 905 c 1
 578.198242188 905 l 1
 562.9140625 841 527.212890625 803 480.212890625 803 c 0
279.801757812 -16 m 0
 115.443738279 -16 22.8889043974 85.9217057889 22.8889043974 255.712105032 c 0
 22.8889043974 286.333815563 25.8993566272 319.163033266 32.0419921875 354 c 0
 72.4208984375 583 216.635742188 726 410.635742188 726 c 0
 574.863918984 726 667.275645217 623.522641893 667.275645217 453.14694565 c 0
 667.275645217 422.260679934 664.238660528 389.143028421 658.041992188 354 c 0
 617.83984375 126 473.801757812 -16 279.801757812 -16 c 0
288.44140625 33 m 0
 450.44140625 33 569.953125 155 605.041992188 354 c 0
 610.680419826 385.976406282 613.447023231 416.016326316 613.447023231 443.916465517 c 0
 613.447023231 589.648336495 537.96504944 677 401.99609375 677 c 0
 240.99609375 677 120.131835938 553 85.0419921875 354 c 0
 79.4589396016 322.336753117 76.7259534631 292.622881569 76.7259534631 265.039652723 c 0
 76.7259534631 119.265343076 153.058404984 33 288.44140625 33 c 0
EndSplineSet
Validated: 524289
EndChar

StartChar: OE
Encoding: 338 338 84
Width: 1081
GlyphClass: 2
Flags: HMW
HStem: -16 49<278 420.5> 0 48<672 1028 672 1028> 331 47<672 1008 672 1008> 662 48<672 1020 672 672> 677 49<278 421 263.5 443>
VStem: 48 53<256.5 451.5 256.5 465.5> 621 51<256.5 331 378 451> 622 50<48 149 149 149 561 662>
AnchorPoint: "Anchor-3" 602.596 710 basechar 0
AnchorPoint: "Anchor-0" 477.404 0 basechar 0
LayerCount: 2
Fore
SplineSet
294.583007812 -16 m 0xb5
 131.395272616 -16 39.071030662 90.9139286016 39.071030662 259.306780936 c 0
 39.071030662 289.038056063 41.9490619793 320.685818821 47.8232421875 354 c 0
 87.14453125 577 232.416992188 726 425.416992188 726 c 0xae
 547.416992188 726 627.837890625 666 658.323242188 561 c 1
 684.595703125 710 l 1x75
 1082.59570312 710 l 1
 1074.1328125 662 l 1
 726.1328125 662 l 1
 676.055664062 378 l 1
 1012.05566406 378 l 1
 1003.76855469 331 l 1
 667.768554688 331 l 1
 617.8671875 48 l 1x76
 973.8671875 48 l 1
 965.404296875 0 l 1
 559.404296875 0 l 1x75
 585.676757812 149 l 1
 518.162109375 44 415.583007812 -16 294.583007812 -16 c 0xb5
303.22265625 33 m 0
 469.22265625 33 586.439453125 159 620.823242188 354 c 0
 626.372813425 385.472654768 629.120452827 415.234598517 629.120452827 443.01257197 c 0
 629.120452827 586.460282832 555.847134 677 416.77734375 677 c 0
 252.77734375 677 135.20703125 549 100.823242188 354 c 0
 95.2398710537 322.335154421 92.4823334102 292.489735764 92.4823334102 264.707807705 c 0
 92.4823334102 121.401708254 165.853603301 33 303.22265625 33 c 0
EndSplineSet
Validated: 524289
EndChar

StartChar: P
Encoding: 80 80 85
Width: 629
GlyphClass: 2
Flags: HMW
HStem: 0 21G<95 95 95 145> 295 48<145 338 145 338> 662 48<145 338 145 145>
VStem: 95 50<0 295 343 662> 529 52<450.5 553.5>
AnchorPoint: "Anchor-3" 376.596 710 basechar 0
AnchorPoint: "Anchor-0" 251.404 0 basechar 0
LayerCount: 2
Fore
SplineSet
32.404296875 0 m 1
 157.595703125 710 l 1
 400.595703125 710 l 2
 535.023632258 710 610.845064598 648.209895154 610.845064598 544.689908583 c 0
 610.845064598 531.158043948 609.549500634 516.913139091 606.919921875 502 c 0
 584.350585938 374 479.419921875 295 327.419921875 295 c 2
 134.419921875 295 l 1
 82.404296875 0 l 1
 32.404296875 0 l 1
142.883789062 343 m 1
 335.883789062 343 l 2
 458.883789062 343 536.758789062 399 554.919921875 502 c 0
 557.106012866 514.397644315 558.189414467 526.128847601 558.189414467 537.17442765 c 0
 558.189414467 617.895857218 500.327858609 662 392.1328125 662 c 2
 199.1328125 662 l 1
 142.883789062 343 l 1
EndSplineSet
Validated: 524289
EndChar

StartChar: Thorn
Encoding: 222 222 86
Width: 599
GlyphClass: 2
Flags: HMW
HStem: 0 21G<95 95 95 145> 159 48<145 301 145 301> 525 48<145 301 145 301> 690 20G<95 145 145 145>
VStem: 95 50<0 159 0 207 207 525 573 710> 499 52<310 419.5>
AnchorPoint: "Anchor-3" 362.596 710 basechar 0
AnchorPoint: "Anchor-0" 237.404 0 basechar 0
LayerCount: 2
Fore
SplineSet
32.404296875 0 m 1
 157.595703125 710 l 1
 207.595703125 710 l 1
 183.439453125 573 l 1
 339.439453125 573 l 2
 480.134226326 573 556.67806651 511.143011855 556.67806651 407.521838099 c 0
 556.67806651 394.040107089 555.382366245 379.851410421 552.763671875 365 c 0
 529.48828125 233 425.439453125 159 266.439453125 159 c 2
 110.439453125 159 l 1
 82.404296875 0 l 1
 32.404296875 0 l 1
330.975585938 525 m 2
 174.975585938 525 l 1
 118.903320312 207 l 1
 274.903320312 207 l 2
 399.903320312 207 481.3671875 255 500.763671875 365 c 0
 503.018204036 377.786030267 504.12752519 389.773980486 504.12752519 400.975149284 c 0
 504.12752519 485.263149014 441.312707191 525 330.975585938 525 c 2
EndSplineSet
Validated: 524289
EndChar

StartChar: Q
Encoding: 81 81 87
Width: 716
GlyphClass: 2
Flags: HMW
HStem: -16 49<277 379 277 384> 677 49<276.5 439.5>
VStem: 48 53<258.5 450 258.5 463.5> 615 53<291 450>
AnchorPoint: "Anchor-3" 425.269 710 basechar 0
AnchorPoint: "Anchor-0" 300.076 0 basechar 0
LayerCount: 2
Fore
SplineSet
492.91015625 -69 m 1
 441.07421875 17 l 1
 399.37109375 -4 349.254882812 -16 297.254882812 -16 c 0
 135.49082022 -16 44.0230502594 94.9042833188 44.0230502594 261.787182906 c 0
 44.0230502594 290.916613953 46.8098670664 321.751587277 52.49609375 354 c 0
 91.1123046875 573 237.08984375 726 428.08984375 726 c 0
 591.006800289 726 681.220326631 615.840602936 681.220326631 448.673174965 c 0
 681.220326631 418.831360606 678.345452818 387.172846448 672.49609375 354 c 0
 647.458007812 212 579.061523438 102 481.953125 39 c 1
 548.91015625 -69 l 1
 492.91015625 -69 l 1
305.895507812 33 m 0
 347.895507812 33 384.482421875 42 418.303710938 58 c 1
 325.752929688 208 l 1
 381.752929688 208 l 1
 458.653320312 77 l 1
 540.17578125 131 597.279296875 228 619.49609375 354 c 0
 625.021302808 385.33438048 627.756396632 415.044074345 627.756396632 442.824812605 c 0
 627.756396632 585.269292271 555.848611884 677 419.450195312 677 c 0
 256.450195312 677 139.3515625 546 105.49609375 354 c 0
 100.068260703 323.21657198 97.3874845591 294.017661541 97.3874845591 266.692137013 c 0
 97.3874845591 124.472697892 170.005012207 33 305.895507812 33 c 0
EndSplineSet
Validated: 524289
EndChar

StartChar: R
Encoding: 82 82 88
Width: 644
GlyphClass: 2
Flags: HMW
HStem: 0 21G<95 95 95 145 536 536 536 587> 303 48<145 356 356 371 145 356> 662 48<145 344 145 145>
VStem: 95 50<0 303 351 662> 532 52<459 556>
AnchorPoint: "Anchor-3" 390.596 710 basechar 0
AnchorPoint: "Anchor-0" 266.404 0 basechar 0
LayerCount: 2
Fore
SplineSet
32.404296875 0 m 1
 157.595703125 710 l 1
 407.595703125 710 l 2
 541.311339215 710 614.217188951 650.410747368 614.217188951 547.571301886 c 0
 614.217188951 533.508968561 612.853994845 518.637942817 610.096679688 503 c 0
 594.580078125 415 527.470703125 352 446.768554688 331 c 1
 510.90028143 320.14306457 542.726754768 283.910681535 542.726754768 220.821670271 c 0
 542.726754768 214.179389493 542.373965362 207.239408941 541.668945312 200 c 2
 524.404296875 0 l 1
 473.404296875 0 l 1
 491.963867188 196 l 2
 492.482989737 201.514487537 492.746025033 206.806424251 492.746025033 211.877965486 c 0
 492.746025033 273.942764245 453.352503096 303 361.831054688 303 c 2
 135.831054688 303 l 1
 82.404296875 0 l 1
 32.404296875 0 l 1
144.294921875 351 m 1
 355.294921875 351 l 2
 463.294921875 351 540.81640625 405 558.272460938 504 c 0
 560.588187177 517.133218747 561.742734628 529.469093583 561.742734628 540.999569362 c 0
 561.742734628 620.777211122 506.473974764 662 398.1328125 662 c 2
 199.1328125 662 l 1
 144.294921875 351 l 1
EndSplineSet
Validated: 524289
Substitution2: "'ss04' Style Set 4 in Latin lookup 37 subtable" R.ss04
Substitution2: "'aalt' Access All Alternates in Latin lookup 0 subtable" R.ss04
EndChar

StartChar: Racute
Encoding: 340 340 89
Width: 644
GlyphClass: 2
Flags: HMW
HStem: 0 21G<95 95 95 145 536 536 536 587> 303 48<145 356 356 371 145 356> 662 48<145 344 145 145> 786 120<307 431 307 431>
VStem: 95 50<0 303 351 662> 532 52<459 556>
AnchorPoint: "Anchor-3" 373.316 710 basechar 0
AnchorPoint: "Anchor-0" 249.124 0 basechar 0
LayerCount: 2
Fore
SplineSet
365.716796875 786 m 1
 456.875976562 906 l 1
 510.875976562 906 l 1
 405.716796875 786 l 1
 365.716796875 786 l 1
15.1240234375 0 m 1
 140.31640625 710 l 1
 390.31640625 710 l 2
 524.03143266 710 596.937227243 650.411290765 596.937227243 547.572708581 c 0
 596.937227243 533.509960289 595.573930825 518.638464254 592.81640625 503 c 0
 577.299804688 415 510.19140625 352 429.48828125 331 c 1
 493.620736682 320.142941209 525.447204576 283.909858159 525.447204576 220.819519736 c 0
 525.447204576 214.17789155 525.094499388 207.238627657 524.389648438 200 c 2
 507.124023438 0 l 1
 456.124023438 0 l 1
 474.68359375 196 l 2
 475.202716299 201.514487537 475.465751595 206.806424251 475.465751595 211.877965486 c 0
 475.465751595 273.942764245 436.072229659 303 344.55078125 303 c 2
 118.55078125 303 l 1
 65.1240234375 0 l 1
 15.1240234375 0 l 1
127.014648438 351 m 1
 338.014648438 351 l 2
 446.014648438 351 523.536132812 405 540.993164062 504 c 0
 543.308863011 517.133063971 544.463394968 529.468802825 544.463394968 540.9991617 c 0
 544.463394968 620.77707069 489.193885866 662 380.852539062 662 c 2
 181.852539062 662 l 1
 127.014648438 351 l 1
EndSplineSet
Validated: 524289
Substitution2: "'ss04' Style Set 4 in Latin lookup 37 subtable" Racute.ss04
Substitution2: "'aalt' Access All Alternates in Latin lookup 0 subtable" Racute.ss04
EndChar

StartChar: Rcaron
Encoding: 344 344 90
Width: 644
GlyphClass: 2
Flags: HMW
HStem: 0 21G<95 95 95 145 536 536 536 587> 303 48<145 356 356 371 145 356> 662 48<145 344 145 145> 786 31<328 328 328 351 305 328> 786 127<217 351 217 305>
VStem: 95 50<0 303 351 662> 532 52<459 556>
AnchorPoint: "Anchor-3" 372.699 710 basechar 0
AnchorPoint: "Anchor-0" 248.507 0 basechar 0
LayerCount: 2
Fore
SplineSet
297.493164062 913 m 1xee
 339.493164062 913 l 1xee
 391.565429688 817 l 1xf6
 478.493164062 913 l 1
 520.493164062 913 l 1xee
 409.099609375 786 l 1
 363.099609375 786 l 1xf6
 297.493164062 913 l 1xee
14.5068359375 0 m 1
 139.69921875 710 l 1
 389.69921875 710 l 2
 523.41424516 710 596.320039743 650.411290765 596.320039743 547.572708581 c 0
 596.320039743 533.509960289 594.956743325 518.638464254 592.19921875 503 c 0
 576.682617188 415 509.57421875 352 428.87109375 331 c 1
 493.003549182 320.142941209 524.830017076 283.909858159 524.830017076 220.819519736 c 0
 524.830017076 214.17789155 524.477311888 207.238627657 523.772460938 200 c 2
 506.506835938 0 l 1
 455.506835938 0 l 1
 474.06640625 196 l 2
 474.585528799 201.514487537 474.848564095 206.806424251 474.848564095 211.877965486 c 0
 474.848564095 273.942764245 435.455042159 303 343.93359375 303 c 2
 117.93359375 303 l 1
 64.5068359375 0 l 1
 14.5068359375 0 l 1
126.397460938 351 m 1
 337.397460938 351 l 2
 445.397460938 351 522.918945312 405 540.375976562 504 c 0
 542.691675511 517.133063971 543.846207468 529.468802825 543.846207468 540.9991617 c 0
 543.846207468 620.77707069 488.576698366 662 380.235351562 662 c 2
 181.235351562 662 l 1
 126.397460938 351 l 1
EndSplineSet
Validated: 524289
Substitution2: "'ss04' Style Set 4 in Latin lookup 37 subtable" Rcaron.ss04
Substitution2: "'aalt' Access All Alternates in Latin lookup 0 subtable" Rcaron.ss04
EndChar

StartChar: uni0156
Encoding: 342 342 91
Width: 644
GlyphClass: 2
Flags: HMW
HStem: -110 62<295 323 295 362> 0 21G<95 95 95 145 536 536 536 587> 303 48<145 356 356 371 145 356> 662 48<145 344 145 145>
VStem: 95 50<0 303 351 662> 295 67<-104 -48 -104 -48 -104 -48> 532 52<459 556>
AnchorPoint: "Anchor-3" 407.611 710 basechar 0
AnchorPoint: "Anchor-0" 249.389 -193 basechar 0
LayerCount: 2
Fore
SplineSet
49.419921875 0 m 1
 174.611328125 710 l 1
 424.611328125 710 l 2
 558.326964215 710 631.232813951 650.410747368 631.232813951 547.571301886 c 0
 631.232813951 533.508968561 629.869619845 518.637942817 627.112304688 503 c 0
 611.594726562 415 544.486328125 352 463.784179688 331 c 1
 527.91590643 320.14306457 559.742379768 283.910681535 559.742379768 220.821670271 c 0
 559.742379768 214.179389493 559.389590362 207.239408941 558.684570312 200 c 2
 541.419921875 0 l 1
 490.419921875 0 l 1
 508.979492188 196 l 2
 509.498614737 201.514487537 509.761650033 206.806424251 509.761650033 211.877965486 c 0
 509.761650033 273.942764245 470.368128096 303 378.846679688 303 c 2
 152.846679688 303 l 1
 99.419921875 0 l 1
 49.419921875 0 l 1
161.310546875 351 m 1
 372.310546875 351 l 2
 480.310546875 351 557.83203125 405 575.288085938 504 c 0
 577.603784886 517.133063971 578.758316843 529.468802825 578.758316843 540.9991617 c 0
 578.758316843 620.77707069 523.488807741 662 415.147460938 662 c 2
 216.147460938 662 l 1
 161.310546875 351 l 1
201.388671875 -193 m 1
 258.0234375 -110 l 1
 230.0234375 -110 l 1
 240.956054688 -48 l 1
 307.956054688 -48 l 1
 298.081054688 -104 l 1
 235.388671875 -193 l 1
 201.388671875 -193 l 1
EndSplineSet
Validated: 524289
Substitution2: "'ss04' Style Set 4 in Latin lookup 37 subtable" uni0156.ss04
Substitution2: "'aalt' Access All Alternates in Latin lookup 0 subtable" uni0156.ss04
EndChar

StartChar: S
Encoding: 83 83 92
Width: 629
GlyphClass: 2
Flags: HMW
HStem: -16 49<264 384 264 395.5> 677 49<248 366.5>
VStem: 58 52<222 226> 73 53<493.5 575 493.5 587.5> 500 53<501 505> 518 52<133 216>
AnchorPoint: "Anchor-3" 367.596 710 basechar 0
AnchorPoint: "Anchor-0" 253.404 0 basechar 0
LayerCount: 2
Fore
SplineSet
261.583007812 -16 m 0xd4
 120.606379975 -16 31.8790850863 69.2055853664 31.8790850863 186.19666697 c 0
 31.8790850863 197.834124201 32.757031329 209.786095213 34.548828125 222 c 1
 87.25390625 226 l 1
 86.0274627211 216.598810458 85.4214900479 207.383595086 85.4214900479 198.392208684 c 0
 85.4214900479 103.134966396 153.435084144 33 272.22265625 33 c 0
 382.22265625 33 470.568359375 86 487.142578125 180 c 0xe4
 488.76781348 189.217334792 489.687436487 198.057728419 489.687436487 206.556847959 c 0
 489.687436487 264.447484322 447.021763591 306.504797167 294.060546875 344 c 0
 160.660235739 377.284427604 100.821552845 414.40491172 100.821552845 495.68175086 c 0
 100.821552845 507.19664977 102.022623825 519.597846874 104.385742188 533 c 0
 123.60546875 642 224.416992188 726 371.416992188 726 c 0
 513.553234784 726 581.379036694 638.833468801 581.379036694 535.600234433 c 0
 581.379036694 525.53101851 580.733758221 515.308947813 579.44921875 505 c 1
 525.744140625 501 l 1xd8
 527.035958637 510.562803661 527.684625176 519.950663135 527.684625176 529.10513033 c 0
 527.684625176 612.808714955 473.454143156 677 360.77734375 677 c 0
 248.77734375 677 172.197265625 617 157.385742188 533 c 0
 155.578470906 522.750349299 154.60680493 513.325520203 154.60680493 504.605394569 c 0
 154.60680493 446.1144566 198.323636987 419.329273098 326.818359375 388 c 0
 489.124764663 348.050785553 542.824267894 295.27974904 542.824267894 217.896620706 c 0
 542.824267894 206.176021903 541.592362652 193.890804005 539.319335938 181 c 0
 517.807617188 59 398.583007812 -16 261.583007812 -16 c 0xd4
EndSplineSet
Validated: 524289
EndChar

StartChar: Sacute
Encoding: 346 346 93
Width: 629
GlyphClass: 2
Flags: HMW
HStem: -16 49<264 384 264 395.5> 677 49<248 366.5> 786 120<283 407 283 407>
VStem: 58 52<222 226> 73 53<493.5 575 493.5 587.5> 500 53<501 505> 518 52<133 216>
AnchorPoint: "Anchor-3" 351.727 710 basechar 0
AnchorPoint: "Anchor-0" 237.534 0 basechar 0
LayerCount: 2
Fore
SplineSet
343.127929688 786 m 1xea
 434.287109375 906 l 1
 488.287109375 906 l 1
 384.127929688 786 l 1
 343.127929688 786 l 1xea
245.712890625 -16 m 0
 104.735795188 -16 16.0091871627 69.2061505977 16.0091871627 186.197831101 c 0
 16.0091871627 197.834921262 16.8870622377 209.786502478 18.6787109375 222 c 1
 71.384765625 226 l 1
 70.1583220961 216.598810458 69.5523494229 207.383595086 69.5523494229 198.392208684 c 0
 69.5523494229 103.134966396 137.565943519 33 256.353515625 33 c 0
 366.353515625 33 454.698242188 86 471.2734375 180 c 0xd2
 472.898672855 189.217334792 473.818295862 198.057728419 473.818295862 206.556847959 c 0
 473.818295862 264.447484322 431.152622966 306.504797167 278.19140625 344 c 0
 144.791095114 377.284427604 84.9524122196 414.40491172 84.9524122196 495.68175086 c 0
 84.9524122196 507.19664977 86.1534831998 519.597846874 88.5166015625 533 c 0
 107.736328125 642 208.547851562 726 355.547851562 726 c 0
 497.684717154 726 565.509679931 638.832704684 565.509679931 535.598876995 c 0
 565.509679931 525.530099814 564.86447309 515.30848456 563.580078125 505 c 1
 509.874023438 501 l 1xcc
 511.166015625 510.563380282 511.814769283 519.951795279 511.814769283 529.106786324 c 0
 511.814769283 612.809561595 457.584259463 677 344.908203125 677 c 0
 232.908203125 677 156.328125 617 141.516601562 533 c 0
 139.709305656 522.750209642 138.737621387 513.325263366 138.737621387 504.605038118 c 0
 138.737621387 446.114347779 182.453907523 419.329209457 310.94921875 388 c 0
 473.254753755 348.050791012 526.954152929 295.279763461 526.954152929 217.896652425 c 0
 526.954152929 206.176044068 525.722247515 193.890815634 523.44921875 181 c 0
 501.9375 59 382.712890625 -16 245.712890625 -16 c 0
EndSplineSet
Validated: 524289
EndChar

StartChar: Scaron
Encoding: 352 352 94
Width: 629
GlyphClass: 2
Flags: HMW
HStem: -16 49<264 384 264 395.5> 677 49<248 366.5> 786 31<305 305 305 328 282 305> 786 127<193 328 193 282>
VStem: 58 52<222 226> 73 53<493.5 575 493.5 587.5> 500 53<501 505> 518 52<133 216>
AnchorPoint: "Anchor-3" 351.109 710 basechar 0
AnchorPoint: "Anchor-0" 236.917 0 basechar 0
LayerCount: 2
Fore
SplineSet
274.904296875 913 m 1xd5
 316.904296875 913 l 1xd5
 369.9765625 817 l 1xe5
 455.904296875 913 l 1
 497.904296875 913 l 1xd5
 387.510742188 786 l 1
 341.510742188 786 l 1xe6
 274.904296875 913 l 1xd5
245.095703125 -16 m 0
 104.118607688 -16 15.3919996627 69.2061505977 15.3919996627 186.197831101 c 0
 15.3919996627 197.834921262 16.2698747377 209.786502478 18.0615234375 222 c 1
 70.767578125 226 l 1
 69.5411345961 216.598810458 68.9351619229 207.383595086 68.9351619229 198.392208684 c 0
 68.9351619229 103.134966396 136.948756019 33 255.736328125 33 c 0
 365.736328125 33 454.081054688 86 470.65625 180 c 0xc9
 472.281485355 189.217334792 473.201108362 198.057728419 473.201108362 206.556847959 c 0
 473.201108362 264.447484322 430.535435466 306.504797167 277.57421875 344 c 0
 144.173907614 377.284427604 84.3352247196 414.40491172 84.3352247196 495.68175086 c 0
 84.3352247196 507.19664977 85.5362956998 519.597846874 87.8994140625 533 c 0
 107.119140625 642 207.930664062 726 354.930664062 726 c 0
 497.067529654 726 564.892492431 638.832704684 564.892492431 535.598876995 c 0
 564.892492431 525.530099814 564.24728559 515.30848456 562.962890625 505 c 1
 509.256835938 501 l 1xc6
 510.548828125 510.563380282 511.197581783 519.951795279 511.197581783 529.106786324 c 0
 511.197581783 612.809561595 456.967071963 677 344.291015625 677 c 0
 232.291015625 677 155.7109375 617 140.899414062 533 c 0
 139.092118156 522.750209642 138.120433887 513.325263366 138.120433887 504.605038118 c 0
 138.120433887 446.114347779 181.836720023 419.329209457 310.33203125 388 c 0
 472.638532955 348.050553072 526.337605097 295.279134847 526.337605097 217.89526973 c 0
 526.337605097 206.175077866 525.105818743 193.89030872 522.833007812 181 c 0
 501.3203125 59 382.095703125 -16 245.095703125 -16 c 0
EndSplineSet
Validated: 524289
EndChar

StartChar: Scedilla
Encoding: 350 350 95
Width: 629
GlyphClass: 2
Flags: HMW
HStem: -209 36<285.5 324.5 285.5 336.5> -75 31<310 310 310 317.5> -16 49<326 327 326 326> 677 49<248 366.5>
VStem: 58 52<222 226> 73 53<493.5 575 493.5 587.5> 368 39<-141 -108> 500 53<501 505> 518 52<133 216>
AnchorPoint: "Anchor-3" 384.611 710 basechar 0
AnchorPoint: "Anchor-0" 270.42 0 basechar 0
LayerCount: 2
Fore
SplineSet
278.598632812 -16 m 2xb680
 277.598632812 -16 l 1
 256.661132812 -44 l 1
 311.740753362 -45.7583991346 340.859471845 -67.6145871275 340.859471845 -108.209335727 c 0
 340.859471845 -113.786980869 340.309760999 -119.7183775 339.202148438 -126 c 0
 330.033203125 -178 283.567382812 -209 224.567382812 -209 c 0
 169.567382812 -209 139.151367188 -183 133.205078125 -143 c 1
 168.497070312 -130 l 1
 172.736328125 -157 189.915039062 -173 228.915039062 -173 c 0
 267.915039062 -173 294.559570312 -158 300.5546875 -124 c 0
 301.241251339 -120.106382159 301.607369164 -116.434838438 301.607369164 -112.988971635 c 0
 301.607369164 -88.1147150462 282.529752376 -75 227.1953125 -75 c 1xd680
 212.07421875 -53 l 1
 240.951171875 -14 l 1
 121.721121548 0.432587454575 48.9560915035 79.9587938573 48.9560915035 186.412676937 c 0
 48.9560915035 197.973816087 49.8143160946 209.852552773 51.564453125 222 c 1
 104.26953125 226 l 1
 103.043087721 216.598810458 102.437115048 207.383595086 102.437115048 198.392208684 c 0
 102.437115048 103.134966396 170.450709144 33 289.23828125 33 c 0
 399.23828125 33 487.583984375 86 504.158203125 180 c 0xba80
 505.78343848 189.217334792 506.703061487 198.057728419 506.703061487 206.556847959 c 0
 506.703061487 264.447484322 464.037388591 306.504797167 311.076171875 344 c 0
 177.675860739 377.284427604 117.837177845 414.40491172 117.837177845 495.68175086 c 0
 117.837177845 507.19664977 119.038248825 519.597846874 121.401367188 533 c 0
 140.62109375 642 241.432617188 726 388.432617188 726 c 0
 530.568859784 726 598.394661694 638.833468801 598.394661694 535.600234433 c 0
 598.394661694 525.53101851 597.749383221 515.308947813 596.46484375 505 c 1
 542.759765625 501 l 1xb7
 544.051583637 510.562803661 544.700250176 519.950663135 544.700250176 529.10513033 c 0
 544.700250176 612.808714955 490.469768156 677 377.79296875 677 c 0
 265.79296875 677 189.212890625 617 174.401367188 533 c 0
 172.594071281 522.750209642 171.622387012 513.325263366 171.622387012 504.605038118 c 0
 171.622387012 446.114347779 215.338673148 419.329209457 343.833984375 388 c 0
 506.141063535 348.05061969 559.839602243 295.279310845 559.839602243 217.895656855 c 0
 559.839602243 206.175348382 558.607796892 193.890450645 556.334960938 181 c 0
 534.823242188 59 415.598632812 -16 278.598632812 -16 c 2xb680
EndSplineSet
Validated: 524289
Substitution2: "'locl' Localized Forms in Latin lookup 10 subtable" uni0218
Substitution2: "'aalt' Access All Alternates in Latin lookup 0 subtable" uni0218
EndChar

StartChar: Scircumflex
Encoding: 348 348 96
Width: 629
GlyphClass: 2
Flags: HMW
HStem: -16 49<264 384 264 395.5> 677 49<248 366.5> 786 127<194 328 194 328 282 375 282 417> 882 31<305 305>
VStem: 58 52<222 226> 73 53<493.5 575 493.5 587.5> 500 53<501 505> 518 52<133 216>
AnchorPoint: "Anchor-3" 351.109 710 basechar 0
AnchorPoint: "Anchor-0" 236.917 0 basechar 0
LayerCount: 2
Fore
SplineSet
253.510742188 786 m 1xe5
 363.904296875 913 l 1
 409.904296875 913 l 1xd5
 476.510742188 786 l 1
 434.510742188 786 l 1xe6
 381.4375 882 l 1xd6
 295.510742188 786 l 1
 253.510742188 786 l 1xe5
245.095703125 -16 m 0
 104.118607688 -16 15.3919996627 69.2061505977 15.3919996627 186.197831101 c 0
 15.3919996627 197.834921262 16.2698747377 209.786502478 18.0615234375 222 c 1
 70.767578125 226 l 1
 69.5411345961 216.598810458 68.9351619229 207.383595086 68.9351619229 198.392208684 c 0
 68.9351619229 103.134966396 136.948756019 33 255.736328125 33 c 0
 365.736328125 33 454.081054688 86 470.65625 180 c 0xc9
 472.281485355 189.217334792 473.201108362 198.057728419 473.201108362 206.556847959 c 0
 473.201108362 264.447484322 430.535435466 306.504797167 277.57421875 344 c 0
 144.173907614 377.284427604 84.3352247196 414.40491172 84.3352247196 495.68175086 c 0
 84.3352247196 507.19664977 85.5362956998 519.597846874 87.8994140625 533 c 0
 107.119140625 642 207.930664062 726 354.930664062 726 c 0
 497.067529654 726 564.892492431 638.832704684 564.892492431 535.598876995 c 0
 564.892492431 525.530099814 564.24728559 515.30848456 562.962890625 505 c 1
 509.256835938 501 l 1xc6
 510.548828125 510.563380282 511.197581783 519.951795279 511.197581783 529.106786324 c 0
 511.197581783 612.809561595 456.967071963 677 344.291015625 677 c 0
 232.291015625 677 155.7109375 617 140.899414062 533 c 0
 139.092118156 522.750209642 138.120433887 513.325263366 138.120433887 504.605038118 c 0
 138.120433887 446.114347779 181.836720023 419.329209457 310.33203125 388 c 0
 472.638532955 348.050553072 526.337605097 295.279134847 526.337605097 217.89526973 c 0
 526.337605097 206.175077866 525.105818743 193.89030872 522.833007812 181 c 0
 501.3203125 59 382.095703125 -16 245.095703125 -16 c 0
EndSplineSet
Validated: 524289
EndChar

StartChar: uni0218
Encoding: 536 536 97
Width: 629
GlyphClass: 2
Flags: HMW
HStem: -110 62<282 310 282 349> -16 49<264 384 264 395.5> 677 49<248 366.5>
VStem: 58 52<222 226> 73 53<493.5 575 493.5 587.5> 282 67<-104 -48 -104 -48 -104 -48> 500 53<501 505> 518 52<133 216>
AnchorPoint: "Anchor-3" 383.201 710 basechar 0
AnchorPoint: "Anchor-0" 234.978 -193 basechar 0
LayerCount: 2
Fore
SplineSet
277.1875 -16 m 0xed
 136.210404563 -16 47.4837965377 69.2061505977 47.4837965377 186.197831101 c 0
 47.4837965377 197.834921262 48.3616716127 209.786502478 50.1533203125 222 c 1
 102.858398438 226 l 1
 101.631968343 216.598913441 101.026002776 207.383796978 101.026002776 198.392504166 c 0
 101.026002776 103.135111432 169.040430071 33 287.828125 33 c 0
 397.828125 33 486.172851562 86 502.748046875 180 c 0xf5
 504.373257567 189.217194915 505.292861321 198.057460107 505.292861321 206.556461028 c 0
 505.292861321 264.447296919 462.626596568 306.50471363 309.665039062 344 c 0
 176.265597986 377.28442394 116.427019728 414.404903549 116.427019728 495.681724023 c 0
 116.427019728 507.196630501 117.628090739 519.597836462 119.991210938 533 c 0
 139.2109375 642 240.022460938 726 387.022460938 726 c 0
 529.15855255 726 596.983550649 638.833653986 596.983550649 535.600563411 c 0
 596.983550649 525.531241158 596.338264398 515.309060083 595.053710938 505 c 1
 541.348632812 501 l 1xee
 542.640450825 510.562803661 543.289117364 519.950663135 543.289117364 529.10513033 c 0
 543.289117364 612.808714955 489.058635344 677 376.381835938 677 c 0
 264.381835938 677 187.802734375 617 172.991210938 533 c 0
 171.183915031 522.750209642 170.212230762 513.325263366 170.212230762 504.605038118 c 0
 170.212230762 446.114347779 213.928516898 419.329209457 342.423828125 388 c 0
 504.72936313 348.050791012 558.428762304 295.279763461 558.428762304 217.896652425 c 0
 558.428762304 206.176044068 557.19685689 193.890815634 554.923828125 181 c 0
 533.412109375 59 414.1875 -16 277.1875 -16 c 0xed
186.977539062 -193 m 1
 243.61328125 -110 l 1
 215.61328125 -110 l 1
 226.544921875 -48 l 1
 293.544921875 -48 l 1
 283.670898438 -104 l 1
 220.977539062 -193 l 1
 186.977539062 -193 l 1
EndSplineSet
Validated: 524289
EndChar

StartChar: uni1E9E
Encoding: 7838 7838 98
Width: 667
GlyphClass: 2
Flags: HMW
HStem: 0 48<230 364 230 364> 370 45<257 318> 662 48<232 568 279 511>
VStem: 95 50<0 520 520 521 0 583.5> 511 57<662 662> 557 52<155.5 260>
AnchorPoint: "Anchor-3" 395.596 710 basechar 0
AnchorPoint: "Anchor-0" 270.404 0 basechar 0
LayerCount: 2
Fore
SplineSet
32.404296875 0 m 1xf8
 124.09375 520 l 2
 146.487304688 647 218.595703125 710 341.595703125 710 c 2
 630.595703125 710 l 1
 620.192382812 651 l 1xf8
 328.580078125 415 l 1
 497.366303208 413.210555308 586.626630712 355.384145253 586.626630712 247.250772707 c 0
 586.626630712 234.527241413 585.390813317 221.107205623 582.903320312 207 c 0
 559.8046875 76 447.404296875 0 301.404296875 0 c 2
 167.404296875 0 l 1
 175.8671875 48 l 1
 309.8671875 48 l 2
 424.8671875 48 512.91796875 105 530.727539062 206 c 0xf4
 532.756461404 217.506798954 533.773163151 228.423308646 533.773163151 238.744691228 c 0
 533.773163151 325.297280565 462.277788384 370 316.64453125 370 c 2
 259.64453125 370 l 1
 267.932617188 417 l 1
 565.1328125 662 l 1
 333.1328125 662 l 2
 239.1328125 662 191.7265625 620 174.270507812 521 c 2
 82.404296875 0 l 1
 32.404296875 0 l 1xf8
EndSplineSet
Validated: 524289
EndChar

StartChar: T
Encoding: 84 84 99
Width: 547
GlyphClass: 2
Flags: HMW
HStem: 0 21G<248 248 248 298> 662 48<13 248 13 533 298 298 298 533>
VStem: 248 50<0 662 0 662>
AnchorPoint: "Anchor-3" 335.596 710 basechar 0
AnchorPoint: "Anchor-1" 271.766 348 basechar 0
AnchorPoint: "Anchor-0" 210.404 0 basechar 0
LayerCount: 2
Fore
SplineSet
185.404296875 0 m 1
 302.1328125 662 l 1
 67.1328125 662 l 1
 75.595703125 710 l 1
 595.595703125 710 l 1
 587.1328125 662 l 1
 352.1328125 662 l 1
 235.404296875 0 l 1
 185.404296875 0 l 1
EndSplineSet
Validated: 524289
EndChar

StartChar: Tbar
Encoding: 358 358 100
Width: 547
GlyphClass: 2
Flags: HMW
HStem: 0 21G<248 248 248 298> 325 46<87 248 87 248 298 460> 662 48<13 248 13 533 298 298 298 533>
VStem: 248 50<0 325 0 325 371 662>
AnchorPoint: "Anchor-3" 335.596 710 basechar 0
AnchorPoint: "Anchor-1" 271.766 348 basechar 0
AnchorPoint: "Anchor-0" 210.404 0 basechar 0
LayerCount: 2
Fore
SplineSet
185.404296875 0 m 1
 242.709960938 325 l 1
 81.7099609375 325 l 1
 89.8212890625 371 l 1
 250.821289062 371 l 1
 302.1328125 662 l 1
 67.1328125 662 l 1
 75.595703125 710 l 1
 595.595703125 710 l 1
 587.1328125 662 l 1
 352.1328125 662 l 1
 300.821289062 371 l 1
 462.821289062 371 l 1
 454.709960938 325 l 1
 292.709960938 325 l 1
 235.404296875 0 l 1
 185.404296875 0 l 1
EndSplineSet
Validated: 524289
EndChar

StartChar: Tcaron
Encoding: 356 356 101
Width: 547
GlyphClass: 2
Flags: HMW
HStem: 0 21G<248 248 248 298> 662 48<13 248 13 533 298 298 298 533> 786 31<273 273 273 296 250 273> 786 127<162 296 162 250>
VStem: 248 50<0 662 0 662>
AnchorPoint: "Anchor-3" 317.699 710 basechar 0
AnchorPoint: "Anchor-1" 253.868 348 basechar 0
AnchorPoint: "Anchor-0" 192.507 0 basechar 0
LayerCount: 2
Fore
SplineSet
242.493164062 913 m 1xd8
 284.493164062 913 l 1xd8
 336.565429688 817 l 1xe8
 423.493164062 913 l 1
 465.493164062 913 l 1xd8
 354.099609375 786 l 1
 308.099609375 786 l 1xe8
 242.493164062 913 l 1xd8
167.506835938 0 m 1
 284.235351562 662 l 1
 49.2353515625 662 l 1
 57.69921875 710 l 1
 577.69921875 710 l 1
 569.235351562 662 l 1
 334.235351562 662 l 1
 217.506835938 0 l 1
 167.506835938 0 l 1
EndSplineSet
Validated: 524289
EndChar

StartChar: uni0162
Encoding: 354 354 102
Width: 547
GlyphClass: 2
Flags: HMW
HStem: -209 36<243.5 282.5 243.5 294.5> -75 31<267 267 267 275> 0 21G<248 248 248 254 294 294 294 298> 662 48<13 248 13 533 298 298 298 533>
VStem: 248 50<0 662 0 662> 326 39<-141 -108>
AnchorPoint: "Anchor-3" 354.022 710 basechar 0
AnchorPoint: "Anchor-1" 290.191 348 basechar 0
AnchorPoint: "Anchor-0" 228.83 0 basechar 0
LayerCount: 2
Fore
SplineSet
203.830078125 0 m 1
 320.55859375 662 l 1
 85.55859375 662 l 1
 94.0224609375 710 l 1
 614.022460938 710 l 1
 605.55859375 662 l 1
 370.55859375 662 l 1
 253.830078125 0 l 1
 249.830078125 0 l 1xf8
 215.071289062 -44 l 1
 270.324177114 -45.7639306438 300.231194898 -67.7522948418 300.231194898 -108.592996513 c 0
 300.231194898 -114.058765922 299.695534759 -119.862196738 298.61328125 -126 c 0
 289.444335938 -178 242.977539062 -209 183.977539062 -209 c 0
 128.977539062 -209 97.5625 -183 92.615234375 -143 c 1
 127.907226562 -130 l 1
 132.146484375 -157 149.325195312 -173 188.325195312 -173 c 0
 227.325195312 -173 253.970703125 -158 259.965820312 -124 c 0xf4
 260.650679462 -120.11604974 261.016667525 -116.453072179 261.016667525 -113.014643347 c 0
 261.016667525 -88.1237385746 241.837568229 -75 185.60546875 -75 c 1
 171.484375 -53 l 1
 209.830078125 0 l 1
 203.830078125 0 l 1
EndSplineSet
Validated: 524289
Substitution2: "'locl' Localized Forms in Latin lookup 10 subtable" uni021A
Substitution2: "'aalt' Access All Alternates in Latin lookup 0 subtable" uni021A
EndChar

StartChar: uni021A
Encoding: 538 538 103
Width: 547
GlyphClass: 2
Flags: HMW
HStem: -110 62<240 268 240 307> 0 21G<248 248 248 298> 662 48<13 248 13 533 298 298 298 533>
VStem: 240 58<-110 662 -48 662> 248 50<0 662 0 662> 248 59<-104 662>
AnchorPoint: "Anchor-3" 352.611 710 basechar 0
AnchorPoint: "Anchor-1" 288.781 348 basechar 0
AnchorPoint: "Anchor-0" 193.389 -193 basechar 0
LayerCount: 2
Fore
SplineSet
202.419921875 0 m 1xe8
 319.147460938 662 l 1
 84.1474609375 662 l 1
 92.611328125 710 l 1
 612.611328125 710 l 1
 604.147460938 662 l 1
 369.147460938 662 l 1
 252.419921875 0 l 1
 202.419921875 0 l 1xe8
146.388671875 -193 m 1
 203.0234375 -110 l 1
 175.0234375 -110 l 1
 185.956054688 -48 l 1xf0
 252.956054688 -48 l 1
 243.081054688 -104 l 1xe4
 180.388671875 -193 l 1
 146.388671875 -193 l 1
EndSplineSet
Validated: 524289
EndChar

StartChar: U
Encoding: 85 85 104
Width: 671
GlyphClass: 2
Flags: HMW
HStem: -16 49<270 401.5 270 416.5> 691 20G<80 130 130 130 541 591 591 591>
VStem: 80 50<248 711> 541 50<248 711>
AnchorPoint: "Anchor-3" 399.919 710 basechar 0
AnchorPoint: "Anchor-2" 382.079 2 basechar 0
AnchorPoint: "Anchor-0" 274.727 0 basechar 0
LayerCount: 2
Fore
SplineSet
271.905273438 -16 m 0
 132.65313751 -16 56.2822568561 55.6713254062 56.2822568561 181.86554813 c 0
 56.2822568561 202.480305714 58.3202621927 224.550041358 62.455078125 248 c 2
 144.094726562 711 l 1
 194.094726562 711 l 1
 112.455078125 248 l 2
 108.922255313 227.964271092 107.17600997 209.214367452 107.17600997 191.799255479 c 0
 107.17600997 89.2643789424 167.709532135 33 280.544921875 33 c 0
 411.544921875 33 499.122070312 110 523.455078125 248 c 2
 605.094726562 711 l 1
 655.094726562 711 l 1
 573.455078125 248 l 2
 544.008789062 81 432.905273438 -16 271.905273438 -16 c 0
EndSplineSet
Validated: 524289
EndChar

StartChar: Uacute
Encoding: 218 218 105
Width: 671
GlyphClass: 2
Flags: HMW
HStem: -16 49<270 401.5 270 416.5> 691 20G<80 130 130 130 541 591 591 591> 786 120<314 438 314 438>
VStem: 80 50<248 711> 541 50<248 711>
AnchorPoint: "Anchor-3" 382.727 710 basechar 0
AnchorPoint: "Anchor-2" 364.887 2 basechar 0
AnchorPoint: "Anchor-0" 257.534 0 basechar 0
LayerCount: 2
Fore
SplineSet
374.127929688 786 m 1
 465.287109375 906 l 1
 519.287109375 906 l 1
 415.127929688 786 l 1
 374.127929688 786 l 1
254.712890625 -16 m 0
 115.460939444 -16 39.0907982473 55.6711352329 39.0907982473 181.865045863 c 0
 39.0907982473 202.479947236 41.1288223619 224.549850909 45.263671875 248 c 2
 126.903320312 711 l 1
 176.903320312 711 l 1
 95.263671875 248 l 2
 91.7308490631 227.964271092 89.98460372 209.214367452 89.98460372 191.799255479 c 0
 89.98460372 89.2643789424 150.518125885 33 263.353515625 33 c 0
 394.353515625 33 481.930664062 110 506.263671875 248 c 2
 587.903320312 711 l 1
 637.903320312 711 l 1
 556.263671875 248 l 2
 526.817382812 81 415.712890625 -16 254.712890625 -16 c 0
EndSplineSet
Validated: 524289
EndChar

StartChar: Ubreve
Encoding: 364 364 106
Width: 671
GlyphClass: 2
Flags: HMW
HStem: -16 49<270 401.5 270 416.5> 691 20G<80 130 130 130 541 591 591 591> 793 39<311 361 311 373>
VStem: 80 50<248 711> 541 50<248 711>
AnchorPoint: "Anchor-3" 382.109 710 basechar 0
AnchorPoint: "Anchor-2" 364.27 2 basechar 0
AnchorPoint: "Anchor-0" 256.917 0 basechar 0
LayerCount: 2
Fore
SplineSet
396.745117188 793 m 0
 326.814172079 793 287.503300467 834.973309522 287.503300467 901.197128884 c 0
 287.503300467 905.050478152 287.636395233 908.985932337 287.904296875 913 c 1
 324.904296875 913 l 1
 324.809270458 910.965706242 324.762158253 908.969730549 324.762158253 907.012072923 c 0
 324.762158253 857.004024308 355.504699082 832 403.62109375 832 c 0
 453.62109375 832 493.381835938 859 509.904296875 913 c 1
 546.904296875 913 l 1
 526.032226562 840 470.745117188 793 396.745117188 793 c 0
254.095703125 -16 m 0
 114.843751944 -16 38.4736107473 55.6711352329 38.4736107473 181.865045863 c 0
 38.4736107473 202.479947236 40.5116348619 224.549850909 44.646484375 248 c 2
 126.286132812 711 l 1
 176.286132812 711 l 1
 94.646484375 248 l 2
 91.1136615631 227.964271092 89.36741622 209.214367452 89.36741622 191.799255479 c 0
 89.36741622 89.2643789424 149.900938385 33 262.736328125 33 c 0
 393.736328125 33 481.313476562 110 505.646484375 248 c 2
 587.286132812 711 l 1
 637.286132812 711 l 1
 555.646484375 248 l 2
 526.200195312 81 415.095703125 -16 254.095703125 -16 c 0
EndSplineSet
Validated: 524289
EndChar

StartChar: Ucircumflex
Encoding: 219 219 107
Width: 671
GlyphClass: 2
Flags: HMW
HStem: -16 49<270 401.5 270 416.5> 691 20G<80 130 130 130 541 591 591 591> 786 127<225 359 225 359 313 406 313 448> 882 31<336 336>
VStem: 80 50<248 711> 541 50<248 711>
AnchorPoint: "Anchor-3" 382.109 710 basechar 0
AnchorPoint: "Anchor-2" 364.27 2 basechar 0
AnchorPoint: "Anchor-0" 256.917 0 basechar 0
LayerCount: 2
Fore
SplineSet
284.510742188 786 m 1xec
 394.904296875 913 l 1
 440.904296875 913 l 1xdc
 507.510742188 786 l 1
 465.510742188 786 l 1xec
 412.4375 882 l 1xdc
 326.510742188 786 l 1
 284.510742188 786 l 1xec
254.095703125 -16 m 0
 114.843751944 -16 38.4736107473 55.6711352329 38.4736107473 181.865045863 c 0
 38.4736107473 202.479947236 40.5116348619 224.549850909 44.646484375 248 c 2
 126.286132812 711 l 1
 176.286132812 711 l 1
 94.646484375 248 l 2
 91.1136615631 227.964271092 89.36741622 209.214367452 89.36741622 191.799255479 c 0
 89.36741622 89.2643789424 149.900938385 33 262.736328125 33 c 0
 393.736328125 33 481.313476562 110 505.646484375 248 c 2
 587.286132812 711 l 1
 637.286132812 711 l 1
 555.646484375 248 l 2
 526.200195312 81 415.095703125 -16 254.095703125 -16 c 0
EndSplineSet
Validated: 524289
EndChar

StartChar: Udieresis
Encoding: 220 220 108
Width: 671
GlyphClass: 2
Flags: HMW
HStem: -16 49<270 401.5 270 416.5> 691 20G<80 130 130 130 541 591 591 591> 803 79<238 290 238 290 381 433>
VStem: 80 50<248 711> 238 52<803 882 803 882> 381 52<803 882 803 882> 541 50<248 711>
AnchorPoint: "Anchor-3" 384.843 710 basechar 0
AnchorPoint: "Anchor-2" 367.003 2 basechar 0
AnchorPoint: "Anchor-0" 259.65 0 basechar 0
LayerCount: 2
Fore
SplineSet
303.241210938 803 m 1
 317.170898438 882 l 1
 369.170898438 882 l 1
 355.241210938 803 l 1
 303.241210938 803 l 1
446.241210938 803 m 1
 460.170898438 882 l 1
 512.170898438 882 l 1
 498.241210938 803 l 1
 446.241210938 803 l 1
256.829101562 -16 m 0
 117.577531094 -16 41.2067052185 55.6707433379 41.2067052185 181.864010827 c 0
 41.2067052185 202.47920851 43.244826967 224.549458446 47.3798828125 248 c 2
 129.018554688 711 l 1
 179.018554688 711 l 1
 97.3798828125 248 l 2
 93.8468134151 227.963676753 92.1004480685 209.21325506 92.1004480685 191.797705678 c 0
 92.1004480685 89.2638119901 152.633928758 33 265.46875 33 c 0
 396.46875 33 484.045898438 110 508.379882812 248 c 2
 590.018554688 711 l 1
 640.018554688 711 l 1
 558.379882812 248 l 2
 528.932617188 81 417.829101562 -16 256.829101562 -16 c 0
EndSplineSet
Validated: 524289
Substitution2: "'ss08' Style Set 8 in Latin lookup 41 subtable" Udieresis.ss08
Substitution2: "'aalt' Access All Alternates in Latin lookup 0 subtable" Udieresis.ss08
EndChar

StartChar: Ugrave
Encoding: 217 217 109
Width: 671
GlyphClass: 2
Flags: HMW
HStem: -16 49<270 401.5 270 416.5> 691 20G<80 130 130 130 541 591 591 591> 793 120<233 317 233 357>
VStem: 80 50<248 711> 541 50<248 711>
AnchorPoint: "Anchor-3" 382.109 710 basechar 0
AnchorPoint: "Anchor-2" 364.27 2 basechar 0
AnchorPoint: "Anchor-0" 256.917 0 basechar 0
LayerCount: 2
Fore
SplineSet
377.745117188 793 m 1
 314.904296875 913 l 1
 368.904296875 913 l 1
 417.745117188 793 l 1
 377.745117188 793 l 1
254.095703125 -16 m 0
 114.843751944 -16 38.4736107473 55.6711352329 38.4736107473 181.865045863 c 0
 38.4736107473 202.479947236 40.5116348619 224.549850909 44.646484375 248 c 2
 126.286132812 711 l 1
 176.286132812 711 l 1
 94.646484375 248 l 2
 91.1136615631 227.964271092 89.36741622 209.214367452 89.36741622 191.799255479 c 0
 89.36741622 89.2643789424 149.900938385 33 262.736328125 33 c 0
 393.736328125 33 481.313476562 110 505.646484375 248 c 2
 587.286132812 711 l 1
 637.286132812 711 l 1
 555.646484375 248 l 2
 526.200195312 81 415.095703125 -16 254.095703125 -16 c 0
EndSplineSet
Validated: 524289
EndChar

StartChar: Uhungarumlaut
Encoding: 368 368 110
Width: 671
GlyphClass: 2
Flags: HMW
HStem: -16 49<270 401.5 270 416.5> 691 20G<80 130 130 130 541 591 591 591> 786 120<261 385 261 385 367 385 331 408 367 367>
VStem: 80 50<248 711> 541 50<248 711>
AnchorPoint: "Anchor-3" 382.727 710 basechar 0
AnchorPoint: "Anchor-2" 364.887 2 basechar 0
AnchorPoint: "Anchor-0" 257.534 0 basechar 0
LayerCount: 2
Fore
SplineSet
321.127929688 786 m 1
 412.287109375 906 l 1
 466.287109375 906 l 1
 362.127929688 786 l 1
 321.127929688 786 l 1
427.127929688 786 m 1
 518.287109375 906 l 1
 572.287109375 906 l 1
 468.127929688 786 l 1
 427.127929688 786 l 1
254.712890625 -16 m 0
 115.460939444 -16 39.0907982473 55.6711352329 39.0907982473 181.865045863 c 0
 39.0907982473 202.479947236 41.1288223619 224.549850909 45.263671875 248 c 2
 126.903320312 711 l 1
 176.903320312 711 l 1
 95.263671875 248 l 2
 91.7308490631 227.964271092 89.98460372 209.214367452 89.98460372 191.799255479 c 0
 89.98460372 89.2643789424 150.518125885 33 263.353515625 33 c 0
 394.353515625 33 481.930664062 110 506.263671875 248 c 2
 587.903320312 711 l 1
 637.903320312 711 l 1
 556.263671875 248 l 2
 526.817382812 81 415.712890625 -16 254.712890625 -16 c 0
EndSplineSet
Validated: 524289
EndChar

StartChar: Umacron
Encoding: 362 362 111
Width: 671
GlyphClass: 2
Flags: HMW
HStem: -16 49<270 401.5 270 416.5> 691 20G<80 130 130 130 541 591 591 591> 818 42<208 463 208 463>
VStem: 80 50<248 711> 541 50<248 711>
AnchorPoint: "Anchor-3" 386.782 710 basechar 0
AnchorPoint: "Anchor-2" 368.942 2 basechar 0
AnchorPoint: "Anchor-0" 261.59 0 basechar 0
LayerCount: 2
Fore
SplineSet
277.825195312 818 m 1
 285.231445312 860 l 1
 540.231445312 860 l 1
 532.825195312 818 l 1
 277.825195312 818 l 1
258.768554688 -16 m 0
 119.516984219 -16 43.1461583435 55.6707433379 43.1461583435 181.864010827 c 0
 43.1461583435 202.47920851 45.184280092 224.549458446 49.3193359375 248 c 2
 130.958984375 711 l 1
 180.958984375 711 l 1
 99.3193359375 248 l 2
 95.7865131256 227.964271092 94.0402677825 209.214367452 94.0402677825 191.799255479 c 0
 94.0402677825 89.2643789424 154.573789947 33 267.409179688 33 c 0
 398.409179688 33 485.986328125 110 510.319335938 248 c 2
 591.958984375 711 l 1
 641.958984375 711 l 1
 560.319335938 248 l 2
 530.872070312 81 419.768554688 -16 258.768554688 -16 c 0
EndSplineSet
Validated: 524289
EndChar

StartChar: Uogonek
Encoding: 370 370 112
Width: 671
GlyphClass: 2
Flags: HMW
HStem: -196 40<407 427 407 427.5> -16 49<270 346> 691 20G<80 130 130 130 541 591 591 591>
VStem: 80 50<248 711> 335 46<-136 -116> 541 50<248 711>
AnchorPoint: "Anchor-3" 415.788 710 basechar 0
AnchorPoint: "Anchor-2" 397.948 2 basechar 0
AnchorPoint: "Anchor-0" 290.596 0 basechar 0
LayerCount: 2
Fore
SplineSet
287.774414062 -16 m 0
 148.522843594 -16 72.1520177185 55.6707433379 72.1520177185 181.864010827 c 0
 72.1520177185 202.47920851 74.190139467 224.549458446 78.3251953125 248 c 2
 159.963867188 711 l 1
 209.963867188 711 l 1
 128.325195312 248 l 2
 124.792372501 227.964271092 123.046127158 209.214367452 123.046127158 191.799255479 c 0
 123.046127158 89.2643789424 183.579649322 33 296.415039062 33 c 0
 427.415039062 33 514.9921875 110 539.325195312 248 c 2
 620.963867188 711 l 1
 670.963867188 711 l 1
 589.325195312 248 l 2
 567.284179688 123 499.120117188 37 397.948242188 2 c 1
 361.366210938 -41 l 2
 333.723632812 -73 318.4921875 -97 313.731445312 -124 c 0
 313.234827706 -126.816076209 312.997352348 -129.411866718 312.997352348 -131.800295304 c 0
 312.997352348 -149.767241289 326.435597362 -156 344.088867188 -156 c 0
 364.088867188 -156 381.970703125 -151 395.557617188 -142 c 1
 406.73828125 -175 l 1
 387.446289062 -188 362.036132812 -196 333.036132812 -196 c 0
 292.922703478 -196 264.866564418 -181.697002551 264.866564418 -146.716093459 c 0
 264.866564418 -142.454760359 265.282912616 -137.886570665 266.14453125 -133 c 0
 272.139648438 -99 303.83984375 -61 336.540039062 -23 c 2
 346.65625 -11 l 1
 328.126953125 -14 307.774414062 -16 287.774414062 -16 c 0
EndSplineSet
Validated: 524289
EndChar

StartChar: Uring
Encoding: 366 366 113
Width: 671
GlyphClass: 2
Flags: HMW
HStem: -16 49<270 401.5 270 416.5> 691 20G<80 130 130 130 541 591 591 591> 767 33<322.5 349 322.5 358.5> 889 34<322.5 349>
VStem: 80 50<248 711> 257 34<831.5 858 831.5 867> 380 34<831.5 858> 541 50<248 711>
AnchorPoint: "Anchor-3" 381.228 710 basechar 0
AnchorPoint: "Anchor-2" 363.389 2 basechar 0
AnchorPoint: "Anchor-0" 256.036 0 basechar 0
LayerCount: 2
Fore
SplineSet
391.278320312 767 m 0
 350.689142805 767 324.614757083 791.914651504 324.614757083 829.377939686 c 0
 324.614757083 834.372059173 325.078118809 839.589177507 326.032226562 845 c 0
 333.790039062 889 372.78515625 923 418.78515625 923 c 0
 457.860478761 923 484.32080241 896.184944113 484.32080241 859.364569615 c 0
 484.32080241 854.724084067 483.900515758 849.924677489 483.032226562 845 c 0
 475.09765625 800 436.278320312 767 391.278320312 767 c 0
397.09765625 800 m 0
 423.09765625 800 444.271484375 818 449.032226562 845 c 0
 449.587799188 848.151164378 449.858253935 851.184815892 449.858253935 854.083151546 c 0
 449.858253935 875.098746735 435.638874685 889 412.790039062 889 c 0
 385.790039062 889 364.616210938 871 360.032226562 845 c 0
 359.439704794 841.639581156 359.150589826 838.41857484 359.150589826 835.354332331 c 0
 359.150589826 813.798266598 373.458075094 800 397.09765625 800 c 0
253.21484375 -16 m 0
 113.962707822 -16 37.5918271686 55.6713254062 37.5918271686 181.86554813 c 0
 37.5918271686 202.480305714 39.6298325052 224.550041358 43.7646484375 248 c 2
 125.404296875 711 l 1
 175.404296875 711 l 1
 93.7646484375 248 l 2
 90.2318256256 227.964271092 88.4855802825 209.214367452 88.4855802825 191.799255479 c 0
 88.4855802825 89.2643789424 149.019102447 33 261.854492188 33 c 0
 392.854492188 33 480.431640625 110 504.764648438 248 c 2
 586.404296875 711 l 1
 636.404296875 711 l 1
 554.764648438 248 l 2
 525.318359375 81 414.21484375 -16 253.21484375 -16 c 0
EndSplineSet
Validated: 524289
EndChar

StartChar: Utilde
Encoding: 360 360 114
Width: 671
GlyphClass: 2
Flags: HMW
HStem: -16 49<270 401.5 270 416.5> 691 20G<80 130 130 130 541 591 591 591> 803 35<385 406 385 415.5> 861 35<259 284>
VStem: 80 50<248 711> 190 35<798 798> 437 34<905 905> 541 50<248 711>
AnchorPoint: "Anchor-3" 382.814 710 basechar 0
AnchorPoint: "Anchor-2" 364.976 2 basechar 0
AnchorPoint: "Anchor-0" 257.623 0 basechar 0
LayerCount: 2
Fore
SplineSet
455.212890625 803 m 0
 428.212890625 803 411.15234375 814 394.6796875 834 c 0
 379.853515625 852 368.440429688 861 346.440429688 861 c 0
 318.440429688 861 297.266601562 843 287.33203125 798 c 1
 252.33203125 798 l 1
 267.440429688 861 306.611328125 896 352.611328125 896 c 0xdf
 384.611328125 896 402.142578125 882 419.616210938 862 c 0
 435.442382812 844 446.384765625 838 462.384765625 838 c 0
 488.384765625 838 505.381835938 855 518.198242188 905 c 1
 552.198242188 905 l 1
 536.9140625 841 502.212890625 803 455.212890625 803 c 0
254.801757812 -16 m 0
 115.549621885 -16 39.1787412311 55.6713254062 39.1787412311 181.86554813 c 0
 39.1787412311 202.480305714 41.2167465677 224.550041358 45.3515625 248 c 2
 126.991210938 711 l 1
 176.991210938 711 l 1
 95.3515625 248 l 2
 91.8187396881 227.964271092 90.072494345 209.214367452 90.072494345 191.799255479 c 0
 90.072494345 89.2643789424 150.60601651 33 263.44140625 33 c 0
 394.44140625 33 482.018554688 110 506.3515625 248 c 2
 587.991210938 711 l 1
 637.991210938 711 l 1
 556.3515625 248 l 2
 526.905273438 81 415.801757812 -16 254.801757812 -16 c 0
EndSplineSet
Validated: 524289
EndChar

StartChar: V
Encoding: 86 86 115
Width: 650
GlyphClass: 2
Flags: HMW
HStem: 0 21G<294 294 294 356> 0 54<294 325 325 325 325 356> 690 20G<23 77 77 77 573 628 628 628>
VStem: 23 605<710 710>
AnchorPoint: "Anchor-3" 387.596 710 basechar 0
AnchorPoint: "Anchor-0" 262.404 0 basechar 0
LayerCount: 2
Fore
SplineSet
231.404296875 0 m 1xb0
 85.595703125 710 l 1
 139.595703125 710 l 1
 271.92578125 54 l 1x70
 635.595703125 710 l 1
 690.595703125 710 l 1
 293.404296875 0 l 1
 231.404296875 0 l 1xb0
EndSplineSet
Validated: 524289
EndChar

StartChar: W
Encoding: 87 87 116
Width: 924
GlyphClass: 2
Flags: HMW
HStem: 0 61<236 269 269 269 269 303> 634 76<462 462>
VStem: 41 843<710 710>
AnchorPoint: "Anchor-3" 524.596 710 basechar 0
AnchorPoint: "Anchor-0" 399.404 0 basechar 0
LayerCount: 2
Fore
SplineSet
173.404296875 0 m 1
 103.595703125 710 l 1
 156.595703125 710 l 1
 217.16015625 61 l 1
 493.595703125 710 l 1
 555.595703125 710 l 1
 604.16015625 61 l 1
 892.595703125 710 l 1
 946.595703125 710 l 1
 626.404296875 0 l 1
 558.404296875 0 l 1
 511.1953125 634 l 1
 240.404296875 0 l 1
 173.404296875 0 l 1
EndSplineSet
Validated: 524289
EndChar

StartChar: Wacute
Encoding: 7810 7810 117
Width: 924
GlyphClass: 2
Flags: HMW
HStem: 0 61<236 269 269 269 269 303> 634 76<462 462> 786 120<440 564 440 564>
VStem: 41 843<710 710>
AnchorPoint: "Anchor-3" 507.316 710 basechar 0
AnchorPoint: "Anchor-0" 382.124 0 basechar 0
LayerCount: 2
Fore
SplineSet
498.716796875 786 m 1
 589.875976562 906 l 1
 643.875976562 906 l 1
 539.716796875 786 l 1
 498.716796875 786 l 1
156.124023438 0 m 1
 86.31640625 710 l 1
 139.31640625 710 l 1
 199.879882812 61 l 1
 476.31640625 710 l 1
 538.31640625 710 l 1
 586.879882812 61 l 1
 875.31640625 710 l 1
 929.31640625 710 l 1
 609.124023438 0 l 1
 541.124023438 0 l 1
 493.915039062 634 l 1
 223.124023438 0 l 1
 156.124023438 0 l 1
EndSplineSet
Validated: 524289
EndChar

StartChar: Wcircumflex
Encoding: 372 372 118
Width: 924
GlyphClass: 2
Flags: HMW
HStem: 0 61<236 269 269 269 269 303> 634 76<462 462> 690 20G<41 94 94 94 431 493 493 493 830 884 884 884> 786 127<351 486 351 486 440 532 440 574> 882 31<463 463>
VStem: 41 843<710 710>
AnchorPoint: "Anchor-3" 506.699 710 basechar 0
AnchorPoint: "Anchor-0" 381.507 0 basechar 0
LayerCount: 2
Fore
SplineSet
409.099609375 786 m 1xb4
 520.493164062 913 l 1
 566.493164062 913 l 1xcc
 632.099609375 786 l 1
 590.099609375 786 l 1xb4
 538.02734375 882 l 1xac
 451.099609375 786 l 1
 409.099609375 786 l 1xb4
155.506835938 0 m 1
 85.69921875 710 l 1
 138.69921875 710 l 1
 199.262695312 61 l 1
 475.69921875 710 l 1
 537.69921875 710 l 1
 586.262695312 61 l 1
 874.69921875 710 l 1
 928.69921875 710 l 1
 608.506835938 0 l 1
 540.506835938 0 l 1
 493.297851562 634 l 1
 222.506835938 0 l 1
 155.506835938 0 l 1
EndSplineSet
Validated: 524289
EndChar

StartChar: Wdieresis
Encoding: 7812 7812 119
Width: 924
GlyphClass: 2
Flags: HMW
HStem: 0 61<236 269 269 269 269 303> 634 76<462 462> 803 79<364 416 364 416 508 560>
VStem: 364 52<803 882 803 882> 508 52<803 882 803 882>
AnchorPoint: "Anchor-3" 509.432 710 basechar 0
AnchorPoint: "Anchor-0" 384.24 0 basechar 0
LayerCount: 2
Fore
SplineSet
427.830078125 803 m 1
 441.759765625 882 l 1
 493.759765625 882 l 1
 479.830078125 803 l 1
 427.830078125 803 l 1
571.830078125 803 m 1
 585.759765625 882 l 1
 637.759765625 882 l 1
 623.830078125 803 l 1
 571.830078125 803 l 1
158.240234375 0 m 1
 88.431640625 710 l 1
 141.431640625 710 l 1
 201.99609375 61 l 1
 478.431640625 710 l 1
 540.431640625 710 l 1
 588.99609375 61 l 1
 877.431640625 710 l 1
 931.431640625 710 l 1
 611.240234375 0 l 1
 543.240234375 0 l 1
 496.03125 634 l 1
 225.240234375 0 l 1
 158.240234375 0 l 1
EndSplineSet
Validated: 524289
Substitution2: "'ss08' Style Set 8 in Latin lookup 41 subtable" Wdieresis.ss08
Substitution2: "'aalt' Access All Alternates in Latin lookup 0 subtable" Wdieresis.ss08
EndChar

StartChar: Wgrave
Encoding: 7808 7808 120
Width: 924
GlyphClass: 2
Flags: HMW
HStem: 0 61<236 269 269 269 269 303> 634 76<462 462> 793 120<360 443 360 484>
VStem: 41 843<710 710>
AnchorPoint: "Anchor-3" 506.699 710 basechar 0
AnchorPoint: "Anchor-0" 381.507 0 basechar 0
LayerCount: 2
Fore
SplineSet
502.333984375 793 m 1
 440.493164062 913 l 1
 494.493164062 913 l 1
 543.333984375 793 l 1
 502.333984375 793 l 1
155.506835938 0 m 1
 85.69921875 710 l 1
 138.69921875 710 l 1
 199.262695312 61 l 1
 475.69921875 710 l 1
 537.69921875 710 l 1
 586.262695312 61 l 1
 874.69921875 710 l 1
 928.69921875 710 l 1
 608.506835938 0 l 1
 540.506835938 0 l 1
 493.297851562 634 l 1
 222.506835938 0 l 1
 155.506835938 0 l 1
EndSplineSet
Validated: 524289
EndChar

StartChar: X
Encoding: 88 88 121
Width: 601
GlyphClass: 2
Flags: HMW
HStem: 0 21G<18 18 18 78 522 522 522 582> 690 20G<24 84 84 84 517 576 576 576>
VStem: 18 564<0 0>
AnchorPoint: "Anchor-3" 362.596 710 basechar 0
AnchorPoint: "Anchor-0" 237.404 0 basechar 0
LayerCount: 2
Fore
SplineSet
-44.595703125 0 m 1
 268.352539062 357 l 1
 86.595703125 710 l 1
 146.595703125 710 l 1
 307.229492188 396 l 1
 579.595703125 710 l 1
 638.595703125 710 l 1
 332.352539062 357 l 1
 519.404296875 0 l 1
 459.404296875 0 l 1
 294.475585938 318 l 1
 15.404296875 0 l 1
 -44.595703125 0 l 1
EndSplineSet
Validated: 524289
EndChar

StartChar: Y
Encoding: 89 89 122
Width: 553
GlyphClass: 2
Flags: HMW
HStem: 0 21G<252 252 252 302> 690 20G<-3 56 56 56 497 556 556 556>
VStem: 252 50<0 290 0 290>
AnchorPoint: "Anchor-3" 339.596 710 basechar 0
AnchorPoint: "Anchor-0" 214.404 0 basechar 0
LayerCount: 2
Fore
SplineSet
189.404296875 0 m 1
 240.5390625 290 l 1
 59.595703125 710 l 1
 118.595703125 710 l 1
 274.178710938 339 l 1
 559.595703125 710 l 1
 618.595703125 710 l 1
 290.5390625 290 l 1
 239.404296875 0 l 1
 189.404296875 0 l 1
EndSplineSet
Validated: 524289
EndChar

StartChar: Yacute
Encoding: 221 221 123
Width: 553
GlyphClass: 2
Flags: HMW
HStem: 0 21G<252 252 252 302> 690 20G<-3 56 56 56 497 556 556 556> 786 120<255 379 255 379>
VStem: 252 50<0 290 0 290>
AnchorPoint: "Anchor-3" 322.316 710 basechar 0
AnchorPoint: "Anchor-0" 197.124 0 basechar 0
LayerCount: 2
Fore
SplineSet
313.716796875 786 m 1
 404.875976562 906 l 1
 458.875976562 906 l 1
 354.716796875 786 l 1
 313.716796875 786 l 1
172.124023438 0 m 1
 223.258789062 290 l 1
 42.31640625 710 l 1
 101.31640625 710 l 1
 256.8984375 339 l 1
 542.31640625 710 l 1
 601.31640625 710 l 1
 273.258789062 290 l 1
 222.124023438 0 l 1
 172.124023438 0 l 1
EndSplineSet
Validated: 524289
EndChar

StartChar: Ycircumflex
Encoding: 374 374 124
Width: 553
GlyphClass: 2
Flags: HMW
HStem: 0 21G<252 252 252 302> 690 20G<-3 56 56 56 497 556 556 556> 786 127<166 300 166 300 254 347 254 389> 882 31<277 277>
VStem: 252 50<0 290 0 290>
AnchorPoint: "Anchor-3" 321.699 710 basechar 0
AnchorPoint: "Anchor-0" 196.507 0 basechar 0
LayerCount: 2
Fore
SplineSet
224.099609375 786 m 1xe8
 334.493164062 913 l 1
 380.493164062 913 l 1xd8
 447.099609375 786 l 1
 405.099609375 786 l 1xe8
 352.02734375 882 l 1xd8
 266.099609375 786 l 1
 224.099609375 786 l 1xe8
171.506835938 0 m 1
 222.641601562 290 l 1
 41.69921875 710 l 1
 100.69921875 710 l 1
 256.28125 339 l 1
 541.69921875 710 l 1
 600.69921875 710 l 1
 272.641601562 290 l 1
 221.506835938 0 l 1
 171.506835938 0 l 1
EndSplineSet
Validated: 524289
EndChar

StartChar: Ydieresis
Encoding: 376 376 125
Width: 553
GlyphClass: 2
Flags: HMW
HStem: 0 21G<252 252 252 302> 690 20G<-3 56 56 56 497 556 556 556> 803 79<179 231 179 231 322 374>
VStem: 179 52<803 882 803 882> 252 50<0 290 0 290> 322 52<803 882 803 882>
AnchorPoint: "Anchor-3" 324.432 710 basechar 0
AnchorPoint: "Anchor-0" 199.24 0 basechar 0
LayerCount: 2
Fore
SplineSet
242.830078125 803 m 1
 256.759765625 882 l 1
 308.759765625 882 l 1
 294.830078125 803 l 1
 242.830078125 803 l 1
385.830078125 803 m 1
 399.759765625 882 l 1
 451.759765625 882 l 1
 437.830078125 803 l 1
 385.830078125 803 l 1
174.240234375 0 m 1xe8
 225.375 290 l 1
 44.431640625 710 l 1
 103.431640625 710 l 1
 259.014648438 339 l 1
 544.431640625 710 l 1
 603.431640625 710 l 1
 275.375 290 l 1
 224.240234375 0 l 1
 174.240234375 0 l 1xe8
EndSplineSet
Validated: 524289
Substitution2: "'ss08' Style Set 8 in Latin lookup 41 subtable" Ydieresis.ss08
Substitution2: "'aalt' Access All Alternates in Latin lookup 0 subtable" Ydieresis.ss08
EndChar

StartChar: Ygrave
Encoding: 7922 7922 126
Width: 553
GlyphClass: 2
Flags: HMW
HStem: 0 21G<252 252 252 302> 690 20G<-3 56 56 56 497 556 556 556> 793 120<174 258 174 298>
VStem: 252 50<0 290 0 290>
AnchorPoint: "Anchor-3" 321.699 710 basechar 0
AnchorPoint: "Anchor-0" 196.507 0 basechar 0
LayerCount: 2
Fore
SplineSet
317.333984375 793 m 1
 254.493164062 913 l 1
 308.493164062 913 l 1
 357.333984375 793 l 1
 317.333984375 793 l 1
171.506835938 0 m 1
 222.641601562 290 l 1
 41.69921875 710 l 1
 100.69921875 710 l 1
 256.28125 339 l 1
 541.69921875 710 l 1
 600.69921875 710 l 1
 272.641601562 290 l 1
 221.506835938 0 l 1
 171.506835938 0 l 1
EndSplineSet
Validated: 524289
EndChar

StartChar: uni1EF8
Encoding: 7928 7928 127
Width: 553
GlyphClass: 2
Flags: HMW
HStem: 0 21G<252 252 252 302> 690 20G<-3 56 56 56 497 556 556 556> 803 35<326 347 326 356.5> 861 35<200 225>
VStem: 131 35<798 798> 252 50<0 290 0 290> 378 34<905 905>
AnchorPoint: "Anchor-3" 322.404 710 basechar 0
AnchorPoint: "Anchor-0" 197.212 0 basechar 0
LayerCount: 2
Fore
SplineSet
394.802734375 803 m 0
 367.802734375 803 350.7421875 814 334.268554688 834 c 0
 319.442382812 852 308.029296875 861 286.029296875 861 c 0
 258.029296875 861 236.85546875 843 226.920898438 798 c 1
 191.920898438 798 l 1
 207.029296875 861 246.201171875 896 292.201171875 896 c 0xde
 324.201171875 896 341.732421875 882 359.206054688 862 c 0
 375.032226562 844 385.973632812 838 401.973632812 838 c 0
 427.973632812 838 444.971679688 855 457.788085938 905 c 1
 491.788085938 905 l 1
 476.502929688 841 441.802734375 803 394.802734375 803 c 0
172.211914062 0 m 1
 223.346679688 290 l 1
 42.404296875 710 l 1
 101.404296875 710 l 1
 256.987304688 339 l 1
 542.404296875 710 l 1
 601.404296875 710 l 1
 273.346679688 290 l 1
 222.211914062 0 l 1
 172.211914062 0 l 1
EndSplineSet
Validated: 524289
EndChar

StartChar: Z
Encoding: 90 90 128
Width: 530
GlyphClass: 2
Flags: HMW
HStem: 0 48<85 501 85 501> 662 48<42 435 42 491>
VStem: 29 56<48 48 48 49 48 49> 435 56<662 662>
AnchorPoint: "Anchor-3" 333.596 710 basechar 0
AnchorPoint: "Anchor-0" 208.404 0 basechar 0
LayerCount: 2
Fore
SplineSet
-33.595703125 0 m 1
 -24.9560546875 49 l 1
 489.1328125 662 l 1
 96.1328125 662 l 1
 104.595703125 710 l 1
 553.595703125 710 l 1
 544.956054688 661 l 1
 30.8671875 48 l 1
 446.8671875 48 l 1
 438.404296875 0 l 1
 -33.595703125 0 l 1
EndSplineSet
Validated: 524289
EndChar

StartChar: Zacute
Encoding: 377 377 129
Width: 530
GlyphClass: 2
Flags: HMW
HStem: 0 48<85 501 85 501> 662 48<42 435 42 491> 786 120<249 373 249 373>
VStem: 29 56<48 48 48 49 48 49> 435 56<662 662>
AnchorPoint: "Anchor-3" 316.316 710 basechar 0
AnchorPoint: "Anchor-0" 191.124 0 basechar 0
LayerCount: 2
Fore
SplineSet
307.716796875 786 m 1
 398.875976562 906 l 1
 452.875976562 906 l 1
 348.716796875 786 l 1
 307.716796875 786 l 1
-50.8759765625 0 m 1
 -42.236328125 49 l 1
 471.852539062 662 l 1
 78.8525390625 662 l 1
 87.31640625 710 l 1
 536.31640625 710 l 1
 527.67578125 661 l 1
 13.587890625 48 l 1
 429.587890625 48 l 1
 421.124023438 0 l 1
 -50.8759765625 0 l 1
EndSplineSet
Validated: 524289
EndChar

StartChar: Zcaron
Encoding: 381 381 130
Width: 530
GlyphClass: 2
Flags: HMW
HStem: 0 48<85 501 85 501> 662 48<42 435 42 491> 786 31<271 271 271 294 248 271> 786 127<159 294 159 248>
VStem: 29 56<48 48 48 49 48 49> 435 56<662 662>
AnchorPoint: "Anchor-3" 315.699 710 basechar 0
AnchorPoint: "Anchor-0" 190.507 0 basechar 0
LayerCount: 2
Fore
SplineSet
239.493164062 913 m 1xdc
 281.493164062 913 l 1xdc
 334.565429688 817 l 1xec
 420.493164062 913 l 1
 462.493164062 913 l 1xdc
 352.099609375 786 l 1
 306.099609375 786 l 1xec
 239.493164062 913 l 1xdc
-51.4931640625 0 m 1
 -42.853515625 49 l 1
 471.235351562 662 l 1
 78.2353515625 662 l 1
 86.69921875 710 l 1
 535.69921875 710 l 1
 527.05859375 661 l 1
 12.970703125 48 l 1
 428.970703125 48 l 1
 420.506835938 0 l 1
 -51.4931640625 0 l 1
EndSplineSet
Validated: 524289
EndChar

StartChar: Zdotaccent
Encoding: 379 379 131
Width: 530
GlyphClass: 2
Flags: HMW
HStem: 0 48<85 501 85 501> 662 48<42 435 42 491> 803 79<245 297 245 297>
VStem: 29 56<48 48 48 49 48 49> 245 52<803 882 803 882> 435 56<662 662>
AnchorPoint: "Anchor-3" 318.432 710 basechar 0
AnchorPoint: "Anchor-0" 193.24 0 basechar 0
LayerCount: 2
Fore
SplineSet
308.830078125 803 m 1
 322.759765625 882 l 1
 374.759765625 882 l 1
 360.830078125 803 l 1
 308.830078125 803 l 1
-48.759765625 0 m 1
 -40.1201171875 49 l 1
 473.96875 662 l 1
 80.96875 662 l 1
 89.431640625 710 l 1
 538.431640625 710 l 1
 529.791992188 661 l 1
 15.703125 48 l 1
 431.703125 48 l 1
 423.240234375 0 l 1
 -48.759765625 0 l 1
EndSplineSet
Validated: 524289
Substitution2: "'ss08' Style Set 8 in Latin lookup 41 subtable" Zdotaccent.ss08
Substitution2: "'aalt' Access All Alternates in Latin lookup 0 subtable" Zdotaccent.ss08
EndChar

StartChar: uniA78B
Encoding: 42891 42891 132
Width: 148
GlyphClass: 1
Flags: HMW
HStem: 690 20G<48 100 100 100>
VStem: 48 52<630 710 630 710>
LayerCount: 2
Fore
SplineSet
24.4072265625 363 m 1
 64.486328125 630 l 1
 78.5927734375 710 l 1
 130.592773438 710 l 1
 116.486328125 630 l 1
 62.4072265625 363 l 1
 24.4072265625 363 l 1
EndSplineSet
Validated: 524289
EndChar

StartChar: uni013B.loclMAH
Encoding: 65538 -1 133
Width: 560
GlyphClass: 2
Flags: HMW
HStem: -110 62<273 301 273 340> 0 48<145 518 145 518> 690 20G<95 145 145 145>
VStem: 95 50<48 710 48 710 48 710> 273 67<-104 -48 -104 -48 -104 -48>
AnchorPoint: "Anchor-4" 400.873 530 basechar 0
AnchorPoint: "Anchor-3" 199.611 710 basechar 0
AnchorPoint: "Anchor-1" 172.424 380 basechar 0
AnchorPoint: "Anchor-0" 226.389 -193 basechar 0
LayerCount: 2
Fore
SplineSet
49.419921875 0 m 1
 174.611328125 710 l 1
 224.611328125 710 l 1
 107.8828125 48 l 1
 480.8828125 48 l 1
 472.419921875 0 l 1
 49.419921875 0 l 1
179.388671875 -193 m 1
 236.0234375 -110 l 1
 208.0234375 -110 l 1
 218.956054688 -48 l 1
 285.956054688 -48 l 1
 276.081054688 -104 l 1
 213.388671875 -193 l 1
 179.388671875 -193 l 1
EndSplineSet
Validated: 524289
EndChar

StartChar: uni0145.loclMAH
Encoding: 65539 -1 134
Width: 722
GlyphClass: 2
Flags: HMW
HStem: -110 62<327 355 327 394> 0 49<553 577 577 577 577 627> 657 53<145 145>
VStem: 95 50<0 657 0 710> 327 67<-104 -48 -104 -48 -104 -48> 577 50<49 710 0 710>
AnchorPoint: "Anchor-3" 445.611 710 basechar 0
AnchorPoint: "Anchor-0" 281.389 -193 basechar 0
LayerCount: 2
Fore
SplineSet
49.419921875 0 m 1
 174.611328125 710 l 1
 246.611328125 710 l 1
 540.059570312 49 l 1
 656.611328125 710 l 1
 706.611328125 710 l 1
 581.419921875 0 l 1
 507.419921875 0 l 1
 215.266601562 657 l 1
 99.419921875 0 l 1
 49.419921875 0 l 1
233.388671875 -193 m 1
 290.0234375 -110 l 1
 262.0234375 -110 l 1
 272.956054688 -48 l 1
 339.956054688 -48 l 1
 330.081054688 -104 l 1
 267.388671875 -193 l 1
 233.388671875 -193 l 1
EndSplineSet
Validated: 524289
EndChar

StartChar: R.ss04
Encoding: 65540 -1 135
Width: 645
GlyphClass: 2
Flags: HMW
HStem: 0 21G<95 95 95 145 533 533 533 587> 303 48<145 338 145 338 338 359> 662 48<145 338 145 145>
VStem: 95 50<0 303 351 662> 529 52<453.5 553>
AnchorPoint: "Anchor-3" 385.596 710 basechar 0
AnchorPoint: "Anchor-0" 260.404 0 basechar 0
LayerCount: 2
Fore
SplineSet
32.404296875 0 m 1
 157.595703125 710 l 1
 400.595703125 710 l 2
 533.54654954 710 610.77526181 647.937854336 610.77526181 544.006409345 c 0
 610.77526181 530.678602748 609.50526618 516.662272083 606.919921875 502 c 0
 589.111328125 401 513.591796875 330 402.065429688 310 c 1
 524.404296875 0 l 1
 470.404296875 0 l 1
 349.831054688 303 l 1
 343.831054688 303 335.831054688 303 328.831054688 303 c 2
 135.831054688 303 l 1
 82.404296875 0 l 1
 32.404296875 0 l 1
144.294921875 351 m 1
 337.294921875 351 l 2
 459.294921875 351 537.81640625 405 554.919921875 502 c 0
 557.049241105 514.075969754 558.102674279 525.535207674 558.102674279 536.354481387 c 0
 558.102674279 616.920491108 499.689005539 662 392.1328125 662 c 2
 199.1328125 662 l 1
 144.294921875 351 l 1
EndSplineSet
Validated: 524289
EndChar

StartChar: Racute.ss04
Encoding: 65541 -1 136
Width: 645
GlyphClass: 2
Flags: HMW
HStem: 0 21G<95 95 95 145 533 533 533 587> 303 48<145 338 145 338 338 359> 662 48<145 338 145 145> 786 120<301 425 301 425>
VStem: 95 50<0 303 351 662> 529 52<453.5 553>
AnchorPoint: "Anchor-3" 368.316 710 basechar 0
AnchorPoint: "Anchor-0" 243.124 0 basechar 0
LayerCount: 2
Fore
SplineSet
359.716796875 786 m 1
 450.875976562 906 l 1
 504.875976562 906 l 1
 400.716796875 786 l 1
 359.716796875 786 l 1
15.1240234375 0 m 1
 140.31640625 710 l 1
 383.31640625 710 l 2
 516.267102549 710 593.495023353 647.937994486 593.495023353 544.006761395 c 0
 593.495023353 530.678849573 592.225015506 516.662401183 589.639648438 502 c 0
 571.831054688 401 496.311523438 330 384.78515625 310 c 1
 507.124023438 0 l 1
 453.124023438 0 l 1
 332.55078125 303 l 1
 326.55078125 303 318.55078125 303 311.55078125 303 c 2
 118.55078125 303 l 1
 65.1240234375 0 l 1
 15.1240234375 0 l 1
127.014648438 351 m 1
 320.014648438 351 l 2
 442.014648438 351 520.536132812 405 537.639648438 502 c 0
 539.768967668 514.075969754 540.822400842 525.535207674 540.822400842 536.354481387 c 0
 540.822400842 616.920491108 482.408732102 662 374.852539062 662 c 2
 181.852539062 662 l 1
 127.014648438 351 l 1
EndSplineSet
Validated: 524289
EndChar

StartChar: Rcaron.ss04
Encoding: 65542 -1 137
Width: 645
GlyphClass: 2
Flags: HMW
HStem: 0 21G<95 95 95 145 533 533 533 587> 303 48<145 338 145 338 338 359> 662 48<145 338 145 145> 786 31<323 323 323 346 300 323> 786 127<211 346 211 300>
VStem: 95 50<0 303 351 662> 529 52<453.5 553>
AnchorPoint: "Anchor-3" 367.699 710 basechar 0
AnchorPoint: "Anchor-0" 242.507 0 basechar 0
LayerCount: 2
Fore
SplineSet
291.493164062 913 m 1xee
 333.493164062 913 l 1xee
 386.565429688 817 l 1xf6
 472.493164062 913 l 1
 514.493164062 913 l 1xee
 404.099609375 786 l 1
 358.099609375 786 l 1xf6
 291.493164062 913 l 1xee
14.5068359375 0 m 1
 139.69921875 710 l 1
 382.69921875 710 l 2
 515.649479866 710 592.878097454 647.938400777 592.878097454 544.007781979 c 0
 592.878097454 530.679565112 591.608004999 516.662775441 589.022460938 502 c 0
 571.213867188 401 495.694335938 330 384.16796875 310 c 1
 506.506835938 0 l 1
 452.506835938 0 l 1
 331.93359375 303 l 1
 325.93359375 303 317.93359375 303 310.93359375 303 c 2
 117.93359375 303 l 1
 64.5068359375 0 l 1
 14.5068359375 0 l 1
126.397460938 351 m 1
 319.397460938 351 l 2
 441.397460938 351 519.918945312 405 537.022460938 502 c 0
 539.151780168 514.075969754 540.205213342 525.535207674 540.205213342 536.354481387 c 0
 540.205213342 616.920491108 481.791544602 662 374.235351562 662 c 2
 181.235351562 662 l 1
 126.397460938 351 l 1
EndSplineSet
Validated: 524289
EndChar

StartChar: uni0156.ss04
Encoding: 65543 -1 138
Width: 645
GlyphClass: 2
Flags: HMW
HStem: -110 62<289 317 289 356> 0 21G<95 95 95 145 533 533 533 587> 303 48<145 338 145 338 338 359> 662 48<145 338 145 145>
VStem: 95 50<0 303 351 662> 289 67<-104 -48 -104 -48 -104 -48> 529 52<453.5 553>
AnchorPoint: "Anchor-3" 402.611 710 basechar 0
AnchorPoint: "Anchor-0" 243.389 -193 basechar 0
LayerCount: 2
Fore
SplineSet
49.419921875 0 m 1
 174.611328125 710 l 1
 417.611328125 710 l 2
 550.56217454 710 627.79088681 647.937854336 627.79088681 544.006409345 c 0
 627.79088681 530.678602748 626.52089118 516.662272083 623.935546875 502 c 0
 606.126953125 401 530.607421875 330 419.081054688 310 c 1
 541.419921875 0 l 1
 487.419921875 0 l 1
 366.846679688 303 l 1
 360.846679688 303 352.846679688 303 345.846679688 303 c 2
 152.846679688 303 l 1
 99.419921875 0 l 1
 49.419921875 0 l 1
161.310546875 351 m 1
 354.310546875 351 l 2
 476.310546875 351 554.83203125 405 571.935546875 502 c 0
 574.064841713 514.07583142 575.118261456 525.534945135 575.118261456 536.354109571 c 0
 575.118261456 616.920352412 516.703819435 662 409.147460938 662 c 2
 216.147460938 662 l 1
 161.310546875 351 l 1
195.388671875 -193 m 1
 252.0234375 -110 l 1
 224.0234375 -110 l 1
 234.956054688 -48 l 1
 301.956054688 -48 l 1
 292.081054688 -104 l 1
 229.388671875 -193 l 1
 195.388671875 -193 l 1
EndSplineSet
Validated: 524289
EndChar

StartChar: I.ss05
Encoding: 65544 -1 139
Width: 355
GlyphClass: 2
Flags: HMW
HStem: 0 48<48 153 48 153 203 307> 662 48<54 153 54 301 203 203 203 301>
VStem: 48 155<0 662 48 662> 153 50<48 662 48 662> 153 154<0 662>
AnchorPoint: "Anchor-3" 240.596 710 basechar 0
AnchorPoint: "Anchor-2" 244.404 0 basechar 0
AnchorPoint: "Anchor-0" 115.404 0 basechar 0
LayerCount: 2
Fore
SplineSet
-14.595703125 0 m 1xe0
 -6.1328125 48 l 1xe0
 98.8671875 48 l 1
 207.1328125 662 l 1
 108.1328125 662 l 1
 116.595703125 710 l 1
 363.595703125 710 l 1
 355.1328125 662 l 1
 257.1328125 662 l 1
 148.8671875 48 l 1xd0
 252.8671875 48 l 1
 244.404296875 0 l 1xc8
 -14.595703125 0 l 1xe0
EndSplineSet
Validated: 524289
EndChar

StartChar: Iacute.ss05
Encoding: 65545 -1 140
Width: 355
GlyphClass: 2
Flags: HMW
HStem: 0 48<48 153 48 153 203 307> 662 48<54 153 54 301 203 203 203 301> 786 120<156 280 156 280>
VStem: 48 155<0 662 48 662> 153 50<48 662 48 662> 153 154<0 662>
AnchorPoint: "Anchor-3" 223.316 710 basechar 0
AnchorPoint: "Anchor-2" 227.124 0 basechar 0
AnchorPoint: "Anchor-0" 98.124 0 basechar 0
LayerCount: 2
Fore
SplineSet
214.716796875 786 m 1xf0
 305.875976562 906 l 1
 359.875976562 906 l 1
 255.716796875 786 l 1
 214.716796875 786 l 1xf0
-31.8759765625 0 m 1
 -23.412109375 48 l 1xd0
 81.587890625 48 l 1
 189.852539062 662 l 1
 90.8525390625 662 l 1
 99.31640625 710 l 1
 346.31640625 710 l 1
 337.852539062 662 l 1
 239.852539062 662 l 1
 131.587890625 48 l 1xc8
 235.587890625 48 l 1
 227.124023438 0 l 1xc4
 -31.8759765625 0 l 1
EndSplineSet
Validated: 524289
EndChar

StartChar: Icircumflex.ss05
Encoding: 65546 -1 141
Width: 355
GlyphClass: 2
Flags: HMW
HStem: 0 48<48 153 48 153 203 307> 662 48<54 153 54 301 203 203 203 301> 786 127<67 201 67 201 155 248 155 290> 882 31<178 178>
VStem: 48 155<0 662 48 662> 153 50<48 662 48 662> 153 154<0 662>
AnchorPoint: "Anchor-3" 222.699 710 basechar 0
AnchorPoint: "Anchor-2" 226.507 0 basechar 0
AnchorPoint: "Anchor-0" 97.5068 0 basechar 0
LayerCount: 2
Fore
SplineSet
125.099609375 786 m 1xe8
 235.493164062 913 l 1
 281.493164062 913 l 1xd8
 348.099609375 786 l 1
 306.099609375 786 l 1xe8
 253.02734375 882 l 1xd2
 167.099609375 786 l 1
 125.099609375 786 l 1xe8
-32.4931640625 0 m 1
 -24.029296875 48 l 1xc8
 80.970703125 48 l 1
 189.235351562 662 l 1
 90.2353515625 662 l 1
 98.69921875 710 l 1
 345.69921875 710 l 1
 337.235351562 662 l 1
 239.235351562 662 l 1
 130.970703125 48 l 1xc4
 234.970703125 48 l 1
 226.506835938 0 l 1xc2
 -32.4931640625 0 l 1
EndSplineSet
Validated: 524289
EndChar

StartChar: Idieresis.ss05
Encoding: 65547 -1 142
Width: 355
GlyphClass: 2
Flags: HMW
HStem: 0 48<48 153 48 153 203 307> 662 48<54 153 54 301 203 203 203 301> 803 79<80 132 80 132 223 275>
VStem: 48 155<0 662 48 662> 80 52<803 882 803 882> 153 50<48 662 48 662> 153 154<0 662> 223 52<803 882 803 882>
AnchorPoint: "Anchor-3" 225.432 710 basechar 0
AnchorPoint: "Anchor-2" 229.24 0 basechar 0
AnchorPoint: "Anchor-0" 100.24 0 basechar 0
LayerCount: 2
Fore
SplineSet
143.830078125 803 m 1xe9
 157.759765625 882 l 1
 209.759765625 882 l 1
 195.830078125 803 l 1
 143.830078125 803 l 1xe9
286.830078125 803 m 1
 300.759765625 882 l 1
 352.759765625 882 l 1
 338.830078125 803 l 1
 286.830078125 803 l 1
-29.759765625 0 m 1xf0
 -21.296875 48 l 1xf0
 83.703125 48 l 1
 191.96875 662 l 1
 92.96875 662 l 1
 101.431640625 710 l 1
 348.431640625 710 l 1
 339.96875 662 l 1
 241.96875 662 l 1
 133.703125 48 l 1xe4
 237.703125 48 l 1
 229.240234375 0 l 1xe2
 -29.759765625 0 l 1xf0
EndSplineSet
Validated: 524289
Substitution2: "'ss08' Style Set 8 in Latin lookup 41 subtable" Idieresis.ss05.ss08
Substitution2: "'aalt' Access All Alternates in Latin lookup 0 subtable" Idieresis.ss05.ss08
EndChar

StartChar: Idotaccent.ss05
Encoding: 65548 -1 143
Width: 355
GlyphClass: 2
Flags: HMW
HStem: 0 48<48 153 48 153 203 307> 662 48<54 153 54 301 203 203 203 301> 803 79<152 204 152 204>
VStem: 48 155<0 662 48 662> 152 52<803 882 803 882> 153 50<48 662 48 662> 153 154<0 662>
AnchorPoint: "Anchor-3" 225.432 710 basechar 0
AnchorPoint: "Anchor-2" 229.24 0 basechar 0
AnchorPoint: "Anchor-0" 100.24 0 basechar 0
LayerCount: 2
Fore
SplineSet
215.830078125 803 m 1xe8
 229.759765625 882 l 1
 281.759765625 882 l 1
 267.830078125 803 l 1
 215.830078125 803 l 1xe8
-29.759765625 0 m 1xf0
 -21.296875 48 l 1xf0
 83.703125 48 l 1
 191.96875 662 l 1
 92.96875 662 l 1
 101.431640625 710 l 1
 348.431640625 710 l 1
 339.96875 662 l 1
 241.96875 662 l 1
 133.703125 48 l 1xe4
 237.703125 48 l 1
 229.240234375 0 l 1xe2
 -29.759765625 0 l 1xf0
EndSplineSet
Validated: 524289
Substitution2: "'ss08' Style Set 8 in Latin lookup 41 subtable" Idotaccent.ss05.ss08
Substitution2: "'aalt' Access All Alternates in Latin lookup 0 subtable" Idotaccent.ss05.ss08
EndChar

StartChar: Igrave.ss05
Encoding: 65549 -1 144
Width: 355
GlyphClass: 2
Flags: HMW
HStem: 0 48<48 153 48 153 203 307> 662 48<54 153 54 301 203 203 203 301> 793 120<75 159 75 199>
VStem: 48 155<0 662 48 662> 153 50<48 662 48 662> 153 154<0 662>
AnchorPoint: "Anchor-3" 222.699 710 basechar 0
AnchorPoint: "Anchor-2" 226.507 0 basechar 0
AnchorPoint: "Anchor-0" 97.5068 0 basechar 0
LayerCount: 2
Fore
SplineSet
218.333984375 793 m 1xf0
 155.493164062 913 l 1
 209.493164062 913 l 1
 258.333984375 793 l 1
 218.333984375 793 l 1xf0
-32.4931640625 0 m 1
 -24.029296875 48 l 1xd0
 80.970703125 48 l 1
 189.235351562 662 l 1
 90.2353515625 662 l 1
 98.69921875 710 l 1
 345.69921875 710 l 1
 337.235351562 662 l 1
 239.235351562 662 l 1
 130.970703125 48 l 1xc8
 234.970703125 48 l 1
 226.506835938 0 l 1xc4
 -32.4931640625 0 l 1
EndSplineSet
Validated: 524289
EndChar

StartChar: Imacron.ss05
Encoding: 65550 -1 145
Width: 355
GlyphClass: 2
Flags: HMW
HStem: 0 48<48 153 48 153 203 307> 662 48<54 153 54 301 203 203 203 301> 818 42<50 305 50 305>
VStem: 48 155<0 662 48 662> 153 50<48 662 48 662> 153 154<0 662>
AnchorPoint: "Anchor-3" 227.371 710 basechar 0
AnchorPoint: "Anchor-2" 231.18 0 basechar 0
AnchorPoint: "Anchor-0" 102.18 0 basechar 0
LayerCount: 2
Fore
SplineSet
118.415039062 818 m 1xf0
 125.8203125 860 l 1
 380.8203125 860 l 1
 373.415039062 818 l 1
 118.415039062 818 l 1xf0
-27.8203125 0 m 1
 -19.3564453125 48 l 1xf0
 85.6435546875 48 l 1
 193.908203125 662 l 1
 94.908203125 662 l 1
 103.37109375 710 l 1
 350.37109375 710 l 1
 341.908203125 662 l 1
 243.908203125 662 l 1
 135.643554688 48 l 1xe8
 239.643554688 48 l 1
 231.1796875 0 l 1xe4
 -27.8203125 0 l 1
EndSplineSet
Validated: 524289
EndChar

StartChar: Iogonek.ss05
Encoding: 65551 -1 146
Width: 355
GlyphClass: 2
Flags: HMW
HStem: -198 40<271 291 271 291.5> 0 48<48 153 48 153 203 267> 662 48<54 153 54 301 203 203 203 301>
VStem: 48 155<0 662 48 662> 153 50<48 662 48 662> 153 154<0 662> 199 46<-137.5 -118>
AnchorPoint: "Anchor-3" 258.053 710 basechar 0
AnchorPoint: "Anchor-2" 261.86 0 basechar 0
AnchorPoint: "Anchor-0" 132.86 0 basechar 0
LayerCount: 2
Fore
SplineSet
2.8603515625 0 m 1xf0
 11.32421875 48 l 1xf0
 116.32421875 48 l 1
 224.588867188 662 l 1
 125.588867188 662 l 1
 134.052734375 710 l 1
 381.052734375 710 l 1
 372.588867188 662 l 1
 274.588867188 662 l 1
 166.32421875 48 l 1xe8
 270.32421875 48 l 1
 261.860351562 0 l 1xe4
 225.278320312 -43 l 2
 197.8125 -74 182.404296875 -99 177.819335938 -125 c 0
 177.284721898 -128.031927207 177.029533642 -130.813816167 177.029533642 -133.361720716 c 0
 177.029533642 -151.822768355 190.426518328 -158 208.000976562 -158 c 0
 228.000976562 -158 246.05859375 -152 259.645507812 -143 c 1
 270.650390625 -177 l 1
 251.358398438 -190 225.947265625 -198 196.947265625 -198 c 0
 156.765599242 -198 128.823211351 -182.85098274 128.823211351 -148.281279744 c 0
 128.823211351 -144.135897607 129.225003423 -139.711259537 130.055664062 -135 c 0xe2
 136.05078125 -101 167.751953125 -63 200.452148438 -25 c 2
 221.860351562 0 l 1
 2.8603515625 0 l 1xf0
EndSplineSet
Validated: 524289
EndChar

StartChar: Itilde.ss05
Encoding: 65552 -1 147
Width: 355
GlyphClass: 2
Flags: HMW
HStem: 0 48<48 153 48 153 203 307> 662 48<54 153 54 301 203 203 203 301> 803 35<227 248 227 257.5> 861 35<101 126>
VStem: 32 35<798 798> 48 155<0 662 48 662> 153 50<48 662 48 662> 153 154<0 662> 279 34<905 905>
AnchorPoint: "Anchor-3" 223.404 710 basechar 0
AnchorPoint: "Anchor-2" 227.212 0 basechar 0
AnchorPoint: "Anchor-0" 98.2119 0 basechar 0
LayerCount: 2
Fore
SplineSet
295.802734375 803 m 0xea80
 268.802734375 803 251.7421875 814 235.268554688 834 c 0
 220.442382812 852 209.029296875 861 187.029296875 861 c 0
 159.029296875 861 137.85546875 843 127.920898438 798 c 1
 92.9208984375 798 l 1
 108.029296875 861 147.201171875 896 193.201171875 896 c 0xda80
 225.201171875 896 242.732421875 882 260.206054688 862 c 0
 276.032226562 844 286.973632812 838 302.973632812 838 c 0
 328.973632812 838 345.971679688 855 358.788085938 905 c 1
 392.788085938 905 l 1
 377.502929688 841 342.802734375 803 295.802734375 803 c 0xea80
-31.7880859375 0 m 1xd480
 -23.32421875 48 l 1xd480
 81.67578125 48 l 1
 189.940429688 662 l 1
 90.9404296875 662 l 1
 99.404296875 710 l 1
 346.404296875 710 l 1
 337.940429688 662 l 1
 239.940429688 662 l 1
 131.67578125 48 l 1xda80
 235.67578125 48 l 1
 227.211914062 0 l 1xd9
 -31.7880859375 0 l 1xd480
EndSplineSet
Validated: 524289
EndChar

StartChar: G.ss06
Encoding: 65553 -1 148
Width: 673
GlyphClass: 2
Flags: HMW
HStem: -16 49<269 424 269 439> 294 46<358 582 358 630> 677 49<275 419>
VStem: 48 53<257.5 453.5 257.5 468> 582 48<294 294>
AnchorPoint: "Anchor-3" 419.596 710 basechar 0
AnchorPoint: "Anchor-0" 293.404 0 basechar 0
LayerCount: 2
Fore
SplineSet
284.583007812 -16 m 0
 125.43646229 -16 38.555232759 88.2289010356 38.555232759 254.296589095 c 0
 38.555232759 285.44834391 41.612410657 318.776082812 47.8232421875 354 c 0
 88.0263671875 582 230.416992188 726 423.416992188 726 c 0
 568.416992188 726 648.724609375 637 650.922851562 485 c 1
 598.041015625 480 l 1
 596.729492188 603 536.77734375 677 414.77734375 677 c 0
 248.77734375 677 135.913085938 553 100.823242188 354 c 0
 94.9377784253 320.621058506 91.9973476373 289.186330086 91.9973476373 260.021716197 c 0
 91.9973476373 120.553946059 159.240213359 33 293.22265625 33 c 0
 441.22265625 33 543.265625 141 571.244140625 294 c 1
 347.244140625 294 l 1
 355.35546875 340 l 1
 627.35546875 340 l 1
 621.888671875 309 l 2
 587.15234375 112 462.583007812 -16 284.583007812 -16 c 0
EndSplineSet
Validated: 524289
EndChar

StartChar: Gbreve.ss06
Encoding: 65554 -1 149
Width: 673
GlyphClass: 2
Flags: HMW
HStem: -16 49<269 424 269 439> 294 46<358 582 358 630> 677 49<275 419> 793 39<332 382 332 394>
VStem: 48 53<257.5 453.5 257.5 468> 582 48<294 294>
AnchorPoint: "Anchor-3" 403.109 710 basechar 0
AnchorPoint: "Anchor-0" 276.917 0 basechar 0
LayerCount: 2
Fore
SplineSet
417.745117188 793 m 0
 347.903341378 793 309.49437436 834.86633701 309.49437436 900.943920233 c 0
 309.49437436 904.878032758 309.630524434 908.897968028 309.904296875 913 c 1
 345.904296875 913 l 1
 344.381835938 859 374.62109375 832 424.62109375 832 c 0
 474.62109375 832 514.381835938 859 530.904296875 913 c 1
 567.904296875 913 l 1
 547.032226562 840 491.745117188 793 417.745117188 793 c 0
268.095703125 -16 m 0
 108.949357947 -16 22.0688392359 88.2286386149 22.0688392359 254.295961924 c 0
 22.0688392359 285.44789659 25.1260408515 318.775846427 31.3369140625 354 c 0
 71.5400390625 582 213.930664062 726 406.930664062 726 c 0
 551.930664062 726 632.237304688 637 634.435546875 485 c 1
 581.5546875 480 l 1
 580.2421875 603 520.291015625 677 398.291015625 677 c 0
 232.291015625 677 119.42578125 553 84.3369140625 354 c 0
 78.4512141423 320.620677036 75.5106729321 289.185611586 75.5106729321 260.02071628 c 0
 75.5106729321 120.55352758 142.754205431 33 276.736328125 33 c 0
 424.736328125 33 526.779296875 141 554.7578125 294 c 1
 330.7578125 294 l 1
 338.868164062 340 l 1
 610.868164062 340 l 1
 605.40234375 309 l 2
 570.666015625 112 446.095703125 -16 268.095703125 -16 c 0
EndSplineSet
Validated: 524321
EndChar

StartChar: Gcircumflex.ss06
Encoding: 65555 -1 150
Width: 673
GlyphClass: 2
Flags: HMW
HStem: -16 49<269 424 269 439> 294 46<358 582 358 630> 677 49<275 419> 786 127<246 381 246 381 335 427 335 469> 882 31<358 358>
VStem: 48 53<257.5 453.5 257.5 468> 582 48<294 294>
AnchorPoint: "Anchor-3" 403.109 710 basechar 0
AnchorPoint: "Anchor-0" 276.917 0 basechar 0
LayerCount: 2
Fore
SplineSet
305.510742188 786 m 1xf6
 416.904296875 913 l 1
 462.904296875 913 l 1xee
 528.510742188 786 l 1
 486.510742188 786 l 1xf6
 434.4375 882 l 1xee
 347.510742188 786 l 1
 305.510742188 786 l 1xf6
268.095703125 -16 m 0
 108.949357947 -16 22.0688392359 88.2286386149 22.0688392359 254.295961924 c 0
 22.0688392359 285.44789659 25.1260408515 318.775846427 31.3369140625 354 c 0
 71.5400390625 582 213.930664062 726 406.930664062 726 c 0
 551.930664062 726 632.237304688 637 634.435546875 485 c 1
 581.5546875 480 l 1
 580.2421875 603 520.291015625 677 398.291015625 677 c 0
 232.291015625 677 119.42578125 553 84.3369140625 354 c 0
 78.4512141423 320.620677036 75.5106729321 289.185611586 75.5106729321 260.02071628 c 0
 75.5106729321 120.55352758 142.754205431 33 276.736328125 33 c 0
 424.736328125 33 526.779296875 141 554.7578125 294 c 1
 330.7578125 294 l 1
 338.868164062 340 l 1
 610.868164062 340 l 1
 605.40234375 309 l 2
 570.666015625 112 446.095703125 -16 268.095703125 -16 c 0
EndSplineSet
Validated: 524289
EndChar

StartChar: uni0122.ss06
Encoding: 65556 -1 151
Width: 673
GlyphClass: 2
Flags: HMW
HStem: -110 62<322 350 322 389> -16 49<269 424 269 439> 294 46<358 582 358 630> 677 49<275 419>
VStem: 48 53<257.5 453.5 257.5 468> 322 67<-104 -48 -104 -48 -104 -48> 582 48<294 294>
AnchorPoint: "Anchor-3" 435.201 710 basechar 0
AnchorPoint: "Anchor-0" 274.978 -193 basechar 0
LayerCount: 2
Fore
SplineSet
300.1875 -16 m 0
 141.041488482 -16 54.1603079942 88.2282015722 54.1603079942 254.294917414 c 0
 54.1603079942 285.447151609 57.2176140551 318.775452743 63.4287109375 354 c 0
 103.630859375 582 246.022460938 726 439.022460938 726 c 0
 584.022460938 726 664.329101562 637 666.52734375 485 c 1
 613.645507812 480 l 1
 612.333984375 603 552.381835938 677 430.381835938 677 c 0
 264.381835938 677 151.517578125 553 116.428710938 354 c 0
 110.543011017 320.620677036 107.602469807 289.185611586 107.602469807 260.02071628 c 0
 107.602469807 120.55352758 174.846002306 33 308.828125 33 c 0
 456.828125 33 558.87109375 141 586.848632812 294 c 1
 362.848632812 294 l 1
 370.959960938 340 l 1
 642.959960938 340 l 1
 637.494140625 309 l 2
 602.7578125 112 478.1875 -16 300.1875 -16 c 0
226.977539062 -193 m 1
 283.61328125 -110 l 1
 255.61328125 -110 l 1
 266.544921875 -48 l 1
 333.544921875 -48 l 1
 323.670898438 -104 l 1
 260.977539062 -193 l 1
 226.977539062 -193 l 1
EndSplineSet
Validated: 524289
EndChar

StartChar: Gdotaccent.ss06
Encoding: 65557 -1 152
Width: 673
GlyphClass: 2
Flags: HMW
HStem: -16 49<269 424 269 439> 294 46<358 582 358 630> 677 49<275 419> 803 79<331 383 331 383>
VStem: 48 53<257.5 453.5 257.5 468> 331 52<803 882 803 882> 582 48<294 294>
AnchorPoint: "Anchor-3" 405.843 710 basechar 0
AnchorPoint: "Anchor-0" 279.65 0 basechar 0
LayerCount: 2
Fore
SplineSet
396.241210938 803 m 1
 410.170898438 882 l 1
 462.170898438 882 l 1
 448.241210938 803 l 1
 396.241210938 803 l 1
270.829101562 -16 m 0
 111.683090045 -16 24.8019095567 88.2282015722 24.8019095567 254.294917414 c 0
 24.8019095567 285.447151609 27.8592156176 318.775452743 34.0703125 354 c 0
 74.2724609375 582 216.6640625 726 409.6640625 726 c 0
 554.6640625 726 634.970703125 637 637.168945312 485 c 1
 584.287109375 480 l 1
 582.975585938 603 523.0234375 677 401.0234375 677 c 0
 235.0234375 677 122.159179688 553 87.0703125 354 c 0
 81.1845642243 320.6204028 78.2439938411 289.18509506 78.2439938411 260.019997445 c 0
 78.2439938411 120.553226737 145.486857494 33 279.46875 33 c 0
 427.46875 33 529.512695312 141 557.490234375 294 c 1
 333.490234375 294 l 1
 341.6015625 340 l 1
 613.6015625 340 l 1
 608.135742188 309 l 2
 573.399414062 112 448.829101562 -16 270.829101562 -16 c 0
EndSplineSet
Validated: 524289
Substitution2: "'ss08' Style Set 8 in Latin lookup 41 subtable" Gdotaccent.ss06.ss08
Substitution2: "'aalt' Access All Alternates in Latin lookup 0 subtable" Gdotaccent.ss06.ss08
EndChar

StartChar: uni1E20.ss06
Encoding: 65558 -1 153
Width: 673
GlyphClass: 2
Flags: HMW
HStem: -16 49<269 424 269 439> 294 46<358 582 358 630> 677 49<275 419> 818 42<230 484 230 484>
VStem: 48 53<257.5 453.5 257.5 468> 582 48<294 294>
AnchorPoint: "Anchor-3" 407.782 710 basechar 0
AnchorPoint: "Anchor-0" 281.59 0 basechar 0
LayerCount: 2
Fore
SplineSet
299.825195312 818 m 1
 307.231445312 860 l 1
 561.231445312 860 l 1
 553.825195312 818 l 1
 299.825195312 818 l 1
272.768554688 -16 m 0
 113.62254317 -16 26.7413626817 88.2282015722 26.7413626817 254.294917414 c 0
 26.7413626817 285.447151609 29.7986687426 318.775452743 36.009765625 354 c 0
 76.2119140625 582 218.603515625 726 411.603515625 726 c 0
 556.603515625 726 636.91015625 637 639.108398438 485 c 1
 586.2265625 480 l 1
 584.915039062 603 524.963867188 677 402.963867188 677 c 0
 236.963867188 677 124.098632812 553 89.009765625 354 c 0
 83.1240657048 320.620677036 80.1835244946 289.185611586 80.1835244946 260.02071628 c 0
 80.1835244946 120.55352758 147.427056994 33 281.409179688 33 c 0
 429.409179688 33 531.452148438 141 559.4296875 294 c 1
 335.4296875 294 l 1
 343.541015625 340 l 1
 615.541015625 340 l 1
 610.075195312 309 l 2
 575.338867188 112 450.768554688 -16 272.768554688 -16 c 0
EndSplineSet
Validated: 524289
EndChar

StartChar: Adieresis.ss08
Encoding: 65559 -1 154
Width: 631
GlyphClass: 2
Flags: HMW
HStem: 0 21G<23 23 23 76 555 555 555 608> 224 48<174 457 174 474 157 457> 664 46<315 315> 806 71<222.5 241.5 389.5 408>
VStem: 199 66<830 852> 365 67<830 852>
AnchorPoint: "Anchor-3" 362.873 710 basechar 0
AnchorPoint: "Anchor-2" 530.681 0 basechar 0
AnchorPoint: "Anchor-0" 237.681 0 basechar 0
LayerCount: 2
Fore
SplineSet
296.799804688 806 m 0
 280.248015348 806 269.230836363 815.865657879 269.230836363 832.95253168 c 0
 269.230836363 835.479887831 269.471870233 838.165229762 269.971679688 841 c 0
 273.850585938 863 290.319335938 877 309.319335938 877 c 0
 325.845057108 877 336.72060766 866.408885199 336.72060766 849.174606202 c 0
 336.72060766 846.594240043 336.476811036 843.864954434 335.971679688 841 c 0
 332.092773438 819 315.799804688 806 296.799804688 806 c 0
463.799804688 806 m 0
 447.108596352 806 435.27389401 816.032558627 435.27389401 833.385845497 c 0
 435.27389401 835.786218391 435.500333034 838.326662284 435.971679688 841 c 0
 439.850585938 863 457.319335938 877 476.319335938 877 c 0
 492.100830649 877 503.678551665 866.238339337 503.678551665 848.758710651 c 0
 503.678551665 846.301487847 503.449756022 843.711506463 502.971679688 841 c 0
 499.092773438 819 481.799804688 806 463.799804688 806 c 0
-54.3193359375 0 m 1
 330.873046875 710 l 1
 394.873046875 710 l 1
 530.680664062 0 l 1
 477.680664062 0 l 1
 436.177734375 224 l 1
 119.177734375 224 l 1
 -1.3193359375 0 l 1
 -54.3193359375 0 l 1
144.641601562 272 m 1
 427.641601562 272 l 1
 354.76171875 664 l 1
 144.641601562 272 l 1
EndSplineSet
Validated: 524289
EndChar

StartChar: Cdotaccent.ss08
Encoding: 65560 -1 155
Width: 685
GlyphClass: 2
Flags: HMW
HStem: -16 49<276.5 421 276.5 434> 677 49<276.5 418> 806 71<343.5 362.5>
VStem: 48 53<254 454 254 469> 320 66<830 852>
AnchorPoint: "Anchor-3" 402.283 710 basechar 0
AnchorPoint: "Anchor-0" 278.091 0 basechar 0
LayerCount: 2
Fore
SplineSet
419.2109375 806 m 0
 402.659004701 806 391.641037074 815.865828898 391.641037074 832.952975974 c 0
 391.641037074 835.480202541 391.882055771 838.165395873 392.381835938 841 c 0
 396.26171875 863 412.73046875 877 431.73046875 877 c 0
 448.255701744 877 459.131097931 866.409510922 459.131097931 849.176133508 c 0
 459.131097931 846.595317017 458.887194147 843.865519691 458.381835938 841 c 0
 454.502929688 819 438.2109375 806 419.2109375 806 c 0
274.26953125 -16 m 0
 118.296590484 -16 25.3316544075 84.5983623337 25.3316544075 255.339686362 c 0
 25.3316544075 286.020503039 28.3334126833 318.966175958 34.5107421875 354 c 0
 75.06640625 584 221.104492188 726 405.104492188 726 c 0
 565.104492188 726 642.176757812 630 644.904296875 481 c 1
 591.19921875 477 l 1
 590.7109375 599 526.46484375 677 396.46484375 677 c 0
 243.46484375 677 122.776367188 554 87.5107421875 354 c 0
 81.8533547101 321.915569468 79.1022680321 291.864225034 79.1022680321 264.01936399 c 0
 79.1022680321 118.291806371 154.454745607 33 282.91015625 33 c 0
 418.91015625 33 515.192382812 114 556.997070312 249 c 1
 609.291015625 245 l 1
 556.079101562 85 436.26953125 -16 274.26953125 -16 c 0
EndSplineSet
Validated: 524289
EndChar

StartChar: Edieresis.ss08
Encoding: 65561 -1 156
Width: 583
GlyphClass: 2
Flags: HMW
HStem: 0 48<145 531 145 531> 331 47<145 511 145 511> 662 48<145 523 145 145> 806 71<217 235.5 383.5 402.5>
VStem: 95 50<48 331 378 662> 193 67<830 852> 360 66<830 852>
AnchorPoint: "Anchor-3" 357.873 710 basechar 0
AnchorPoint: "Anchor-2" 453.681 0 basechar 0
AnchorPoint: "Anchor-0" 232.681 0 basechar 0
LayerCount: 2
Fore
SplineSet
290.799804688 806 m 0
 274.995817735 806 263.272088967 816.021475453 263.272088967 833.357088458 c 0
 263.272088967 835.765925699 263.498450313 838.315984054 263.971679688 841 c 0
 267.850585938 863 285.319335938 877 303.319335938 877 c 0
 319.987082403 877 331.676690811 866.226058694 331.676690811 848.72879237 c 0
 331.676690811 846.280467319 331.447816151 843.700504092 330.971679688 841 c 0
 327.092773438 819 309.799804688 806 290.799804688 806 c 0
457.799804688 806 m 0
 441.248015348 806 430.230836363 815.865657879 430.230836363 832.95253168 c 0
 430.230836363 835.479887831 430.471870233 838.165229762 430.971679688 841 c 0
 434.850585938 863 451.319335938 877 470.319335938 877 c 0
 486.845057108 877 497.72060766 866.408885199 497.72060766 849.174606202 c 0
 497.72060766 846.594240043 497.476811036 843.864954434 496.971679688 841 c 0
 493.092773438 819 476.799804688 806 457.799804688 806 c 0
17.6806640625 0 m 1
 142.873046875 710 l 1
 570.873046875 710 l 1
 562.409179688 662 l 1
 184.409179688 662 l 1
 134.33203125 378 l 1
 500.33203125 378 l 1
 492.044921875 331 l 1
 126.044921875 331 l 1
 76.14453125 48 l 1
 462.14453125 48 l 1
 453.680664062 0 l 1
 17.6806640625 0 l 1
EndSplineSet
Validated: 524289
EndChar

StartChar: Edotaccent.ss08
Encoding: 65562 -1 157
Width: 583
GlyphClass: 2
Flags: HMW
HStem: 0 48<145 531 145 531> 331 47<145 511 145 511> 662 48<145 523 145 145> 806 71<300.5 319.5>
VStem: 95 50<48 331 378 662> 277 66<830 852>
AnchorPoint: "Anchor-3" 357.873 710 basechar 0
AnchorPoint: "Anchor-2" 453.681 0 basechar 0
AnchorPoint: "Anchor-0" 232.681 0 basechar 0
LayerCount: 2
Fore
SplineSet
374.799804688 806 m 0
 358.248015348 806 347.230836363 815.865657879 347.230836363 832.95253168 c 0
 347.230836363 835.479887831 347.471870233 838.165229762 347.971679688 841 c 0
 351.850585938 863 368.319335938 877 387.319335938 877 c 0
 403.845057108 877 414.72060766 866.408885199 414.72060766 849.174606202 c 0
 414.72060766 846.594240043 414.476811036 843.864954434 413.971679688 841 c 0
 410.092773438 819 393.799804688 806 374.799804688 806 c 0
17.6806640625 0 m 1
 142.873046875 710 l 1
 570.873046875 710 l 1
 562.409179688 662 l 1
 184.409179688 662 l 1
 134.33203125 378 l 1
 500.33203125 378 l 1
 492.044921875 331 l 1
 126.044921875 331 l 1
 76.14453125 48 l 1
 462.14453125 48 l 1
 453.680664062 0 l 1
 17.6806640625 0 l 1
EndSplineSet
Validated: 524289
EndChar

StartChar: Gdotaccent.ss08
Encoding: 65563 -1 158
Width: 683
GlyphClass: 2
Flags: HMW
HStem: -16 49<272 413.5> 0 21G<590 630 590 590> 294 46<358 582 358 630> 677 49<271.5 417.5> 806 71<347 365.5>
VStem: 48 53<257.5 449.5 257.5 466> 323 67<830 852> 582 48<294 294> 588 42
AnchorPoint: "Anchor-3" 405.283 710 basechar 0
AnchorPoint: "Anchor-0" 282.091 0 basechar 0
LayerCount: 2
Fore
SplineSet
422.2109375 806 m 0xbe80
 406.406826745 806 394.682285274 816.021632463 394.682285274 833.357495861 c 0
 394.682285274 835.766213224 394.908633242 838.316135368 395.381835938 841 c 0
 399.26171875 863 416.73046875 877 434.73046875 877 c 0
 451.397745218 877 463.087164371 866.226666293 463.087164371 848.73027252 c 0
 463.087164371 846.281507147 462.85818825 843.7010483 462.381835938 841 c 0
 458.502929688 819 441.2109375 806 422.2109375 806 c 0xbe80
272.26953125 -16 m 0
 114.244600166 -16 25.4323126589 88.9748688863 25.4323126589 256.078599314 c 0
 25.4323126589 286.718334905 28.4181819496 319.446842951 34.5107421875 354 c 0
 74.0078125 578 213.104492188 726 408.104492188 726 c 0
 557.104492188 726 635.05859375 635 637.609375 485 c 1
 584.728515625 480 l 1
 582.122070312 607 522.46484375 677 399.46484375 677 c 0
 230.46484375 677 121.189453125 545 87.5107421875 354 c 0
 81.8084596419 321.660884296 78.9829403782 291.146735606 78.9829403782 262.753936761 c 0
 78.9829403782 121.698373838 148.719785849 33 281.91015625 33 c 0
 419.91015625 33 520.54296875 133 557.931640625 294 c 1xb5
 333.931640625 294 l 1
 342.041992188 340 l 1
 614.041992188 340 l 1
 554.090820312 0 l 1
 514.090820312 0 l 1x7480
 537.598632812 156 l 1
 492.494140625 59 397.26953125 -16 272.26953125 -16 c 0
EndSplineSet
Validated: 524289
EndChar

StartChar: Idieresis.ss08
Encoding: 65564 -1 159
Width: 239
GlyphClass: 2
Flags: HMW
HStem: 0 21G<95 95 95 145> 690 20G<95 145 145 145> 806 71<27 45.5 193.5 212.5>
VStem: 3 67<830 852> 95 50<0 710 0 710> 170 66<830 852>
AnchorPoint: "Anchor-3" 167.873 710 basechar 0
AnchorPoint: "Anchor-2" 67.6807 0 basechar 0
AnchorPoint: "Anchor-0" 42.6807 0 basechar 0
LayerCount: 2
Fore
SplineSet
100.799804688 806 m 0
 84.9958177345 806 73.2720889665 816.021475453 73.2720889665 833.357088458 c 0
 73.2720889665 835.765925699 73.4984503134 838.315984054 73.9716796875 841 c 0
 77.8505859375 863 95.3193359375 877 113.319335938 877 c 0
 129.987082403 877 141.676690811 866.226058694 141.676690811 848.72879237 c 0
 141.676690811 846.280467319 141.447816151 843.700504092 140.971679688 841 c 0
 137.092773438 819 119.799804688 806 100.799804688 806 c 0
267.799804688 806 m 0
 251.248015348 806 240.230836363 815.865657879 240.230836363 832.95253168 c 0
 240.230836363 835.479887831 240.471870233 838.165229762 240.971679688 841 c 0
 244.850585938 863 261.319335938 877 280.319335938 877 c 0
 296.845057108 877 307.72060766 866.408885199 307.72060766 849.174606202 c 0
 307.72060766 846.594240043 307.476811036 843.864954434 306.971679688 841 c 0
 303.092773438 819 286.799804688 806 267.799804688 806 c 0
17.6806640625 0 m 1xe8
 142.873046875 710 l 1
 192.873046875 710 l 1
 67.6806640625 0 l 1
 17.6806640625 0 l 1xe8
EndSplineSet
Validated: 524289
EndChar

StartChar: Idotaccent.ss08
Encoding: 65565 -1 160
Width: 239
GlyphClass: 2
Flags: HMW
HStem: 0 21G<95 95 95 145> 690 20G<95 145 145 145> 806 71<110.5 129.5>
VStem: 87 66<830 852> 95 50<0 710 0 710>
AnchorPoint: "Anchor-3" 167.873 710 basechar 0
AnchorPoint: "Anchor-2" 67.6807 0 basechar 0
AnchorPoint: "Anchor-0" 42.6807 0 basechar 0
LayerCount: 2
Fore
SplineSet
184.799804688 806 m 0xf0
 168.248015348 806 157.230836363 815.865657879 157.230836363 832.95253168 c 0
 157.230836363 835.479887831 157.471870233 838.165229762 157.971679688 841 c 0
 161.850585938 863 178.319335938 877 197.319335938 877 c 0
 213.845057108 877 224.72060766 866.408885199 224.72060766 849.174606202 c 0
 224.72060766 846.594240043 224.476811036 843.864954434 223.971679688 841 c 0
 220.092773438 819 203.799804688 806 184.799804688 806 c 0xf0
17.6806640625 0 m 1xe8
 142.873046875 710 l 1
 192.873046875 710 l 1
 67.6806640625 0 l 1
 17.6806640625 0 l 1xe8
EndSplineSet
Validated: 524289
EndChar

StartChar: Odieresis.ss08
Encoding: 65566 -1 161
Width: 722
GlyphClass: 2
Flags: HMW
HStem: -16 49<280.5 442 280.5 458> 677 49<280.5 442> 806 71<268.5 287 435 453.5>
VStem: 48 53<254.5 453.5 254.5 468.5> 244 67<830 852> 411 67<830 852> 621 53<254.5 453.5>
AnchorPoint: "Anchor-3" 410.283 710 basechar 0
AnchorPoint: "Anchor-1" 347.688 355 basechar 0
AnchorPoint: "Anchor-0" 285.091 0 basechar 0
LayerCount: 2
Fore
SplineSet
344.2109375 806 m 0
 327.51960001 806 315.684090013 816.032713888 315.684090013 833.386248329 c 0
 315.684090013 835.786502617 315.910515651 838.32681183 316.381835938 841 c 0
 320.26171875 863 337.73046875 877 356.73046875 877 c 0
 372.511514922 877 384.089026352 866.238951062 384.089026352 848.760201047 c 0
 384.089026352 846.302535133 383.860129316 843.712054679 383.381835938 841 c 0
 379.502929688 819 362.2109375 806 344.2109375 806 c 0
510.2109375 806 m 0
 494.406826745 806 482.682285274 816.021632463 482.682285274 833.357495861 c 0
 482.682285274 835.766213224 482.908633242 838.316135368 483.381835938 841 c 0
 487.26171875 863 504.73046875 877 522.73046875 877 c 0
 539.397745218 877 551.087164371 866.226666293 551.087164371 848.73027252 c 0
 551.087164371 846.281507147 550.85818825 843.7010483 550.381835938 841 c 0
 546.502929688 819 529.2109375 806 510.2109375 806 c 0
282.26953125 -16 m 0
 117.911701902 -16 25.3575929678 85.9214699131 25.3575929678 255.711515616 c 0
 25.3575929678 286.333394293 28.3680672155 319.162809749 34.5107421875 354 c 0
 74.8896484375 583 219.104492188 726 413.104492188 726 c 0
 577.332668984 726 669.744395217 623.522641893 669.744395217 453.14694565 c 0
 669.744395217 422.260679934 666.707410528 389.143028421 660.510742188 354 c 0
 620.30859375 126 476.26953125 -16 282.26953125 -16 c 0
290.91015625 33 m 0
 452.91015625 33 572.421875 155 607.510742188 354 c 0
 613.148943395 385.976012059 615.915441607 416.015585617 615.915441607 443.91543361 c 0
 615.915441607 589.647924145 540.434120366 677 404.46484375 677 c 0
 243.46484375 677 122.599609375 553 87.5107421875 354 c 0
 81.9276896016 322.336753117 79.1947034631 292.622881569 79.1947034631 265.039652723 c 0
 79.1947034631 119.265343076 155.527154984 33 290.91015625 33 c 0
EndSplineSet
Validated: 524289
EndChar

StartChar: Udieresis.ss08
Encoding: 65567 -1 162
Width: 671
GlyphClass: 2
Flags: HMW
HStem: -16 49<270 401.5 270 416.5> 691 20G<80 130 130 130 541 591 591 591> 806 71<243 261.5 409.5 428.5>
VStem: 80 50<248 711> 219 67<830 852> 386 66<830 852> 541 50<248 711>
AnchorPoint: "Anchor-3" 385.283 710 basechar 0
AnchorPoint: "Anchor-2" 367.444 2 basechar 0
AnchorPoint: "Anchor-0" 260.091 0 basechar 0
LayerCount: 2
Fore
SplineSet
318.2109375 806 m 0
 302.406826745 806 290.682285274 816.021632463 290.682285274 833.357495861 c 0
 290.682285274 835.766213224 290.908633242 838.316135368 291.381835938 841 c 0
 295.26171875 863 312.73046875 877 330.73046875 877 c 0
 347.397745218 877 359.087164371 866.226666293 359.087164371 848.73027252 c 0
 359.087164371 846.281507147 358.85818825 843.7010483 358.381835938 841 c 0
 354.502929688 819 337.2109375 806 318.2109375 806 c 0
485.2109375 806 m 0
 468.659004701 806 457.641037074 815.865828898 457.641037074 832.952975974 c 0
 457.641037074 835.480202541 457.882055771 838.165395873 458.381835938 841 c 0
 462.26171875 863 478.73046875 877 497.73046875 877 c 0
 514.255701744 877 525.131097931 866.409510922 525.131097931 849.176133508 c 0
 525.131097931 846.595317017 524.887194147 843.865519691 524.381835938 841 c 0
 520.502929688 819 504.2109375 806 485.2109375 806 c 0
257.26953125 -16 m 0
 118.017580069 -16 41.6474388723 55.6711352329 41.6474388723 181.865045863 c 0
 41.6474388723 202.479947236 43.6854629869 224.549850909 47.8203125 248 c 2
 129.459960938 711 l 1
 179.459960938 711 l 1
 97.8203125 248 l 2
 94.2874896881 227.964271092 92.541244345 209.214367452 92.541244345 191.799255479 c 0
 92.541244345 89.2643789424 153.07476651 33 265.91015625 33 c 0
 396.91015625 33 484.487304688 110 508.8203125 248 c 2
 590.459960938 711 l 1
 640.459960938 711 l 1
 558.8203125 248 l 2
 529.374023438 81 418.26953125 -16 257.26953125 -16 c 0
EndSplineSet
Validated: 524289
EndChar

StartChar: Wdieresis.ss08
Encoding: 65568 -1 163
Width: 924
GlyphClass: 2
Flags: HMW
HStem: 0 61<236 269 269 269 269 303> 634 76<462 462> 806 71<369.5 388 536 554.5>
VStem: 345 67<830 852> 512 67<830 852>
AnchorPoint: "Anchor-3" 509.873 710 basechar 0
AnchorPoint: "Anchor-0" 384.681 0 basechar 0
LayerCount: 2
Fore
SplineSet
443.799804688 806 m 0
 427.108596352 806 415.27389401 816.032558627 415.27389401 833.385845497 c 0
 415.27389401 835.786218391 415.500333034 838.326662284 415.971679688 841 c 0
 419.850585938 863 437.319335938 877 456.319335938 877 c 0
 472.100830649 877 483.678551665 866.238339337 483.678551665 848.758710651 c 0
 483.678551665 846.301487847 483.449756022 843.711506463 482.971679688 841 c 0
 479.092773438 819 461.799804688 806 443.799804688 806 c 0
609.799804688 806 m 0
 593.995817735 806 582.272088967 816.021475453 582.272088967 833.357088458 c 0
 582.272088967 835.765925699 582.498450313 838.315984054 582.971679688 841 c 0
 586.850585938 863 604.319335938 877 622.319335938 877 c 0
 638.987082403 877 650.676690811 866.226058694 650.676690811 848.72879237 c 0
 650.676690811 846.280467319 650.447816151 843.700504092 649.971679688 841 c 0
 646.092773438 819 628.799804688 806 609.799804688 806 c 0
158.680664062 0 m 1
 88.873046875 710 l 1
 141.873046875 710 l 1
 202.436523438 61 l 1
 478.873046875 710 l 1
 540.873046875 710 l 1
 589.436523438 61 l 1
 877.873046875 710 l 1
 931.873046875 710 l 1
 611.680664062 0 l 1
 543.680664062 0 l 1
 496.471679688 634 l 1
 225.680664062 0 l 1
 158.680664062 0 l 1
EndSplineSet
Validated: 524289
EndChar

StartChar: Ydieresis.ss08
Encoding: 65569 -1 164
Width: 553
GlyphClass: 2
Flags: HMW
HStem: 0 21G<252 252 252 302> 690 20G<-3 56 56 56 497 556 556 556> 806 71<184 202.5 350.5 369.5>
VStem: 160 67<830 852> 252 50<0 290 0 290> 327 66<830 852>
AnchorPoint: "Anchor-3" 324.873 710 basechar 0
AnchorPoint: "Anchor-0" 199.681 0 basechar 0
LayerCount: 2
Fore
SplineSet
257.799804688 806 m 0
 241.995817735 806 230.272088967 816.021475453 230.272088967 833.357088458 c 0
 230.272088967 835.765925699 230.498450313 838.315984054 230.971679688 841 c 0
 234.850585938 863 252.319335938 877 270.319335938 877 c 0
 286.987082403 877 298.676690811 866.226058694 298.676690811 848.72879237 c 0
 298.676690811 846.280467319 298.447816151 843.700504092 297.971679688 841 c 0
 294.092773438 819 276.799804688 806 257.799804688 806 c 0
424.799804688 806 m 0
 408.248015348 806 397.230836363 815.865657879 397.230836363 832.95253168 c 0
 397.230836363 835.479887831 397.471870233 838.165229762 397.971679688 841 c 0
 401.850585938 863 418.319335938 877 437.319335938 877 c 0
 453.845057108 877 464.72060766 866.408885199 464.72060766 849.174606202 c 0
 464.72060766 846.594240043 464.476811036 843.864954434 463.971679688 841 c 0
 460.092773438 819 443.799804688 806 424.799804688 806 c 0
174.680664062 0 m 1xe8
 225.815429688 290 l 1
 44.873046875 710 l 1
 103.873046875 710 l 1
 259.455078125 339 l 1
 544.873046875 710 l 1
 603.873046875 710 l 1
 275.815429688 290 l 1
 224.680664062 0 l 1
 174.680664062 0 l 1xe8
EndSplineSet
Validated: 524289
EndChar

StartChar: Zdotaccent.ss08
Encoding: 65570 -1 165
Width: 530
GlyphClass: 2
Flags: HMW
HStem: 0 48<85 501 85 501> 662 48<42 435 42 491> 806 71<261.5 280.5>
VStem: 29 56<48 48 48 49 48 49> 238 66<830 852> 435 56<662 662>
AnchorPoint: "Anchor-3" 318.873 710 basechar 0
AnchorPoint: "Anchor-0" 193.681 0 basechar 0
LayerCount: 2
Fore
SplineSet
335.799804688 806 m 0
 319.248015348 806 308.230836363 815.865657879 308.230836363 832.95253168 c 0
 308.230836363 835.479887831 308.471870233 838.165229762 308.971679688 841 c 0
 312.850585938 863 329.319335938 877 348.319335938 877 c 0
 364.845057108 877 375.72060766 866.408885199 375.72060766 849.174606202 c 0
 375.72060766 846.594240043 375.476811036 843.864954434 374.971679688 841 c 0
 371.092773438 819 354.799804688 806 335.799804688 806 c 0
-48.3193359375 0 m 1
 -39.6796875 49 l 1
 474.409179688 662 l 1
 81.4091796875 662 l 1
 89.873046875 710 l 1
 538.873046875 710 l 1
 530.232421875 661 l 1
 16.14453125 48 l 1
 432.14453125 48 l 1
 423.680664062 0 l 1
 -48.3193359375 0 l 1
EndSplineSet
Validated: 524289
EndChar

StartChar: Idieresis.ss05.ss08
Encoding: 65571 -1 166
Width: 355
GlyphClass: 2
Flags: HMW
HStem: 0 48<48 153 48 153 203 307> 662 48<54 153 54 301 203 203 203 301> 806 71<85 103.5 251.5 270.5>
VStem: 48 155<0 662 48 662> 61 67<830 852> 153 50<48 662 48 662> 153 154<0 662> 228 66<830 852>
AnchorPoint: "Anchor-3" 225.873 710 basechar 0
AnchorPoint: "Anchor-2" 229.681 0 basechar 0
AnchorPoint: "Anchor-0" 100.681 0 basechar 0
LayerCount: 2
Fore
SplineSet
158.799804688 806 m 0xe9
 142.995817735 806 131.272088967 816.021475453 131.272088967 833.357088458 c 0
 131.272088967 835.765925699 131.498450313 838.315984054 131.971679688 841 c 0
 135.850585938 863 153.319335938 877 171.319335938 877 c 0
 187.987082403 877 199.676690811 866.226058694 199.676690811 848.72879237 c 0
 199.676690811 846.280467319 199.447816151 843.700504092 198.971679688 841 c 0
 195.092773438 819 177.799804688 806 158.799804688 806 c 0xe9
325.799804688 806 m 0
 309.248015348 806 298.230836363 815.865657879 298.230836363 832.95253168 c 0
 298.230836363 835.479887831 298.471870233 838.165229762 298.971679688 841 c 0
 302.850585938 863 319.319335938 877 338.319335938 877 c 0
 354.845057108 877 365.72060766 866.408885199 365.72060766 849.174606202 c 0
 365.72060766 846.594240043 365.476811036 843.864954434 364.971679688 841 c 0
 361.092773438 819 344.799804688 806 325.799804688 806 c 0
-29.3193359375 0 m 1xd0
 -20.85546875 48 l 1xd0
 84.14453125 48 l 1
 192.409179688 662 l 1
 93.4091796875 662 l 1
 101.873046875 710 l 1
 348.873046875 710 l 1
 340.409179688 662 l 1
 242.409179688 662 l 1
 134.14453125 48 l 1xc4
 238.14453125 48 l 1
 229.680664062 0 l 1xc2
 -29.3193359375 0 l 1xd0
EndSplineSet
Validated: 524289
EndChar

